Peace Sans One.ufo
<glyph name="exclam" format="1">
  <advance width="380"/>
  <unicode hex="0021"/>
  <outline>
    <contour>
      <point x="320" y="740" type="line" name="hr00"/>
      <point x="60" y="740" type="line"/>
      <point x="95" y="260" type="line"/>
      <point x="285" y="260" type="line"/>
    </contour>
    <contour>
      <point x="85" y="200" type="line"/>
      <point x="85" y="0" type="line"/>
      <point x="295" y="0" type="line"/>
      <point x="295" y="200" type="line"/>
    </contour>
  </outline>
</glyph>
<glyph name="quotedbl" format="1">
  <advance width="480"/>
  <unicode hex="0022"/>
  <outline>
    <contour>
      <point x="440" y="740" type="line" name="hr00"/>
      <point x="260" y="740" type="line"/>
      <point x="290" y="450" type="line"/>
      <point x="410" y="450" type="line"/>
    </contour>
    <contour>
      <point x="220" y="740" type="line"/>
      <point x="40" y="740" type="line"/>
      <point x="70" y="450" type="line"/>
      <point x="190" y="450" type="line"/>
    </contour>
  </outline>
</glyph>
<glyph name="numbersign" format="1">
  <advance width="750"/>
  <unicode hex="0023"/>
  <outline>
    <contour>
      <point x="330" y="420" type="line" name="hr00"/>
      <point x="440" y="420" type="line"/>
      <point x="420" y="280" type="line"/>
      <point x="310" y="280" type="line"/>
    </contour>
    <contour>
      <point x="350" y="560" type="line"/>
      <point x="370" y="700" type="line"/>
      <point x="210" y="700" type="line"/>
      <point x="190" y="560" type="line"/>
      <point x="70" y="560" type="line"/>
      <point x="50" y="420" type="line"/>
      <point x="170" y="420" type="line"/>
      <point x="150" y="280" type="line"/>
      <point x="30" y="280" type="line"/>
      <point x="10" y="140" type="line"/>
      <point x="130" y="140" type="line"/>
      <point x="110" y="0" type="line"/>
      <point x="270" y="0" type="line"/>
      <point x="290" y="140" type="line"/>
      <point x="400" y="140" type="line"/>
      <point x="380" y="0" type="line"/>
      <point x="540" y="0" type="line"/>
      <point x="560" y="140" type="line"/>
      <point x="680" y="140" type="line"/>
      <point x="700" y="280" type="line"/>
      <point x="580" y="280" type="line"/>
      <point x="600" y="420" type="line"/>
      <point x="720" y="420" type="line"/>
      <point x="740" y="560" type="line"/>
      <point x="620" y="560" type="line"/>
      <point x="640" y="700" type="line"/>
      <point x="480" y="700" type="line"/>
      <point x="460" y="560" type="line"/>
    </contour>
  </outline>
</glyph>
<glyph name="dollar" format="1">
  <advance width="625"/>
  <unicode hex="0024"/>
  <outline>
    <contour>
      <point x="240" y="-90" type="line" name="hr00"/>
      <point x="370" y="-90" type="line"/>
      <point x="370" y="-10" type="line"/>
      <point x="370" y="-10"/>
      <point x="605" y="20"/>
      <point x="605" y="210" type="curve" smooth="yes"/>
      <point x="605" y="430"/>
      <point x="335" y="430"/>
      <point x="335" y="480" type="curve" smooth="yes"/>
      <point x="335" y="495"/>
      <point x="350" y="510"/>
      <point x="375" y="510" type="curve" smooth="yes"/>
      <point x="445" y="510"/>
      <point x="505" y="455"/>
      <point x="505" y="455" type="curve"/>
      <point x="600" y="605" type="line"/>
      <point x="600" y="605"/>
      <point x="520" y="700"/>
      <point x="370" y="715" type="curve"/>
      <point x="370" y="790" type="line"/>
      <point x="240" y="790" type="line"/>
      <point x="240" y="705" type="line"/>
      <point x="240" y="705"/>
      <point x="45" y="655"/>
      <point x="45" y="490" type="curve" smooth="yes"/>
      <point x="45" y="270"/>
      <point x="315" y="270"/>
      <point x="315" y="220" type="curve" smooth="yes"/>
      <point x="315" y="205"/>
      <point x="300" y="190"/>
      <point x="275" y="190" type="curve" smooth="yes"/>
      <point x="175" y="190"/>
      <point x="105" y="255"/>
      <point x="105" y="255" type="curve"/>
      <point x="10" y="105" type="line"/>
      <point x="10" y="105"/>
      <point x="80" y="10"/>
      <point x="240" y="-10" type="curve"/>
    </contour>
  </outline>
</glyph>
<glyph name="percent" format="1">
  <advance width="790"/>
  <unicode hex="0025"/>
  <outline>
    <contour>
      <point x="260" y="0" type="line" name="hr00"/>
      <point x="730" y="700" type="line"/>
      <point x="530" y="700" type="line"/>
      <point x="60" y="0" type="line"/>
    </contour>
    <contour>
      <point x="180" y="600" type="curve" smooth="yes"/>
      <point x="200" y="600"/>
      <point x="220" y="580"/>
      <point x="220" y="550" type="curve" smooth="yes"/>
      <point x="220" y="520"/>
      <point x="200" y="500"/>
      <point x="180" y="500" type="curve" smooth="yes"/>
      <point x="160" y="500"/>
      <point x="140" y="520"/>
      <point x="140" y="550" type="curve" smooth="yes"/>
      <point x="140" y="580"/>
      <point x="160" y="600"/>
    </contour>
    <contour>
      <point x="180" y="390" type="curve" smooth="yes"/>
      <point x="270" y="390"/>
      <point x="340" y="460"/>
      <point x="340" y="550" type="curve" smooth="yes"/>
      <point x="340" y="640"/>
      <point x="270" y="710"/>
      <point x="180" y="710" type="curve" smooth="yes"/>
      <point x="90" y="710"/>
      <point x="20" y="640"/>
      <point x="20" y="550" type="curve" smooth="yes"/>
      <point x="20" y="460"/>
      <point x="90" y="390"/>
    </contour>
    <contour>
      <point x="610" y="200" type="curve" smooth="yes"/>
      <point x="630" y="200"/>
      <point x="650" y="180"/>
      <point x="650" y="150" type="curve" smooth="yes"/>
      <point x="650" y="120"/>
      <point x="630" y="100"/>
      <point x="610" y="100" type="curve" smooth="yes"/>
      <point x="590" y="100"/>
      <point x="570" y="120"/>
      <point x="570" y="150" type="curve" smooth="yes"/>
      <point x="570" y="180"/>
      <point x="590" y="200"/>
    </contour>
    <contour>
      <point x="610" y="-10" type="curve" smooth="yes"/>
      <point x="700" y="-10"/>
      <point x="770" y="60"/>
      <point x="770" y="150" type="curve" smooth="yes"/>
      <point x="770" y="240"/>
      <point x="700" y="310"/>
      <point x="610" y="310" type="curve" smooth="yes"/>
      <point x="520" y="310"/>
      <point x="450" y="240"/>
      <point x="450" y="150" type="curve" smooth="yes"/>
      <point x="450" y="60"/>
      <point x="520" y="-10"/>
    </contour>
  </outline>
</glyph>
<glyph name="ampersand" format="1">
  <advance width="715"/>
  <unicode hex="0026"/>
  <outline>
    <contour>
      <point x="715" y="130" type="line" name="hr00"/>
      <point x="620" y="210" type="line"/>
      <point x="715" y="325" type="line"/>
      <point x="580" y="440" type="line"/>
      <point x="485" y="325" type="line"/>
      <point x="435" y="370" type="line"/>
      <point x="435" y="370"/>
      <point x="530" y="450"/>
      <point x="530" y="530" type="curve" smooth="yes"/>
      <point x="530" y="630"/>
      <point x="440" y="720"/>
      <point x="315" y="720" type="curve" smooth="yes"/>
      <point x="180" y="720"/>
      <point x="90" y="630"/>
      <point x="90" y="520" type="curve" smooth="yes"/>
      <point x="90" y="435"/>
      <point x="150" y="380"/>
      <point x="150" y="380" type="curve"/>
      <point x="150" y="380"/>
      <point x="30" y="310"/>
      <point x="30" y="190" type="curve" smooth="yes"/>
      <point x="30" y="75"/>
      <point x="120" y="-15"/>
      <point x="280" y="-15" type="curve" smooth="yes"/>
      <point x="420" y="-15"/>
      <point x="500" y="75"/>
      <point x="500" y="75" type="curve"/>
      <point x="595" y="-10" type="line"/>
    </contour>
    <contour>
      <point x="270" y="510" type="curve" smooth="yes"/>
      <point x="270" y="540"/>
      <point x="290" y="560"/>
      <point x="315" y="560" type="curve" smooth="yes"/>
      <point x="340" y="560"/>
      <point x="360" y="540"/>
      <point x="360" y="510" type="curve" smooth="yes"/>
      <point x="360" y="480"/>
      <point x="315" y="450"/>
      <point x="315" y="450" type="curve"/>
      <point x="315" y="450"/>
      <point x="270" y="480"/>
    </contour>
    <contour>
      <point x="240" y="215" type="curve" smooth="yes"/>
      <point x="240" y="245"/>
      <point x="270" y="270"/>
      <point x="270" y="270" type="curve"/>
      <point x="365" y="190" type="line"/>
      <point x="365" y="190"/>
      <point x="340" y="160"/>
      <point x="295" y="160" type="curve" smooth="yes"/>
      <point x="265" y="160"/>
      <point x="240" y="185"/>
    </contour>
  </outline>
</glyph>
<glyph name="quotesingle" format="1">
  <advance width="260"/>
  <unicode hex="0027"/>
  <outline>
    <contour>
      <point x="220" y="740" type="line" name="hr00"/>
      <point x="40" y="740" type="line"/>
      <point x="70" y="450" type="line"/>
      <point x="190" y="450" type="line"/>
    </contour>
  </outline>
</glyph>
<glyph name="parenleft" format="1">
  <advance width="400"/>
  <unicode hex="0028"/>
  <outline>
    <contour>
      <point x="270" y="280" type="curve" name="hr00"/>
      <point x="270" y="510"/>
      <point x="400" y="700"/>
      <point x="400" y="700" type="curve"/>
      <point x="270" y="700" type="line"/>
      <point x="270" y="700"/>
      <point x="60" y="540"/>
      <point x="60" y="280" type="curve"/>
      <point x="60" y="20"/>
      <point x="270" y="-140"/>
      <point x="270" y="-140" type="curve"/>
      <point x="400" y="-140" type="line"/>
      <point x="400" y="-140"/>
      <point x="270" y="50"/>
    </contour>
  </outline>
</glyph>
<glyph name="parenright" format="1">
  <advance width="400"/>
  <unicode hex="0029"/>
  <outline>
    <contour>
      <point x="130" y="280" type="curve" name="hr00"/>
      <point x="130" y="50"/>
      <point x="0" y="-140"/>
      <point x="0" y="-140" type="curve"/>
      <point x="130" y="-140" type="line"/>
      <point x="130" y="-140"/>
      <point x="340" y="20"/>
      <point x="340" y="280" type="curve"/>
      <point x="340" y="540"/>
      <point x="130" y="700"/>
      <point x="130" y="700" type="curve"/>
      <point x="0" y="700" type="line"/>
      <point x="0" y="700"/>
      <point x="130" y="510"/>
    </contour>
  </outline>
</glyph>
<glyph name="asterisk" format="1">
  <advance width="490"/>
  <unicode hex="002A"/>
  <outline>
    <contour>
      <point x="245" y="385" type="line" name="hr00"/>
      <point x="310" y="290" type="line"/>
      <point x="425" y="375" type="line"/>
      <point x="355" y="465" type="line"/>
      <point x="460" y="495" type="line"/>
      <point x="415" y="625" type="line"/>
      <point x="310" y="590" type="line"/>
      <point x="315" y="700" type="line"/>
      <point x="175" y="700" type="line"/>
      <point x="180" y="590" type="line"/>
      <point x="75" y="625" type="line"/>
      <point x="30" y="495" type="line"/>
      <point x="135" y="465" type="line"/>
      <point x="65" y="375" type="line"/>
      <point x="180" y="290" type="line"/>
    </contour>
  </outline>
</glyph>
<glyph name="plus" format="1">
  <advance width="510"/>
  <unicode hex="002B"/>
  <outline>
    <contour>
      <point x="350" y="420" type="line" name="hr00"/>
      <point x="350" y="560" type="line"/>
      <point x="160" y="560" type="line"/>
      <point x="160" y="420" type="line"/>
      <point x="30" y="420" type="line"/>
      <point x="30" y="230" type="line"/>
      <point x="160" y="230" type="line"/>
      <point x="160" y="90" type="line"/>
      <point x="350" y="90" type="line"/>
      <point x="350" y="230" type="line"/>
      <point x="480" y="230" type="line"/>
      <point x="480" y="420" type="line"/>
    </contour>
  </outline>
</glyph>
<glyph name="comma" format="1">
  <advance width="300"/>
  <unicode hex="002C"/>
  <outline>
    <contour>
      <point x="70" y="200" type="line" name="hr00"/>
      <point x="0" y="-100" type="line"/>
      <point x="160" y="-100" type="line"/>
      <point x="280" y="200" type="line"/>
    </contour>
  </outline>
</glyph>
<glyph name="period" format="1">
  <advance width="290"/>
  <unicode hex="002E"/>
  <outline>
    <contour>
      <point x="40" y="200" type="line" name="hr00"/>
      <point x="40" y="0" type="line"/>
      <point x="250" y="0" type="line"/>
      <point x="250" y="200" type="line"/>
    </contour>
  </outline>
</glyph>
<glyph name="zero" format="1">
  <advance width="760"/>
  <unicode hex="0030"/>
  <outline>
    <contour>
      <point x="380" y="490" type="curve" smooth="yes" name="hr00"/>
      <point x="420" y="490"/>
      <point x="460" y="450"/>
      <point x="460" y="350" type="curve" smooth="yes"/>
      <point x="460" y="250"/>
      <point x="420" y="210"/>
      <point x="380" y="210" type="curve" smooth="yes"/>
      <point x="340" y="210"/>
      <point x="300" y="250"/>
      <point x="300" y="350" type="curve" smooth="yes"/>
      <point x="300" y="450"/>
      <point x="340" y="490"/>
    </contour>
    <contour>
      <point x="380" y="-15" type="curve" smooth="yes"/>
      <point x="570" y="-15"/>
      <point x="720" y="135"/>
      <point x="720" y="350" type="curve" smooth="yes"/>
      <point x="720" y="565"/>
      <point x="570" y="715"/>
      <point x="380" y="715" type="curve" smooth="yes"/>
      <point x="190" y="715"/>
      <point x="40" y="565"/>
      <point x="40" y="350" type="curve" smooth="yes"/>
      <point x="40" y="135"/>
      <point x="190" y="-15"/>
    </contour>
  </outline>
</glyph>
<glyph name="one" format="1">
  <advance width="490"/>
  <unicode hex="0031"/>
  <outline>
    <contour>
      <point x="190" y="700" type="line" name="hr00"/>
      <point x="20" y="630" type="line"/>
      <point x="20" y="410" type="line"/>
      <point x="170" y="460" type="line"/>
      <point x="170" y="0" type="line"/>
      <point x="430" y="0" type="line"/>
      <point x="430" y="700" type="line"/>
    </contour>
  </outline>
</glyph>
<glyph name="two" format="1">
  <advance width="655"/>
  <unicode hex="0032"/>
  <outline>
    <contour>
      <point x="605" y="490" type="curve" smooth="yes" name="hr00"/>
      <point x="605" y="605"/>
      <point x="495" y="715"/>
      <point x="320" y="715" type="curve" smooth="yes"/>
      <point x="130" y="715"/>
      <point x="40" y="605"/>
      <point x="40" y="605" type="curve"/>
      <point x="135" y="455" type="line"/>
      <point x="135" y="455"/>
      <point x="195" y="510"/>
      <point x="280" y="510" type="curve" smooth="yes"/>
      <point x="315" y="510"/>
      <point x="335" y="490"/>
      <point x="335" y="460" type="curve" smooth="yes"/>
      <point x="335" y="370"/>
      <point x="55" y="200"/>
      <point x="55" y="200" type="curve"/>
      <point x="55" y="0" type="line"/>
      <point x="595" y="0" type="line"/>
      <point x="595" y="220" type="line"/>
      <point x="395" y="220" type="line"/>
      <point x="395" y="220"/>
      <point x="605" y="320"/>
    </contour>
  </outline>
</glyph>
<glyph name="three" format="1">
  <advance width="635"/>
  <unicode hex="0033"/>
  <outline>
    <contour>
      <point x="565" y="490" type="line" name="hr00"/>
      <point x="565" y="700" type="line"/>
      <point x="75" y="700" type="line"/>
      <point x="75" y="490" type="line"/>
      <point x="305" y="490" type="line"/>
      <point x="185" y="410" type="line"/>
      <point x="185" y="280" type="line"/>
      <point x="270" y="280" type="line" smooth="yes"/>
      <point x="305" y="280"/>
      <point x="325" y="260"/>
      <point x="325" y="235" type="curve" smooth="yes"/>
      <point x="325" y="210"/>
      <point x="305" y="190"/>
      <point x="270" y="190" type="curve" smooth="yes"/>
      <point x="185" y="190"/>
      <point x="125" y="245"/>
      <point x="125" y="245" type="curve"/>
      <point x="30" y="95" type="line"/>
      <point x="30" y="95"/>
      <point x="120" y="-15"/>
      <point x="310" y="-15" type="curve" smooth="yes"/>
      <point x="485" y="-15"/>
      <point x="595" y="95"/>
      <point x="595" y="205" type="curve" smooth="yes"/>
      <point x="595" y="370"/>
      <point x="425" y="400"/>
      <point x="425" y="400" type="curve"/>
    </contour>
  </outline>
</glyph>
<glyph name="four" format="1">
  <advance width="660"/>
  <unicode hex="0034"/>
  <outline>
    <contour>
      <point x="580" y="300" type="line" name="hr00"/>
      <point x="580" y="700" type="line"/>
      <point x="280" y="700" type="line"/>
      <point x="30" y="300" type="line"/>
      <point x="30" y="110" type="line"/>
      <point x="320" y="110" type="line"/>
      <point x="320" y="0" type="line"/>
      <point x="580" y="0" type="line"/>
      <point x="580" y="110" type="line"/>
      <point x="640" y="110" type="line"/>
      <point x="640" y="300" type="line"/>
    </contour>
    <contour>
      <point x="260" y="300" type="line"/>
      <point x="320" y="430" type="line"/>
      <point x="320" y="300" type="line"/>
    </contour>
  </outline>
</glyph>
<glyph name="five" format="1">
  <advance width="615"/>
  <unicode hex="0035"/>
  <outline>
    <contour>
      <point x="345" y="450" type="curve" smooth="yes" name="hr00"/>
      <point x="305" y="450"/>
      <point x="275" y="440"/>
      <point x="275" y="440" type="curve"/>
      <point x="285" y="490" type="line"/>
      <point x="545" y="490" type="line"/>
      <point x="545" y="700" type="line"/>
      <point x="95" y="700" type="line"/>
      <point x="45" y="370" type="line"/>
      <point x="165" y="290" type="line"/>
      <point x="165" y="290"/>
      <point x="205" y="310"/>
      <point x="245" y="310" type="curve" smooth="yes"/>
      <point x="290" y="310"/>
      <point x="315" y="285"/>
      <point x="315" y="250" type="curve" smooth="yes"/>
      <point x="315" y="215"/>
      <point x="290" y="190"/>
      <point x="245" y="190" type="curve" smooth="yes"/>
      <point x="175" y="190"/>
      <point x="115" y="245"/>
      <point x="115" y="245" type="curve"/>
      <point x="20" y="95" type="line"/>
      <point x="20" y="95"/>
      <point x="110" y="-15"/>
      <point x="300" y="-15" type="curve" smooth="yes"/>
      <point x="475" y="-15"/>
      <point x="585" y="95"/>
      <point x="585" y="220" type="curve" smooth="yes"/>
      <point x="585" y="350"/>
      <point x="485" y="450"/>
    </contour>
  </outline>
</glyph>
<glyph name="six" format="1">
  <advance width="670"/>
  <unicode hex="0036"/>
  <outline>
    <contour>
      <point x="290" y="420" type="curve" name="hr00"/>
      <point x="290" y="470"/>
      <point x="340" y="520"/>
      <point x="420" y="520" type="curve" smooth="yes"/>
      <point x="480" y="520"/>
      <point x="530" y="490"/>
      <point x="530" y="490" type="curve"/>
      <point x="600" y="650" type="line"/>
      <point x="600" y="650"/>
      <point x="510" y="715"/>
      <point x="370" y="715" type="curve" smooth="yes"/>
      <point x="190" y="715"/>
      <point x="40" y="565"/>
      <point x="40" y="350" type="curve" smooth="yes"/>
      <point x="40" y="115"/>
      <point x="170" y="-15"/>
      <point x="360" y="-15" type="curve" smooth="yes"/>
      <point x="530" y="-15"/>
      <point x="640" y="95"/>
      <point x="640" y="240" type="curve" smooth="yes"/>
      <point x="640" y="380"/>
      <point x="550" y="470"/>
      <point x="410" y="470" type="curve" smooth="yes"/>
      <point x="330" y="470"/>
    </contour>
    <contour>
      <point x="410" y="240" type="curve" smooth="yes"/>
      <point x="410" y="195"/>
      <point x="385" y="170"/>
      <point x="360" y="170" type="curve" smooth="yes"/>
      <point x="335" y="170"/>
      <point x="310" y="195"/>
      <point x="310" y="240" type="curve" smooth="yes"/>
      <point x="310" y="285"/>
      <point x="335" y="310"/>
      <point x="360" y="310" type="curve" smooth="yes"/>
      <point x="385" y="310"/>
      <point x="410" y="285"/>
    </contour>
  </outline>
</glyph>
<glyph name="eight" format="1">
  <advance width="690"/>
  <unicode hex="0038"/>
  <outline>
    <contour>
      <point x="345" y="560" type="curve" name="hr00"/>
      <point x="370" y="560"/>
      <point x="390" y="540"/>
      <point x="390" y="505" type="curve" smooth="yes"/>
      <point x="390" y="470"/>
      <point x="370" y="450"/>
      <point x="345" y="450" type="curve" smooth="yes"/>
      <point x="320" y="450"/>
      <point x="300" y="470"/>
      <point x="300" y="505" type="curve" smooth="yes"/>
      <point x="300" y="540"/>
      <point x="320" y="560"/>
    </contour>
    <contour>
      <point x="345" y="280" type="curve"/>
      <point x="375" y="280"/>
      <point x="400" y="255"/>
      <point x="400" y="220" type="curve" smooth="yes"/>
      <point x="400" y="185"/>
      <point x="375" y="160"/>
      <point x="345" y="160" type="curve" smooth="yes"/>
      <point x="315" y="160"/>
      <point x="290" y="185"/>
      <point x="290" y="220" type="curve" smooth="yes"/>
      <point x="290" y="255"/>
      <point x="315" y="280"/>
    </contour>
    <contour>
      <point x="345" y="715" type="curve"/>
      <point x="170" y="715"/>
      <point x="70" y="615"/>
      <point x="70" y="515" type="curve" smooth="yes"/>
      <point x="70" y="405"/>
      <point x="170" y="370"/>
      <point x="170" y="370" type="curve"/>
      <point x="170" y="365" type="line"/>
      <point x="170" y="365"/>
      <point x="30" y="330"/>
      <point x="30" y="190" type="curve" smooth="yes"/>
      <point x="30" y="85"/>
      <point x="130" y="-15"/>
      <point x="345" y="-15" type="curve" smooth="yes"/>
      <point x="560" y="-15"/>
      <point x="660" y="85"/>
      <point x="660" y="190" type="curve" smooth="yes"/>
      <point x="660" y="330"/>
      <point x="520" y="365"/>
      <point x="520" y="365" type="curve"/>
      <point x="520" y="370" type="line"/>
      <point x="520" y="370"/>
      <point x="620" y="405"/>
      <point x="620" y="515" type="curve" smooth="yes"/>
      <point x="620" y="615"/>
      <point x="520" y="715"/>
    </contour>
  </outline>
</glyph>
<glyph name="nine" format="1">
  <advance width="670"/>
  <unicode hex="0039"/>
  <outline>
    <contour>
      <point x="380" y="280" type="curve" name="hr00"/>
      <point x="380" y="230"/>
      <point x="330" y="180"/>
      <point x="250" y="180" type="curve" smooth="yes"/>
      <point x="190" y="180"/>
      <point x="140" y="210"/>
      <point x="140" y="210" type="curve"/>
      <point x="70" y="50" type="line"/>
      <point x="70" y="50"/>
      <point x="160" y="-15"/>
      <point x="300" y="-15" type="curve" smooth="yes"/>
      <point x="480" y="-15"/>
      <point x="630" y="135"/>
      <point x="630" y="350" type="curve" smooth="yes"/>
      <point x="630" y="585"/>
      <point x="500" y="715"/>
      <point x="310" y="715" type="curve" smooth="yes"/>
      <point x="140" y="715"/>
      <point x="30" y="605"/>
      <point x="30" y="460" type="curve" smooth="yes"/>
      <point x="30" y="320"/>
      <point x="120" y="230"/>
      <point x="260" y="230" type="curve" smooth="yes"/>
      <point x="340" y="230"/>
    </contour>
    <contour>
      <point x="260" y="460" type="curve" smooth="yes"/>
      <point x="260" y="505"/>
      <point x="285" y="530"/>
      <point x="310" y="530" type="curve" smooth="yes"/>
      <point x="335" y="530"/>
      <point x="360" y="505"/>
      <point x="360" y="460" type="curve" smooth="yes"/>
      <point x="360" y="415"/>
      <point x="335" y="390"/>
      <point x="310" y="390" type="curve" smooth="yes"/>
      <point x="285" y="390"/>
      <point x="260" y="415"/>
    </contour>
  </outline>
</glyph>
<glyph name="colon" format="1">
  <advance width="290"/>
  <unicode hex="003A"/>
  <outline>
    <contour>
      <point x="250" y="330" type="line" name="hr00"/>
      <point x="250" y="530" type="line"/>
      <point x="40" y="530" type="line"/>
      <point x="40" y="330" type="line"/>
    </contour>
    <contour>
      <point x="250" y="0" type="line"/>
      <point x="250" y="200" type="line"/>
      <point x="40" y="200" type="line"/>
      <point x="40" y="0" type="line"/>
    </contour>
  </outline>
</glyph>
<glyph name="semicolon" format="1">
  <advance width="320"/>
  <unicode hex="003B"/>
  <outline>
    <contour>
      <point x="280" y="330" type="line" name="hr00"/>
      <point x="280" y="530" type="line"/>
      <point x="70" y="530" type="line"/>
      <point x="70" y="330" type="line"/>
    </contour>
    <contour>
      <point x="70" y="200" type="line"/>
      <point x="0" y="-100" type="line"/>
      <point x="160" y="-100" type="line"/>
      <point x="280" y="200" type="line"/>
    </contour>
  </outline>
</glyph>
<glyph name="less" format="1">
  <advance width="600"/>
  <unicode hex="003C"/>
  <outline>
    <contour>
      <point x="40" y="350" type="line" name="hr00"/>
      <point x="40" y="180" type="line"/>
      <point x="560" y="0" type="line"/>
      <point x="560" y="170" type="line"/>
      <point x="250" y="265" type="line"/>
      <point x="560" y="360" type="line"/>
      <point x="560" y="530" type="line"/>
    </contour>
  </outline>
</glyph>
<glyph name="equal" format="1">
  <advance width="490"/>
  <unicode hex="003D"/>
  <outline>
    <contour>
      <point x="30" y="280" type="line" name="hr00"/>
      <point x="30" y="110" type="line"/>
      <point x="460" y="110" type="line"/>
      <point x="460" y="280" type="line"/>
    </contour>
    <contour>
      <point x="30" y="360" type="line"/>
      <point x="460" y="360" type="line"/>
      <point x="460" y="530" type="line"/>
      <point x="30" y="530" type="line"/>
    </contour>
  </outline>
</glyph>
<glyph name="greater" format="1">
  <advance width="600"/>
  <unicode hex="003E"/>
  <outline>
    <contour>
      <point x="40" y="530" type="line" name="hr00"/>
      <point x="40" y="360" type="line"/>
      <point x="350" y="265" type="line"/>
      <point x="40" y="170" type="line"/>
      <point x="40" y="0" type="line"/>
      <point x="560" y="180" type="line"/>
      <point x="560" y="350" type="line"/>
    </contour>
  </outline>
</glyph>
<glyph name="question" format="1">
  <advance width="600"/>
  <unicode hex="003F"/>
  <outline>
    <contour>
      <point x="570" y="530" type="curve" smooth="yes" name="hr00"/>
      <point x="570" y="640"/>
      <point x="470" y="740"/>
      <point x="300" y="740" type="curve" smooth="yes"/>
      <point x="60" y="740"/>
      <point x="20" y="550"/>
      <point x="20" y="550" type="curve"/>
      <point x="210" y="480" type="line"/>
      <point x="210" y="480"/>
      <point x="220" y="540"/>
      <point x="270" y="540" type="curve" smooth="yes"/>
      <point x="290" y="540"/>
      <point x="310" y="520"/>
      <point x="310" y="500" type="curve" smooth="yes"/>
      <point x="310" y="430"/>
      <point x="190" y="410"/>
      <point x="190" y="260" type="curve"/>
      <point x="400" y="260" type="line"/>
      <point x="400" y="360"/>
      <point x="570" y="400"/>
    </contour>
    <contour>
      <point x="190" y="200" type="line"/>
      <point x="190" y="0" type="line"/>
      <point x="400" y="0" type="line"/>
      <point x="400" y="200" type="line"/>
    </contour>
  </outline>
</glyph>
<glyph name="at" format="1">
  <advance width="840"/>
  <unicode hex="0040"/>
  <outline>
    <contour>
      <point x="700" y="270" type="curve" smooth="yes" name="hr00"/>
      <point x="700" y="215"/>
      <point x="675" y="190"/>
      <point x="650" y="190" type="curve" smooth="yes"/>
      <point x="625" y="190"/>
      <point x="600" y="215"/>
      <point x="600" y="260" type="curve" smooth="yes"/>
      <point x="600" y="450" type="line"/>
      <point x="460" y="450" type="line"/>
      <point x="450" y="420" type="line"/>
      <point x="450" y="420"/>
      <point x="430" y="460"/>
      <point x="375" y="460" type="curve" smooth="yes"/>
      <point x="300" y="460"/>
      <point x="230" y="390"/>
      <point x="230" y="270" type="curve" smooth="yes"/>
      <point x="230" y="150"/>
      <point x="300" y="80"/>
      <point x="375" y="80" type="curve" smooth="yes"/>
      <point x="480" y="80"/>
      <point x="510" y="150"/>
      <point x="510" y="150" type="curve"/>
      <point x="510" y="150"/>
      <point x="540" y="80"/>
      <point x="630" y="80" type="curve" smooth="yes"/>
      <point x="720" y="80"/>
      <point x="800" y="160"/>
      <point x="800" y="270" type="curve" smooth="yes"/>
      <point x="800" y="470"/>
      <point x="630" y="640"/>
      <point x="420" y="640" type="curve" smooth="yes"/>
      <point x="210" y="640"/>
      <point x="40" y="470"/>
      <point x="40" y="270" type="curve" smooth="yes"/>
      <point x="40" y="70"/>
      <point x="210" y="-100"/>
      <point x="420" y="-100" type="curve" smooth="yes"/>
      <point x="540" y="-100"/>
      <point x="620" y="-50"/>
      <point x="620" y="-50" type="curve"/>
      <point x="580" y="40" type="line"/>
      <point x="580" y="40"/>
      <point x="510" y="0"/>
      <point x="420" y="0" type="curve" smooth="yes"/>
      <point x="260" y="0"/>
      <point x="140" y="120"/>
      <point x="140" y="270" type="curve" smooth="yes"/>
      <point x="140" y="420"/>
      <point x="260" y="540"/>
      <point x="420" y="540" type="curve" smooth="yes"/>
      <point x="580" y="540"/>
      <point x="700" y="420"/>
    </contour>
    <contour>
      <point x="450" y="205" type="line"/>
      <point x="450" y="205"/>
      <point x="440" y="200"/>
      <point x="430" y="200" type="curve" smooth="yes"/>
      <point x="405" y="200"/>
      <point x="385" y="220"/>
      <point x="385" y="270" type="curve" smooth="yes"/>
      <point x="385" y="320"/>
      <point x="405" y="340"/>
      <point x="430" y="340" type="curve" smooth="yes"/>
      <point x="440" y="340"/>
      <point x="450" y="335"/>
      <point x="450" y="335" type="curve"/>
    </contour>
  </outline>
</glyph>
<glyph name="A" format="1">
  <advance width="770"/>
  <unicode hex="0041"/>
  <outline>
    <contour>
      <point x="555" y="700" type="curve" name="hr00"/>
      <point x="215" y="700" type="line"/>
      <point x="10" y="0" type="line"/>
      <point x="300" y="0" type="line"/>
      <point x="320" y="100" type="line"/>
      <point x="450" y="100" type="line"/>
      <point x="470" y="0" type="line"/>
      <point x="760" y="0" type="line"/>
      <point x="760" y="0"/>
      <point x="556" y="696"/>
    </contour>
    <contour>
      <point x="350" y="260" type="line"/>
      <point x="385" y="440" type="line"/>
      <point x="420" y="260" type="line"/>
    </contour>
  </outline>
</glyph>
<glyph name="B" format="1">
  <advance width="730"/>
  <unicode hex="0042"/>
  <outline>
    <contour>
      <point x="540" y="370" type="line" name="hr00"/>
      <point x="540" y="370"/>
      <point x="670" y="395"/>
      <point x="670" y="515" type="curve" smooth="yes"/>
      <point x="670" y="620"/>
      <point x="580" y="710"/>
      <point x="355" y="710" type="curve" smooth="yes"/>
      <point x="200" y="710"/>
      <point x="60" y="700"/>
      <point x="60" y="700" type="curve"/>
      <point x="60" y="0" type="line"/>
      <point x="60" y="0"/>
      <point x="200" y="-10"/>
      <point x="360" y="-10" type="curve" smooth="yes"/>
      <point x="610" y="-10"/>
      <point x="700" y="80"/>
      <point x="700" y="190" type="curve" smooth="yes"/>
      <point x="700" y="340"/>
      <point x="540" y="365"/>
      <point x="540" y="365" type="curve"/>
    </contour>
    <contour>
      <point x="320" y="530" type="line"/>
      <point x="355" y="530" type="line" smooth="yes"/>
      <point x="390" y="530"/>
      <point x="410" y="510"/>
      <point x="410" y="485" type="curve" smooth="yes"/>
      <point x="410" y="460"/>
      <point x="390" y="440"/>
      <point x="355" y="440" type="curve" smooth="yes"/>
      <point x="320" y="440" type="line"/>
    </contour>
    <contour>
      <point x="360" y="170" type="curve" smooth="yes"/>
      <point x="340" y="170"/>
      <point x="320" y="170"/>
      <point x="320" y="170" type="curve"/>
      <point x="320" y="270" type="line"/>
      <point x="360" y="270" type="line" smooth="yes"/>
      <point x="400" y="270"/>
      <point x="420" y="250"/>
      <point x="420" y="220" type="curve" smooth="yes"/>
      <point x="420" y="190"/>
      <point x="400" y="170"/>
    </contour>
  </outline>
</glyph>
<glyph name="C" format="1">
  <advance width="710"/>
  <unicode hex="0043"/>
  <outline>
    <contour>
      <point x="40" y="350" type="curve" smooth="yes" name="hr00"/>
      <point x="40" y="145"/>
      <point x="200" y="-15"/>
      <point x="410" y="-15" type="curve" smooth="yes"/>
      <point x="600" y="-15"/>
      <point x="690" y="95"/>
      <point x="690" y="95" type="curve"/>
      <point x="570" y="285" type="line"/>
      <point x="570" y="285"/>
      <point x="510" y="230"/>
      <point x="440" y="230" type="curve" smooth="yes"/>
      <point x="370" y="230"/>
      <point x="320" y="280"/>
      <point x="320" y="350" type="curve" smooth="yes"/>
      <point x="320" y="420"/>
      <point x="370" y="470"/>
      <point x="440" y="470" type="curve" smooth="yes"/>
      <point x="510" y="470"/>
      <point x="570" y="415"/>
      <point x="570" y="415" type="curve"/>
      <point x="690" y="605" type="line"/>
      <point x="690" y="605"/>
      <point x="600" y="715"/>
      <point x="410" y="715" type="curve" smooth="yes"/>
      <point x="200" y="715"/>
      <point x="40" y="555"/>
    </contour>
  </outline>
</glyph>
<glyph name="D" format="1">
  <advance width="800"/>
  <unicode hex="0044"/>
  <outline>
    <contour>
      <point x="320" y="210" type="line" name="hr00"/>
      <point x="320" y="490" type="line"/>
      <point x="360" y="490" type="line"/>
      <point x="435" y="490"/>
      <point x="480" y="445"/>
      <point x="480" y="350" type="curve"/>
      <point x="480" y="255"/>
      <point x="435" y="210"/>
      <point x="360" y="210" type="curve" smooth="yes"/>
    </contour>
    <contour>
      <point x="760" y="350" type="curve"/>
      <point x="760" y="565"/>
      <point x="626" y="710"/>
      <point x="360" y="710" type="curve" smooth="yes"/>
      <point x="200" y="710"/>
      <point x="60" y="700"/>
      <point x="60" y="700" type="curve"/>
      <point x="60" y="0" type="line"/>
      <point x="60" y="0"/>
      <point x="200" y="-10"/>
      <point x="360" y="-10" type="curve" smooth="yes"/>
      <point x="626" y="-10"/>
      <point x="760" y="135"/>
    </contour>
  </outline>
</glyph>
<glyph name="F" format="1">
  <advance width="600"/>
  <unicode hex="0046"/>
  <outline>
    <contour>
      <point x="60" y="700" type="line" name="hr00"/>
      <point x="60" y="0" type="line"/>
      <point x="320" y="0" type="line"/>
      <point x="320" y="200" type="line"/>
      <point x="530" y="200" type="line"/>
      <point x="530" y="400" type="line"/>
      <point x="320" y="400" type="line"/>
      <point x="320" y="480" type="line"/>
      <point x="580" y="480" type="line"/>
      <point x="580" y="700" type="line"/>
    </contour>
  </outline>
</glyph>
<glyph name="G" format="1">
  <advance width="740"/>
  <unicode hex="0047"/>
  <outline>
    <contour>
      <point x="440" y="230" type="curve" smooth="yes" name="hr00"/>
      <point x="370" y="230"/>
      <point x="320" y="280"/>
      <point x="320" y="350" type="curve" smooth="yes"/>
      <point x="320" y="420"/>
      <point x="370" y="470"/>
      <point x="440" y="470" type="curve" smooth="yes"/>
      <point x="510" y="470"/>
      <point x="570" y="415"/>
      <point x="570" y="415" type="curve"/>
      <point x="690" y="605" type="line"/>
      <point x="690" y="605"/>
      <point x="600" y="715"/>
      <point x="410" y="715" type="curve" smooth="yes"/>
      <point x="200" y="715"/>
      <point x="40" y="555"/>
      <point x="40" y="350" type="curve" smooth="yes"/>
      <point x="40" y="145"/>
      <point x="200" y="-15"/>
      <point x="410" y="-15" type="curve" smooth="yes"/>
      <point x="610" y="-15"/>
      <point x="700" y="105"/>
      <point x="700" y="105" type="curve"/>
      <point x="700" y="350" type="line"/>
      <point x="460" y="350" type="line"/>
      <point x="460" y="230" type="line"/>
      <point x="460" y="230"/>
      <point x="450" y="230"/>
    </contour>
  </outline>
</glyph>
<glyph name="J" format="1">
  <advance width="540"/>
  <unicode hex="004A"/>
  <outline>
    <contour>
      <point x="220" y="310" type="line" smooth="yes" name="hr00"/>
      <point x="220" y="255"/>
      <point x="185" y="220"/>
      <point x="140" y="220" type="curve" smooth="yes"/>
      <point x="100" y="220"/>
      <point x="70" y="240"/>
      <point x="70" y="240" type="curve"/>
      <point x="0" y="30" type="line"/>
      <point x="0" y="30"/>
      <point x="70" y="-30"/>
      <point x="200" y="-30" type="curve" smooth="yes"/>
      <point x="350" y="-30"/>
      <point x="480" y="100"/>
      <point x="480" y="310" type="curve" smooth="yes"/>
      <point x="480" y="700" type="line"/>
      <point x="220" y="700" type="line"/>
    </contour>
  </outline>
</glyph>
<glyph name="L" format="1">
  <advance width="610"/>
  <unicode hex="004C"/>
  <outline>
    <contour>
      <point x="320" y="700" type="line" name="hr00"/>
      <point x="60" y="700" type="line"/>
      <point x="60" y="0" type="line"/>
      <point x="590" y="0" type="line"/>
      <point x="590" y="230" type="line"/>
      <point x="320" y="230" type="line"/>
    </contour>
  </outline>
</glyph>
<glyph name="M" format="1">
  <advance width="1090"/>
  <unicode hex="004D"/>
  <outline>
    <contour>
      <point x="650" y="0" type="line" name="hr00"/>
      <point x="770" y="390" type="line"/>
      <point x="770" y="0" type="line"/>
      <point x="1030" y="0" type="line"/>
      <point x="1030" y="700" type="line"/>
      <point x="660" y="700" type="line"/>
      <point x="545" y="320" type="line"/>
      <point x="430" y="700" type="line"/>
      <point x="60" y="700" type="line"/>
      <point x="60" y="0" type="line"/>
      <point x="320" y="0" type="line"/>
      <point x="320" y="390" type="line"/>
      <point x="440" y="0" type="line"/>
    </contour>
  </outline>
</glyph>
<glyph name="N" format="1">
  <advance width="840"/>
  <unicode hex="004E"/>
  <outline>
    <contour>
      <point x="490" y="0" type="line" name="hr00"/>
      <point x="780" y="0" type="line"/>
      <point x="780" y="700" type="line"/>
      <point x="520" y="700" type="line"/>
      <point x="520" y="390" type="line"/>
      <point x="350" y="700" type="line"/>
      <point x="60" y="700" type="line"/>
      <point x="60" y="0" type="line"/>
      <point x="320" y="0" type="line"/>
      <point x="320" y="310" type="line"/>
    </contour>
  </outline>
</glyph>
<glyph name="O" format="1">
  <advance width="860"/>
  <unicode hex="004F"/>
  <outline>
    <contour>
      <point x="540" y="350" type="curve" name="hr00"/>
      <point x="540" y="280"/>
      <point x="490" y="230"/>
      <point x="430" y="230" type="curve"/>
      <point x="370" y="230"/>
      <point x="320" y="280"/>
      <point x="320" y="350" type="curve"/>
      <point x="320" y="420"/>
      <point x="370" y="470"/>
      <point x="430" y="470" type="curve" smooth="yes"/>
      <point x="490" y="470"/>
      <point x="540" y="420"/>
    </contour>
    <contour>
      <point x="820" y="350" type="curve"/>
      <point x="820" y="555"/>
      <point x="660" y="715"/>
      <point x="430" y="715" type="curve" smooth="yes"/>
      <point x="200" y="715"/>
      <point x="40" y="555"/>
      <point x="40" y="350" type="curve"/>
      <point x="40" y="145"/>
      <point x="200" y="-15"/>
      <point x="430" y="-15" type="curve"/>
      <point x="660" y="-15"/>
      <point x="820" y="145"/>
    </contour>
  </outline>
</glyph>
<glyph name="Q" format="1">
  <advance width="860"/>
  <unicode hex="0051"/>
  <outline>
    <contour>
      <point x="820" y="350" type="curve" smooth="yes" name="hr00"/>
      <point x="820" y="555"/>
      <point x="660" y="715"/>
      <point x="430" y="715" type="curve" smooth="yes"/>
      <point x="200" y="715"/>
      <point x="40" y="555"/>
      <point x="40" y="350" type="curve" smooth="yes"/>
      <point x="40" y="150"/>
      <point x="190" y="0"/>
      <point x="385" y="-10" type="curve"/>
      <point x="385" y="-10"/>
      <point x="480" y="-210"/>
      <point x="690" y="-210" type="curve" smooth="yes"/>
      <point x="740" y="-210"/>
      <point x="780" y="-200"/>
      <point x="780" y="-200" type="curve"/>
      <point x="780" y="-20" type="line"/>
      <point x="780" y="-20"/>
      <point x="750" y="-30"/>
      <point x="720" y="-30" type="curve" smooth="yes"/>
      <point x="650" y="-30"/>
      <point x="625" y="30"/>
      <point x="625" y="30" type="curve"/>
      <point x="625" y="30"/>
      <point x="820" y="115"/>
    </contour>
    <contour>
      <point x="540" y="350" type="curve" smooth="yes"/>
      <point x="540" y="280"/>
      <point x="490" y="230"/>
      <point x="430" y="230" type="curve" smooth="yes"/>
      <point x="370" y="230"/>
      <point x="320" y="280"/>
      <point x="320" y="350" type="curve" smooth="yes"/>
      <point x="320" y="420"/>
      <point x="370" y="470"/>
      <point x="430" y="470" type="curve" smooth="yes"/>
      <point x="490" y="470"/>
      <point x="540" y="420"/>
    </contour>
  </outline>
</glyph>
<glyph name="R" format="1">
  <advance width="730"/>
  <unicode hex="0052"/>
  <outline>
    <contour>
      <point x="750" y="0" type="line" name="hr00"/>
      <point x="580" y="270" type="line"/>
      <point x="580" y="270"/>
      <point x="670" y="320"/>
      <point x="670" y="465" type="curve" smooth="yes"/>
      <point x="670" y="610"/>
      <point x="570" y="710"/>
      <point x="350" y="710" type="curve" smooth="yes"/>
      <point x="200" y="710"/>
      <point x="60" y="700"/>
      <point x="60" y="700" type="curve"/>
      <point x="60" y="0" type="line"/>
      <point x="320" y="0" type="line"/>
      <point x="320" y="230" type="line"/>
      <point x="330" y="230" type="line"/>
      <point x="450" y="0" type="line"/>
    </contour>
    <contour>
      <point x="320" y="410" type="line"/>
      <point x="320" y="520" type="line"/>
      <point x="350" y="520" type="line" smooth="yes"/>
      <point x="385" y="520"/>
      <point x="410" y="495"/>
      <point x="410" y="465" type="curve" smooth="yes"/>
      <point x="410" y="435"/>
      <point x="385" y="410"/>
      <point x="350" y="410" type="curve" smooth="yes"/>
    </contour>
  </outline>
</glyph>
<glyph name="U" format="1">
  <advance width="800"/>
  <unicode hex="0055"/>
  <outline>
    <contour>
      <point x="400" y="235" type="curve" name="hr00"/>
      <point x="355" y="235"/>
      <point x="320" y="270"/>
      <point x="320" y="325" type="curve" smooth="yes"/>
      <point x="320" y="700" type="line"/>
      <point x="60" y="700" type="line"/>
      <point x="60" y="325" type="line" smooth="yes"/>
      <point x="60" y="125"/>
      <point x="200" y="-15"/>
      <point x="400" y="-15" type="curve"/>
      <point x="600" y="-15"/>
      <point x="740" y="125"/>
      <point x="740" y="325" type="curve" smooth="yes"/>
      <point x="740" y="700" type="line"/>
      <point x="480" y="700" type="line"/>
      <point x="480" y="325" type="line" smooth="yes"/>
      <point x="480" y="270"/>
      <point x="445" y="235"/>
    </contour>
  </outline>
</glyph>
<glyph name="V" format="1">
  <advance width="750"/>
  <unicode hex="0056"/>
  <outline>
    <contour>
      <point x="10" y="700" type="line" name="hr00"/>
      <point x="205" y="0" type="line"/>
      <point x="545" y="0" type="line"/>
      <point x="740" y="700" type="line"/>
      <point x="450" y="700" type="line"/>
      <point x="375" y="290" type="line"/>
      <point x="300" y="700" type="line"/>
    </contour>
  </outline>
</glyph>
<glyph name="W" format="1">
  <advance width="1050"/>
  <unicode hex="0057"/>
  <outline>
    <contour>
      <point x="640" y="700" type="line" name="hr00"/>
      <point x="410" y="700" type="line"/>
      <point x="335" y="315" type="line"/>
      <point x="280" y="700" type="line"/>
      <point x="10" y="700" type="line"/>
      <point x="160" y="0" type="line"/>
      <point x="450" y="0" type="line"/>
      <point x="525" y="355" type="line"/>
      <point x="600" y="0" type="line"/>
      <point x="890" y="0" type="line"/>
      <point x="1040" y="700" type="line"/>
      <point x="770" y="700" type="line"/>
      <point x="715" y="315" type="line"/>
    </contour>
  </outline>
</glyph>
<glyph name="Y" format="1">
  <advance width="700"/>
  <unicode hex="0059"/>
  <outline>
    <contour>
      <point x="280" y="700" type="line" name="hr00"/>
      <point x="-20" y="700" type="line"/>
      <point x="220" y="270" type="line"/>
      <point x="220" y="0" type="line"/>
      <point x="480" y="0" type="line"/>
      <point x="480" y="270" type="line"/>
      <point x="720" y="700" type="line"/>
      <point x="420" y="700" type="line"/>
      <point x="350" y="500" type="line"/>
    </contour>
  </outline>
</glyph>
<glyph name="Z" format="1">
  <advance width="690"/>
  <unicode hex="005A"/>
  <outline>
    <contour>
      <point x="630" y="480" type="line" name="hr00"/>
      <point x="630" y="700" type="line"/>
      <point x="70" y="700" type="line"/>
      <point x="70" y="480" type="line"/>
      <point x="300" y="480" type="line"/>
      <point x="50" y="220" type="line"/>
      <point x="50" y="4" type="line"/>
      <point x="50" y="0" type="line"/>
      <point x="640" y="0" type="line"/>
      <point x="640" y="220" type="line"/>
      <point x="380" y="220" type="line"/>
    </contour>
  </outline>
</glyph>
<glyph name="bracketleft" format="1">
  <advance width="410"/>
  <unicode hex="005B"/>
  <outline>
    <contour>
      <point x="270" y="20" type="line" name="hr00"/>
      <point x="270" y="540" type="line"/>
      <point x="380" y="540" type="line"/>
      <point x="380" y="700" type="line"/>
      <point x="80" y="700" type="line"/>
      <point x="80" y="-140" type="line"/>
      <point x="380" y="-140" type="line"/>
      <point x="380" y="20" type="line"/>
    </contour>
  </outline>
</glyph>
<glyph name="bracketright" format="1">
  <advance width="410"/>
  <unicode hex="005D"/>
  <outline>
    <contour>
      <point x="30" y="20" type="line" name="hr00"/>
      <point x="30" y="-140" type="line"/>
      <point x="330" y="-140" type="line"/>
      <point x="330" y="700" type="line"/>
      <point x="30" y="700" type="line"/>
      <point x="30" y="540" type="line"/>
      <point x="140" y="540" type="line"/>
      <point x="140" y="20" type="line"/>
    </contour>
  </outline>
</glyph>
<glyph name="asciicircum" format="1">
  <advance width="540"/>
  <unicode hex="005E"/>
  <outline>
    <contour>
      <point x="0" y="350" type="line" name="hr00"/>
      <point x="190" y="350" type="line"/>
      <point x="270" y="500" type="line"/>
      <point x="350" y="350" type="line"/>
      <point x="540" y="350" type="line"/>
      <point x="350" y="700" type="line"/>
      <point x="190" y="700" type="line"/>
    </contour>
  </outline>
</glyph>
<glyph name="underscore" format="1">
  <advance width="430"/>
  <unicode hex="005F"/>
  <outline>
    <contour>
      <point x="-20" y="-270" type="line" name="hr00"/>
      <point x="450" y="-270" type="line"/>
      <point x="450" y="-120" type="line"/>
      <point x="-20" y="-120" type="line"/>
    </contour>
  </outline>
</glyph>
<glyph name="grave" format="1">
  <advance width="360"/>
  <unicode hex="0060"/>
  <outline>
    <contour>
      <point x="240" y="700" type="line" name="hr00"/>
      <point x="30" y="700" type="line"/>
      <point x="170" y="490" type="line"/>
      <point x="330" y="490" type="line"/>
    </contour>
  </outline>
</glyph>
<glyph name="a" format="1">
  <advance width="620"/>
  <unicode hex="0061"/>
  <outline>
    <contour>
      <point x="285" y="545" type="curve" smooth="yes" name="hr00"/>
      <point x="150" y="545"/>
      <point x="75" y="465"/>
      <point x="75" y="465" type="curve"/>
      <point x="160" y="330" type="line"/>
      <point x="160" y="330"/>
      <point x="200" y="370"/>
      <point x="250" y="370" type="curve" smooth="yes"/>
      <point x="330" y="370"/>
      <point x="340" y="315"/>
      <point x="340" y="315" type="curve"/>
      <point x="260" y="315" type="line" smooth="yes"/>
      <point x="90" y="315"/>
      <point x="20" y="245"/>
      <point x="20" y="150" type="curve" smooth="yes"/>
      <point x="20" y="55"/>
      <point x="90" y="-15"/>
      <point x="200" y="-15" type="curve" smooth="yes"/>
      <point x="290" y="-15"/>
      <point x="330" y="60"/>
      <point x="330" y="60" type="curve"/>
      <point x="350" y="0" type="line"/>
      <point x="580" y="0" type="line"/>
      <point x="580" y="78"/>
      <point x="580" y="179"/>
      <point x="580" y="265" type="curve" smooth="yes"/>
      <point x="580" y="420"/>
      <point x="455" y="545"/>
    </contour>
    <contour>
      <point x="290" y="145" type="curve" smooth="yes"/>
      <point x="275" y="145"/>
      <point x="260" y="160"/>
      <point x="260" y="175" type="curve" smooth="yes"/>
      <point x="260" y="205"/>
      <point x="285" y="230"/>
      <point x="340" y="230" type="curve"/>
      <point x="340" y="170"/>
      <point x="315" y="145"/>
    </contour>
  </outline>
</glyph>
<glyph name="b" format="1">
  <advance width="670"/>
  <unicode hex="0062"/>
  <outline>
    <contour>
      <point x="640" y="265" type="curve" smooth="yes" name="hr00"/>
      <point x="640" y="445"/>
      <point x="540" y="545"/>
      <point x="430" y="545" type="curve" smooth="yes"/>
      <point x="330" y="545"/>
      <point x="290" y="470"/>
      <point x="290" y="470" type="curve"/>
      <point x="290" y="740" type="line"/>
      <point x="50" y="740" type="line"/>
      <point x="50" y="0" type="line"/>
      <point x="270" y="0" type="line"/>
      <point x="290" y="60"/>
      <point x="290" y="60"/>
      <point x="290" y="60" type="curve"/>
      <point x="290" y="60"/>
      <point x="330" y="-15"/>
      <point x="430" y="-15" type="curve" smooth="yes"/>
      <point x="540" y="-15"/>
      <point x="640" y="85"/>
    </contour>
    <contour>
      <point x="390" y="265" type="curve" smooth="yes"/>
      <point x="390" y="215"/>
      <point x="365" y="190"/>
      <point x="335" y="190" type="curve" smooth="yes"/>
      <point x="305" y="190"/>
      <point x="280" y="215"/>
      <point x="280" y="265" type="curve" smooth="yes"/>
      <point x="280" y="315"/>
      <point x="305" y="340"/>
      <point x="335" y="340" type="curve" smooth="yes"/>
      <point x="365" y="340"/>
      <point x="390" y="315"/>
    </contour>
  </outline>
</glyph>
<glyph name="c" format="1">
  <advance width="560"/>
  <unicode hex="0063"/>
  <outline>
    <contour>
      <point x="280" y="265" type="curve" smooth="yes" name="hr00"/>
      <point x="280" y="310"/>
      <point x="310" y="340"/>
      <point x="360" y="340" type="curve" smooth="yes"/>
      <point x="410" y="340"/>
      <point x="450" y="300"/>
      <point x="450" y="300" type="curve"/>
      <point x="550" y="460" type="line"/>
      <point x="550" y="460"/>
      <point x="470" y="545"/>
      <point x="325" y="545" type="curve" smooth="yes"/>
      <point x="155" y="545"/>
      <point x="30" y="420"/>
      <point x="30" y="265" type="curve" smooth="yes"/>
      <point x="30" y="110"/>
      <point x="155" y="-15"/>
      <point x="325" y="-15" type="curve" smooth="yes"/>
      <point x="470" y="-15"/>
      <point x="550" y="70"/>
      <point x="550" y="70" type="curve"/>
      <point x="450" y="230" type="line"/>
      <point x="450" y="230"/>
      <point x="410" y="190"/>
      <point x="360" y="190" type="curve" smooth="yes"/>
      <point x="310" y="190"/>
      <point x="280" y="220"/>
    </contour>
  </outline>
</glyph>
<glyph name="d" format="1">
  <advance width="670"/>
  <unicode hex="0064"/>
  <outline>
    <contour>
      <point x="30" y="265" type="curve" smooth="yes" name="hr00"/>
      <point x="30" y="85"/>
      <point x="130" y="-15"/>
      <point x="240" y="-15" type="curve" smooth="yes"/>
      <point x="340" y="-15"/>
      <point x="380" y="60"/>
      <point x="380" y="60" type="curve"/>
      <point x="380" y="60"/>
      <point x="380" y="60"/>
      <point x="400" y="0" type="curve"/>
      <point x="620" y="0" type="line"/>
      <point x="620" y="740" type="line"/>
      <point x="380" y="740" type="line"/>
      <point x="380" y="470" type="line"/>
      <point x="380" y="470"/>
      <point x="340" y="545"/>
      <point x="240" y="545" type="curve" smooth="yes"/>
      <point x="130" y="545"/>
      <point x="30" y="445"/>
    </contour>
    <contour>
      <point x="280" y="265" type="curve" smooth="yes"/>
      <point x="280" y="315"/>
      <point x="305" y="340"/>
      <point x="335" y="340" type="curve" smooth="yes"/>
      <point x="365" y="340"/>
      <point x="390" y="315"/>
      <point x="390" y="265" type="curve" smooth="yes"/>
      <point x="390" y="215"/>
      <point x="365" y="190"/>
      <point x="335" y="190" type="curve" smooth="yes"/>
      <point x="305" y="190"/>
      <point x="280" y="215"/>
    </contour>
  </outline>
</glyph>
<glyph name="f" format="1">
  <advance width="450"/>
  <unicode hex="0066"/>
  <outline>
    <contour>
      <point x="20" y="500" type="line" name="hr00"/>
      <point x="20" y="300" type="line"/>
      <point x="90" y="300" type="line"/>
      <point x="90" y="0" type="line"/>
      <point x="330" y="0" type="line"/>
      <point x="330" y="300" type="line"/>
      <point x="420" y="300" type="line"/>
      <point x="420" y="500" type="line"/>
      <point x="330" y="500" type="line"/>
      <point x="330" y="515" type="line" smooth="yes"/>
      <point x="330" y="555"/>
      <point x="350" y="575"/>
      <point x="380" y="575" type="curve" smooth="yes"/>
      <point x="400" y="575"/>
      <point x="420" y="570"/>
      <point x="420" y="570" type="curve"/>
      <point x="420" y="770" type="line"/>
      <point x="420" y="770"/>
      <point x="380" y="780"/>
      <point x="330" y="780" type="curve" smooth="yes"/>
      <point x="180" y="780"/>
      <point x="90" y="690"/>
      <point x="90" y="515" type="curve" smooth="yes"/>
      <point x="90" y="500" type="line"/>
    </contour>
  </outline>
</glyph>
<glyph name="g" format="1">
  <advance width="670"/>
  <unicode hex="0067"/>
  <outline>
    <contour>
      <point x="380" y="20" type="line" smooth="yes" name="hr00"/>
      <point x="380" y="-35"/>
      <point x="340" y="-75"/>
      <point x="280" y="-75" type="curve" smooth="yes"/>
      <point x="230" y="-75"/>
      <point x="190" y="-35"/>
      <point x="190" y="-35" type="curve"/>
      <point x="90" y="-195" type="line"/>
      <point x="90" y="-195"/>
      <point x="170" y="-280"/>
      <point x="315" y="-280" type="curve" smooth="yes"/>
      <point x="485" y="-280"/>
      <point x="620" y="-145"/>
      <point x="620" y="20" type="curve" smooth="yes"/>
      <point x="620" y="530" type="line"/>
      <point x="400" y="530" type="line"/>
      <point x="380" y="470" type="line"/>
      <point x="380" y="470"/>
      <point x="340" y="545"/>
      <point x="240" y="545" type="curve" smooth="yes"/>
      <point x="130" y="545"/>
      <point x="30" y="445"/>
      <point x="30" y="275" type="curve" smooth="yes"/>
      <point x="30" y="105"/>
      <point x="130" y="5"/>
      <point x="240" y="5" type="curve" smooth="yes"/>
      <point x="340" y="5"/>
      <point x="380" y="80"/>
      <point x="380" y="80" type="curve"/>
    </contour>
    <contour>
      <point x="280" y="275" type="curve" smooth="yes"/>
      <point x="280" y="315"/>
      <point x="305" y="340"/>
      <point x="335" y="340" type="curve" smooth="yes"/>
      <point x="365" y="340"/>
      <point x="390" y="315"/>
      <point x="390" y="275" type="curve" smooth="yes"/>
      <point x="390" y="235"/>
      <point x="365" y="210"/>
      <point x="335" y="210" type="curve" smooth="yes"/>
      <point x="305" y="210"/>
      <point x="280" y="235"/>
    </contour>
  </outline>
</glyph>
<glyph name="h" format="1">
  <advance width="650"/>
  <unicode hex="0068"/>
  <outline>
    <contour>
      <point x="430" y="545" type="curve" smooth="yes" name="hr00"/>
      <point x="340" y="545"/>
      <point x="290" y="460"/>
      <point x="290" y="460" type="curve"/>
      <point x="290" y="740" type="line"/>
      <point x="50" y="740" type="line"/>
      <point x="50" y="0" type="line"/>
      <point x="290" y="0" type="line"/>
      <point x="290" y="280" type="line" smooth="yes"/>
      <point x="290" y="320"/>
      <point x="310" y="340"/>
      <point x="330" y="340" type="curve" smooth="yes"/>
      <point x="350" y="340"/>
      <point x="370" y="320"/>
      <point x="370" y="280" type="curve" smooth="yes"/>
      <point x="370" y="0" type="line"/>
      <point x="610" y="0" type="line"/>
      <point x="610" y="280" type="line" smooth="yes"/>
      <point x="610" y="465"/>
      <point x="530" y="545"/>
    </contour>
  </outline>
</glyph>
<glyph name="i" format="1">
  <advance width="340"/>
  <unicode hex="0069"/>
  <outline>
    <contour>
      <point x="50" y="530" type="line" name="hr00"/>
      <point x="50" y="0" type="line"/>
      <point x="290" y="0" type="line"/>
      <point x="290" y="530" type="line"/>
    </contour>
    <contour>
      <point x="50" y="590" type="line"/>
      <point x="290" y="590" type="line"/>
      <point x="290" y="780" type="line"/>
      <point x="50" y="780" type="line"/>
    </contour>
  </outline>
</glyph>
<glyph name="l" format="1">
  <advance width="340"/>
  <unicode hex="006C"/>
  <outline>
    <contour>
      <point x="50" y="0" type="line" name="hr00"/>
      <point x="290" y="0" type="line"/>
      <point x="290" y="740" type="line"/>
      <point x="50" y="740" type="line"/>
    </contour>
  </outline>
</glyph>
<glyph name="m" format="1">
  <advance width="970"/>
  <unicode hex="006D"/>
  <outline>
    <contour>
      <point x="750" y="545" type="curve" name="hr00"/>
      <point x="650" y="545"/>
      <point x="590" y="450"/>
      <point x="590" y="450" type="curve"/>
      <point x="590" y="450"/>
      <point x="540" y="545"/>
      <point x="440" y="545" type="curve" smooth="yes"/>
      <point x="340" y="545"/>
      <point x="300" y="470"/>
      <point x="300" y="470" type="curve"/>
      <point x="280" y="530" type="line"/>
      <point x="50" y="530" type="line"/>
      <point x="50" y="0" type="line"/>
      <point x="290" y="0" type="line"/>
      <point x="290" y="280" type="line" smooth="yes"/>
      <point x="290" y="320"/>
      <point x="310" y="340"/>
      <point x="330" y="340" type="curve" smooth="yes"/>
      <point x="350" y="340"/>
      <point x="370" y="320"/>
      <point x="370" y="280" type="curve" smooth="yes"/>
      <point x="370" y="0" type="line"/>
      <point x="610" y="0" type="line"/>
      <point x="610" y="280" type="line" smooth="yes"/>
      <point x="610" y="320"/>
      <point x="630" y="340"/>
      <point x="650" y="340" type="curve" smooth="yes"/>
      <point x="670" y="340"/>
      <point x="690" y="320"/>
      <point x="690" y="280" type="curve" smooth="yes"/>
      <point x="690" y="0" type="line"/>
      <point x="930" y="0" type="line"/>
      <point x="930" y="280" type="line" smooth="yes"/>
      <point x="930" y="465"/>
      <point x="850" y="545"/>
    </contour>
  </outline>
</glyph>
<glyph name="q" format="1">
  <advance width="670"/>
  <unicode hex="0071"/>
  <outline>
    <contour>
      <point x="30" y="265" type="curve" smooth="yes" name="hr00"/>
      <point x="30" y="85"/>
      <point x="130" y="-15"/>
      <point x="240" y="-15" type="curve" smooth="yes"/>
      <point x="340" y="-15"/>
      <point x="380" y="60"/>
      <point x="380" y="60" type="curve"/>
      <point x="380" y="-250" type="line"/>
      <point x="620" y="-250" type="line"/>
      <point x="620" y="530" type="line"/>
      <point x="400" y="530" type="line"/>
      <point x="380" y="470"/>
      <point x="380" y="470"/>
      <point x="380" y="470" type="curve"/>
      <point x="380" y="470"/>
      <point x="340" y="545"/>
      <point x="240" y="545" type="curve" smooth="yes"/>
      <point x="130" y="545"/>
      <point x="30" y="445"/>
    </contour>
    <contour>
      <point x="280" y="265" type="curve" smooth="yes"/>
      <point x="280" y="315"/>
      <point x="305" y="340"/>
      <point x="335" y="340" type="curve" smooth="yes"/>
      <point x="365" y="340"/>
      <point x="390" y="315"/>
      <point x="390" y="265" type="curve" smooth="yes"/>
      <point x="390" y="215"/>
      <point x="365" y="190"/>
      <point x="335" y="190" type="curve" smooth="yes"/>
      <point x="305" y="190"/>
      <point x="280" y="215"/>
    </contour>
  </outline>
</glyph>
<glyph name="r" format="1">
  <advance width="480"/>
  <unicode hex="0072"/>
  <outline>
    <contour>
      <point x="300" y="470" type="curve" name="hr00"/>
      <point x="280" y="530" type="line"/>
      <point x="50" y="530" type="line"/>
      <point x="50" y="0" type="line"/>
      <point x="290" y="0" type="line"/>
      <point x="290" y="220" type="line" smooth="yes"/>
      <point x="290" y="290"/>
      <point x="330" y="330"/>
      <point x="380" y="330" type="curve" smooth="yes"/>
      <point x="410" y="330"/>
      <point x="450" y="310"/>
      <point x="450" y="310" type="curve"/>
      <point x="490" y="530" type="line"/>
      <point x="490" y="530"/>
      <point x="460" y="545"/>
      <point x="420" y="545" type="curve" smooth="yes"/>
      <point x="340" y="545"/>
    </contour>
  </outline>
</glyph>
<glyph name="t" format="1">
  <advance width="470"/>
  <unicode hex="0074"/>
  <outline>
    <contour>
      <point x="90" y="330" type="line" name="hr00"/>
      <point x="90" y="245" type="line" smooth="yes"/>
      <point x="90" y="70"/>
      <point x="180" y="-20"/>
      <point x="330" y="-20" type="curve" smooth="yes"/>
      <point x="380" y="-20"/>
      <point x="420" y="-10"/>
      <point x="420" y="-10" type="curve"/>
      <point x="420" y="190" type="line"/>
      <point x="420" y="190"/>
      <point x="400" y="185"/>
      <point x="380" y="185" type="curve" smooth="yes"/>
      <point x="350" y="185"/>
      <point x="330" y="205"/>
      <point x="330" y="245" type="curve" smooth="yes"/>
      <point x="330" y="330" type="line"/>
      <point x="420" y="330" type="line"/>
      <point x="420" y="530" type="line"/>
      <point x="330" y="530" type="line"/>
      <point x="330" y="700" type="line"/>
      <point x="90" y="700" type="line"/>
      <point x="90" y="530" type="line"/>
      <point x="20" y="530" type="line"/>
      <point x="20" y="330" type="line"/>
    </contour>
  </outline>
</glyph>
<glyph name="u" format="1">
  <advance width="660"/>
  <unicode hex="0075"/>
  <outline>
    <contour>
      <point x="230" y="-15" type="curve" name="hr00"/>
      <point x="320" y="-15"/>
      <point x="360" y="60"/>
      <point x="360" y="60" type="curve"/>
      <point x="380" y="0" type="line"/>
      <point x="610" y="0" type="line"/>
      <point x="610" y="530" type="line"/>
      <point x="370" y="530" type="line"/>
      <point x="370" y="250" type="line" smooth="yes"/>
      <point x="370" y="210"/>
      <point x="350" y="190"/>
      <point x="330" y="190" type="curve" smooth="yes"/>
      <point x="310" y="190"/>
      <point x="290" y="210"/>
      <point x="290" y="250" type="curve"/>
      <point x="290" y="530" type="line"/>
      <point x="50" y="530" type="line"/>
      <point x="50" y="250" type="line"/>
      <point x="50" y="65"/>
      <point x="130" y="-15"/>
    </contour>
  </outline>
</glyph>
<glyph name="v" format="1">
  <advance width="590"/>
  <unicode hex="0076"/>
  <outline>
    <contour>
      <point x="435" y="0" type="line" name="hr00"/>
      <point x="590" y="530" type="line"/>
      <point x="340" y="530" type="line"/>
      <point x="295" y="250" type="line"/>
      <point x="250" y="530" type="line"/>
      <point x="0" y="530" type="line"/>
      <point x="155" y="0" type="line"/>
    </contour>
  </outline>
</glyph>
<glyph name="w" format="1">
  <advance width="840"/>
  <unicode hex="0077"/>
  <outline>
    <contour>
      <point x="515" y="530" type="line" name="hr00"/>
      <point x="325" y="530" type="line"/>
      <point x="280" y="270" type="line"/>
      <point x="250" y="530" type="line"/>
      <point x="0" y="530" type="line"/>
      <point x="120" y="0" type="line"/>
      <point x="360" y="0" type="line"/>
      <point x="420" y="270" type="line"/>
      <point x="480" y="0" type="line"/>
      <point x="720" y="0" type="line"/>
      <point x="840" y="530" type="line"/>
      <point x="590" y="530" type="line"/>
      <point x="560" y="270" type="line"/>
    </contour>
  </outline>
</glyph>
<glyph name="x" format="1">
  <advance width="600"/>
  <unicode hex="0078"/>
  <outline>
    <contour>
      <point x="595" y="530" type="line" name="hr00"/>
      <point x="340" y="530" type="line"/>
      <point x="300" y="400" type="line"/>
      <point x="260" y="530" type="line"/>
      <point x="5" y="530" type="line"/>
      <point x="140" y="265" type="line"/>
      <point x="-10" y="0" type="line"/>
      <point x="260" y="0" type="line"/>
      <point x="300" y="130" type="line"/>
      <point x="340" y="0" type="line"/>
      <point x="610" y="0" type="line"/>
      <point x="460" y="265" type="line"/>
    </contour>
  </outline>
</glyph>
<glyph name="y" format="1">
  <advance width="590"/>
  <unicode hex="0079"/>
  <outline>
    <contour>
      <point x="160" y="-40" type="line" smooth="yes" name="hr00"/>
      <point x="151" y="-65"/>
      <point x="130" y="-85"/>
      <point x="105" y="-85" type="curve" smooth="yes"/>
      <point x="85" y="-85"/>
      <point x="70" y="-75"/>
      <point x="70" y="-75" type="curve"/>
      <point x="15" y="-250" type="line"/>
      <point x="15" y="-250"/>
      <point x="75" y="-290"/>
      <point x="145" y="-290" type="curve" smooth="yes"/>
      <point x="270" y="-290"/>
      <point x="340" y="-220"/>
      <point x="400" y="-40" type="curve" smooth="yes"/>
      <point x="590" y="530" type="line"/>
      <point x="340" y="530" type="line"/>
      <point x="295" y="250" type="line"/>
      <point x="250" y="530" type="line"/>
      <point x="0" y="530" type="line"/>
      <point x="175" y="0" type="line"/>
    </contour>
  </outline>
</glyph>
<glyph name="z" format="1">
  <advance width="560"/>
  <unicode hex="007A"/>
  <outline>
    <contour>
      <point x="510" y="340" type="line" name="hr00"/>
      <point x="510" y="530" type="line"/>
      <point x="50" y="530" type="line"/>
      <point x="50" y="340" type="line"/>
      <point x="220" y="340" type="line"/>
      <point x="40" y="190" type="line"/>
      <point x="40" y="0" type="line"/>
      <point x="520" y="0" type="line"/>
      <point x="520" y="190" type="line"/>
      <point x="330" y="190" type="line"/>
    </contour>
  </outline>
</glyph>
<glyph name="braceleft" format="1">
  <advance width="410"/>
  <unicode hex="007B"/>
  <outline>
    <contour>
      <point x="40" y="221" type="line" name="hr00"/>
      <point x="80" y="220"/>
      <point x="100" y="200"/>
      <point x="100" y="160" type="curve" smooth="yes"/>
      <point x="100" y="10" type="line" smooth="yes"/>
      <point x="100" y="-80"/>
      <point x="160" y="-140"/>
      <point x="250" y="-140" type="curve" smooth="yes"/>
      <point x="370" y="-140" type="line"/>
      <point x="370" y="20" type="line"/>
      <point x="320" y="20" type="line" smooth="yes"/>
      <point x="300" y="20"/>
      <point x="290" y="30"/>
      <point x="290" y="50" type="curve" smooth="yes"/>
      <point x="290" y="160" type="line" smooth="yes"/>
      <point x="290" y="260"/>
      <point x="210" y="280"/>
      <point x="210" y="280" type="curve"/>
      <point x="210" y="280"/>
      <point x="290" y="300"/>
      <point x="290" y="400" type="curve" smooth="yes"/>
      <point x="290" y="510" type="line" smooth="yes"/>
      <point x="290" y="530"/>
      <point x="300" y="540"/>
      <point x="320" y="540" type="curve" smooth="yes"/>
      <point x="370" y="540" type="line"/>
      <point x="370" y="700" type="line"/>
      <point x="250" y="700" type="line" smooth="yes"/>
      <point x="160" y="700"/>
      <point x="100" y="640"/>
      <point x="100" y="550" type="curve" smooth="yes"/>
      <point x="100" y="400" type="line" smooth="yes"/>
      <point x="100" y="360"/>
      <point x="80" y="340"/>
      <point x="40" y="339" type="curve"/>
    </contour>
  </outline>
</glyph>
<glyph name="bar" format="1">
  <advance width="330"/>
  <unicode hex="007C"/>
  <outline>
    <contour>
      <point x="80" y="-50" type="line" name="hr00"/>
      <point x="250" y="-50" type="line"/>
      <point x="250" y="750" type="line"/>
      <point x="80" y="750" type="line"/>
    </contour>
  </outline>
</glyph>
<glyph name="braceright" format="1">
  <advance width="410"/>
  <unicode hex="007D"/>
  <outline>
    <contour>
      <point x="370" y="339" type="line" name="hr00"/>
      <point x="330" y="340"/>
      <point x="310" y="360"/>
      <point x="310" y="400" type="curve" smooth="yes"/>
      <point x="310" y="550" type="line" smooth="yes"/>
      <point x="310" y="640"/>
      <point x="250" y="700"/>
      <point x="160" y="700" type="curve" smooth="yes"/>
      <point x="40" y="700" type="line"/>
      <point x="40" y="540" type="line"/>
      <point x="90" y="540" type="line" smooth="yes"/>
      <point x="110" y="540"/>
      <point x="120" y="530"/>
      <point x="120" y="510" type="curve" smooth="yes"/>
      <point x="120" y="400" type="line" smooth="yes"/>
      <point x="120" y="300"/>
      <point x="200" y="280"/>
      <point x="200" y="280" type="curve"/>
      <point x="200" y="280"/>
      <point x="120" y="260"/>
      <point x="120" y="160" type="curve" smooth="yes"/>
      <point x="120" y="50" type="line" smooth="yes"/>
      <point x="120" y="30"/>
      <point x="110" y="20"/>
      <point x="90" y="20" type="curve" smooth="yes"/>
      <point x="40" y="20" type="line"/>
      <point x="40" y="-140" type="line"/>
      <point x="160" y="-140" type="line" smooth="yes"/>
      <point x="250" y="-140"/>
      <point x="310" y="-80"/>
      <point x="310" y="10" type="curve" smooth="yes"/>
      <point x="310" y="160" type="line" smooth="yes"/>
      <point x="310" y="200"/>
      <point x="330" y="220"/>
      <point x="370" y="221" type="curve"/>
    </contour>
  </outline>
</glyph>
<glyph name="asciitilde" format="1">
  <advance width="500"/>
  <unicode hex="007E"/>
  <outline>
    <contour>
      <point x="310" y="390" type="curve" smooth="yes" name="hr00"/>
      <point x="270" y="390"/>
      <point x="230" y="450"/>
      <point x="160" y="450" type="curve" smooth="yes"/>
      <point x="80" y="450"/>
      <point x="30" y="400"/>
      <point x="30" y="310" type="curve" smooth="yes"/>
      <point x="30" y="210" type="line"/>
      <point x="140" y="210" type="line"/>
      <point x="140" y="240"/>
      <point x="160" y="260"/>
      <point x="190" y="260" type="curve" smooth="yes"/>
      <point x="230" y="260"/>
      <point x="270" y="200"/>
      <point x="340" y="200" type="curve" smooth="yes"/>
      <point x="420" y="200"/>
      <point x="470" y="250"/>
      <point x="470" y="340" type="curve" smooth="yes"/>
      <point x="470" y="440" type="line"/>
      <point x="360" y="440" type="line"/>
      <point x="360" y="410"/>
      <point x="340" y="390"/>
    </contour>
  </outline>
</glyph>
<glyph name="exclamdown" format="1">
  <advance width="380"/>
  <unicode hex="00A1"/>
  <outline>
    <contour>
      <point x="60" y="-250" type="line" name="hr00"/>
      <point x="320" y="-250" type="line"/>
      <point x="285" y="270" type="line"/>
      <point x="95" y="270" type="line"/>
    </contour>
    <contour>
      <point x="295" y="330" type="line"/>
      <point x="295" y="530" type="line"/>
      <point x="85" y="530" type="line"/>
      <point x="85" y="330" type="line"/>
    </contour>
  </outline>
</glyph>
<glyph name="cent" format="1">
  <advance width="560"/>
  <unicode hex="00A2"/>
  <outline>
    <contour>
      <point x="240" y="620" type="line" name="hr00"/>
      <point x="240" y="620"/>
      <point x="30" y="565"/>
      <point x="30" y="350" type="curve" smooth="yes"/>
      <point x="30" y="135"/>
      <point x="240" y="80"/>
      <point x="240" y="80" type="curve"/>
      <point x="240" y="0" type="line"/>
      <point x="380" y="0" type="line"/>
      <point x="380" y="75" type="line"/>
      <point x="490" y="90"/>
      <point x="550" y="155"/>
      <point x="550" y="155" type="curve"/>
      <point x="450" y="315" type="line"/>
      <point x="450" y="315"/>
      <point x="410" y="275"/>
      <point x="360" y="275" type="curve" smooth="yes"/>
      <point x="310" y="275"/>
      <point x="280" y="305"/>
      <point x="280" y="350" type="curve" smooth="yes"/>
      <point x="280" y="395"/>
      <point x="310" y="425"/>
      <point x="360" y="425" type="curve" smooth="yes"/>
      <point x="410" y="425"/>
      <point x="450" y="385"/>
      <point x="450" y="385" type="curve"/>
      <point x="550" y="545" type="line"/>
      <point x="550" y="545"/>
      <point x="490" y="610"/>
      <point x="380" y="625" type="curve"/>
      <point x="380" y="700" type="line"/>
      <point x="240" y="700" type="line"/>
    </contour>
  </outline>
</glyph>
<glyph name="sterling" format="1">
  <advance width="660"/>
  <unicode hex="00A3"/>
  <outline>
    <contour>
      <point x="480" y="270" type="line" name="hr00"/>
      <point x="480" y="410" type="line"/>
      <point x="355" y="410" type="line"/>
      <point x="355" y="460" type="line"/>
      <point x="355" y="490"/>
      <point x="375" y="510"/>
      <point x="395" y="510" type="curve" smooth="yes"/>
      <point x="415" y="510"/>
      <point x="435" y="490"/>
      <point x="435" y="460" type="curve"/>
      <point x="610" y="460" type="line"/>
      <point x="610" y="625"/>
      <point x="520" y="715"/>
      <point x="375" y="715" type="curve" smooth="yes"/>
      <point x="220" y="715"/>
      <point x="120" y="615"/>
      <point x="120" y="460" type="curve" smooth="yes"/>
      <point x="120" y="457"/>
      <point x="120" y="439"/>
      <point x="120" y="410" type="curve"/>
      <point x="70" y="410" type="line"/>
      <point x="70" y="270" type="line"/>
      <point x="120" y="270" type="line"/>
      <point x="120" y="220"/>
      <point x="50" y="200"/>
      <point x="50" y="200" type="curve"/>
      <point x="50" y="0" type="line"/>
      <point x="610" y="0" type="line"/>
      <point x="610" y="200" type="line"/>
      <point x="300" y="200" type="line"/>
      <point x="300" y="200"/>
      <point x="350" y="220"/>
      <point x="350" y="270" type="curve"/>
    </contour>
  </outline>
</glyph>
<glyph name="currency" format="1">
  <advance width="750"/>
  <unicode hex="00A4"/>
  <outline>
    <contour>
      <point x="40" y="120" type="line" name="hr00"/>
      <point x="110" y="120" type="line"/>
      <point x="110" y="0" type="line"/>
      <point x="370" y="0" type="line"/>
      <point x="370" y="120" type="line"/>
      <point x="580" y="120" type="line"/>
      <point x="580" y="250" type="line"/>
      <point x="370" y="250" type="line"/>
      <point x="370" y="290" type="line"/>
      <point x="460" y="290" type="line"/>
      <point x="630" y="290"/>
      <point x="720" y="380"/>
      <point x="720" y="495" type="curve" smooth="yes"/>
      <point x="720" y="620"/>
      <point x="630" y="710"/>
      <point x="410" y="710" type="curve" smooth="yes"/>
      <point x="250" y="710"/>
      <point x="110" y="700"/>
      <point x="110" y="700" type="curve"/>
      <point x="110" y="419" type="line"/>
      <point x="40" y="419" type="line"/>
      <point x="40" y="290" type="line"/>
      <point x="110" y="290" type="line"/>
      <point x="110" y="250" type="line"/>
      <point x="40" y="250" type="line"/>
    </contour>
    <contour>
      <point x="370" y="430" type="line"/>
      <point x="370" y="520" type="line"/>
      <point x="410" y="520" type="line"/>
      <point x="440" y="520"/>
      <point x="460" y="500"/>
      <point x="460" y="475" type="curve" smooth="yes"/>
      <point x="460" y="450"/>
      <point x="440" y="430"/>
      <point x="410" y="430" type="curve"/>
    </contour>
  </outline>
</glyph>
<glyph name="yen" format="1">
  <advance width="720"/>
  <unicode hex="00A5"/>
  <outline>
    <contour>
      <point x="-10" y="700" type="line" name="hr00"/>
      <point x="290" y="700" type="line"/>
      <point x="360" y="500" type="line"/>
      <point x="430" y="700" type="line"/>
      <point x="730" y="700" type="line"/>
      <point x="530" y="350" type="line"/>
      <point x="620" y="350" type="line"/>
      <point x="620" y="240" type="line"/>
      <point x="490" y="240" type="line"/>
      <point x="490" y="200" type="line"/>
      <point x="620" y="200" type="line"/>
      <point x="620" y="90" type="line"/>
      <point x="490" y="90" type="line"/>
      <point x="490" y="0" type="line"/>
      <point x="230" y="0" type="line"/>
      <point x="230" y="90" type="line"/>
      <point x="100" y="90" type="line"/>
      <point x="100" y="200" type="line"/>
      <point x="230" y="200" type="line"/>
      <point x="230" y="240" type="line"/>
      <point x="100" y="240" type="line"/>
      <point x="100" y="350" type="line"/>
      <point x="190" y="350" type="line"/>
    </contour>
  </outline>
</glyph>
<glyph name="brokenbar" format="1">
  <advance width="330"/>
  <unicode hex="00A6"/>
  <outline>
    <contour>
      <point x="80" y="-50" type="line" name="hr00"/>
      <point x="250" y="-50" type="line"/>
      <point x="250" y="270" type="line"/>
      <point x="80" y="270" type="line"/>
    </contour>
    <contour>
      <point x="80" y="430" type="line"/>
      <point x="250" y="430" type="line"/>
      <point x="250" y="750" type="line"/>
      <point x="80" y="750" type="line"/>
    </contour>
  </outline>
</glyph>
<glyph name="section" format="1">
  <advance width="545"/>
  <unicode hex="00A7"/>
  <outline>
    <contour>
      <point x="430" y="240" type="curve" name="hr00"/>
      <point x="430" y="240"/>
      <point x="505" y="280"/>
      <point x="505" y="360" type="curve" smooth="yes"/>
      <point x="505" y="510"/>
      <point x="305" y="500"/>
      <point x="305" y="555" type="curve" smooth="yes"/>
      <point x="305" y="565"/>
      <point x="315" y="575"/>
      <point x="330" y="575" type="curve" smooth="yes"/>
      <point x="385" y="575"/>
      <point x="425" y="535"/>
      <point x="425" y="535" type="curve"/>
      <point x="500" y="655" type="line"/>
      <point x="500" y="655"/>
      <point x="415" y="740"/>
      <point x="280" y="740" type="curve" smooth="yes"/>
      <point x="145" y="740"/>
      <point x="65" y="660"/>
      <point x="65" y="565" type="curve" smooth="yes"/>
      <point x="65" y="490"/>
      <point x="115" y="460"/>
      <point x="115" y="460" type="curve"/>
      <point x="115" y="460"/>
      <point x="40" y="420"/>
      <point x="40" y="340" type="curve" smooth="yes"/>
      <point x="40" y="190"/>
      <point x="240" y="200"/>
      <point x="240" y="145" type="curve" smooth="yes"/>
      <point x="240" y="135"/>
      <point x="230" y="125"/>
      <point x="215" y="125" type="curve" smooth="yes"/>
      <point x="160" y="125"/>
      <point x="120" y="165"/>
      <point x="120" y="165" type="curve"/>
      <point x="45" y="45" type="line"/>
      <point x="45" y="45"/>
      <point x="130" y="-40"/>
      <point x="265" y="-40" type="curve" smooth="yes"/>
      <point x="400" y="-40"/>
      <point x="480" y="40"/>
      <point x="480" y="135" type="curve" smooth="yes"/>
      <point x="480" y="210"/>
    </contour>
    <contour>
      <point x="310" y="310" type="curve"/>
      <point x="310" y="310"/>
      <point x="220" y="330"/>
      <point x="220" y="360" type="curve" smooth="yes"/>
      <point x="220" y="380"/>
      <point x="235" y="390"/>
      <point x="235" y="390" type="curve"/>
      <point x="235" y="390"/>
      <point x="325" y="370"/>
      <point x="325" y="340" type="curve" smooth="yes"/>
      <point x="325" y="320"/>
    </contour>
  </outline>
</glyph>
<glyph name="dieresis" format="1">
  <advance width="460"/>
  <unicode hex="00A8"/>
  <outline>
    <contour>
      <point x="430" y="610" type="curve" smooth="yes" name="hr00"/>
      <point x="430" y="660"/>
      <point x="390" y="700"/>
      <point x="340" y="700" type="curve" smooth="yes"/>
      <point x="290" y="700"/>
      <point x="250" y="660"/>
      <point x="250" y="610" type="curve" smooth="yes"/>
      <point x="250" y="560"/>
      <point x="290" y="520"/>
      <point x="340" y="520" type="curve" smooth="yes"/>
      <point x="390" y="520"/>
      <point x="430" y="560"/>
    </contour>
    <contour>
      <point x="210" y="610" type="curve" smooth="yes"/>
      <point x="210" y="660"/>
      <point x="170" y="700"/>
      <point x="120" y="700" type="curve" smooth="yes"/>
      <point x="70" y="700"/>
      <point x="30" y="660"/>
      <point x="30" y="610" type="curve" smooth="yes"/>
      <point x="30" y="560"/>
      <point x="70" y="520"/>
      <point x="120" y="520" type="curve" smooth="yes"/>
      <point x="170" y="520"/>
      <point x="210" y="560"/>
    </contour>
  </outline>
</glyph>
<glyph name="copyright" format="1">
  <advance width="840"/>
  <unicode hex="00A9"/>
  <outline>
    <contour>
      <point x="40" y="350" type="curve" smooth="yes" name="hr00"/>
      <point x="40" y="150"/>
      <point x="210" y="-20"/>
      <point x="420" y="-20" type="curve" smooth="yes"/>
      <point x="630" y="-20"/>
      <point x="800" y="150"/>
      <point x="800" y="350" type="curve" smooth="yes"/>
      <point x="800" y="550"/>
      <point x="630" y="720"/>
      <point x="420" y="720" type="curve" smooth="yes"/>
      <point x="210" y="720"/>
      <point x="40" y="550"/>
    </contour>
    <contour>
      <point x="700" y="350" type="curve" smooth="yes"/>
      <point x="700" y="200"/>
      <point x="580" y="80"/>
      <point x="420" y="80" type="curve" smooth="yes"/>
      <point x="260" y="80"/>
      <point x="140" y="200"/>
      <point x="140" y="350" type="curve" smooth="yes"/>
      <point x="140" y="500"/>
      <point x="260" y="620"/>
      <point x="420" y="620" type="curve" smooth="yes"/>
      <point x="580" y="620"/>
      <point x="700" y="500"/>
    </contour>
    <contour>
      <point x="250" y="350" type="curve"/>
      <point x="250" y="240"/>
      <point x="330" y="160"/>
      <point x="440" y="160" type="curve" smooth="yes"/>
      <point x="530" y="160"/>
      <point x="590" y="215"/>
      <point x="590" y="215" type="curve"/>
      <point x="530" y="315" type="line"/>
      <point x="530" y="315"/>
      <point x="500" y="290"/>
      <point x="465" y="290" type="curve" smooth="yes"/>
      <point x="425" y="290"/>
      <point x="400" y="315"/>
      <point x="400" y="350" type="curve"/>
      <point x="400" y="385"/>
      <point x="425" y="410"/>
      <point x="465" y="410" type="curve" smooth="yes"/>
      <point x="500" y="410"/>
      <point x="530" y="385"/>
      <point x="530" y="385" type="curve"/>
      <point x="590" y="485" type="line"/>
      <point x="590" y="485"/>
      <point x="530" y="540"/>
      <point x="440" y="540" type="curve" smooth="yes"/>
      <point x="330" y="540"/>
      <point x="250" y="460"/>
    </contour>
  </outline>
</glyph>
<glyph name="ordfeminine" format="1">
  <advance width="470"/>
  <unicode hex="00AA"/>
  <outline>
    <contour>
      <point x="120" y="570" type="line" name="hr00"/>
      <point x="120" y="570"/>
      <point x="150" y="590"/>
      <point x="190" y="590" type="curve" smooth="yes"/>
      <point x="240" y="590"/>
      <point x="250" y="550"/>
      <point x="250" y="550" type="curve"/>
      <point x="190" y="549" type="line"/>
      <point x="90" y="550"/>
      <point x="40" y="500"/>
      <point x="40" y="440" type="curve" smooth="yes"/>
      <point x="40" y="380"/>
      <point x="90" y="330"/>
      <point x="150" y="330" type="curve" smooth="yes"/>
      <point x="230" y="330"/>
      <point x="260" y="390"/>
      <point x="260" y="390" type="curve"/>
      <point x="270" y="340" type="line"/>
      <point x="410" y="340" type="line"/>
      <point x="410" y="540" type="line"/>
      <point x="410" y="640"/>
      <point x="340" y="710"/>
      <point x="230" y="710" type="curve" smooth="yes"/>
      <point x="130" y="710"/>
      <point x="80" y="660"/>
      <point x="80" y="660" type="curve"/>
    </contour>
    <contour>
      <point x="220" y="440" type="curve" smooth="yes"/>
      <point x="210" y="440"/>
      <point x="200" y="450"/>
      <point x="200" y="460" type="curve" smooth="yes"/>
      <point x="200" y="475"/>
      <point x="215" y="490"/>
      <point x="250" y="490" type="curve"/>
      <point x="250" y="455"/>
      <point x="235" y="440"/>
    </contour>
    <contour>
      <point x="40" y="140" type="line"/>
      <point x="410" y="140" type="line"/>
      <point x="410" y="270" type="line"/>
      <point x="40" y="270" type="line"/>
    </contour>
  </outline>
</glyph>
<glyph name="guillemotleft" format="1">
  <advance width="540"/>
  <unicode hex="00AB"/>
  <outline>
    <contour>
      <point x="140" y="40" type="line" name="hr00"/>
      <point x="290" y="40" type="line"/>
      <point x="180" y="270" type="line"/>
      <point x="290" y="500" type="line"/>
      <point x="140" y="500" type="line"/>
      <point x="30" y="270" type="line"/>
    </contour>
    <contour>
      <point x="360" y="40" type="line"/>
      <point x="510" y="40" type="line"/>
      <point x="400" y="270" type="line"/>
      <point x="510" y="500" type="line"/>
      <point x="360" y="500" type="line"/>
      <point x="250" y="270" type="line"/>
    </contour>
  </outline>
</glyph>
<glyph name="logicalnot" format="1">
  <advance width="490"/>
  <unicode hex="00AC"/>
  <outline>
    <contour>
      <point x="460" y="440" type="line" name="hr00"/>
      <point x="30" y="440" type="line"/>
      <point x="30" y="320" type="line"/>
      <point x="330" y="320" type="line"/>
      <point x="330" y="210" type="line"/>
      <point x="460" y="210" type="line"/>
    </contour>
  </outline>
</glyph>
<glyph name="registered" format="1">
  <advance width="840"/>
  <unicode hex="00AE"/>
  <outline>
    <contour>
      <point x="620" y="170" type="line" name="hr00"/>
      <point x="550" y="320" type="line"/>
      <point x="550" y="320"/>
      <point x="600" y="350"/>
      <point x="600" y="410" type="curve" smooth="yes"/>
      <point x="600" y="480"/>
      <point x="540" y="540"/>
      <point x="420" y="540" type="curve" smooth="yes"/>
      <point x="340" y="540"/>
      <point x="260" y="530"/>
      <point x="260" y="530" type="curve"/>
      <point x="260" y="170" type="line"/>
      <point x="410" y="170" type="line"/>
      <point x="410" y="280" type="line"/>
      <point x="415" y="280" type="line"/>
      <point x="450" y="170" type="line"/>
    </contour>
    <contour>
      <point x="410" y="440" type="line"/>
      <point x="420" y="440" type="line"/>
      <point x="435" y="440"/>
      <point x="450" y="425"/>
      <point x="450" y="410" type="curve" smooth="yes"/>
      <point x="450" y="395"/>
      <point x="434" y="380"/>
      <point x="420" y="380" type="curve" smooth="yes"/>
      <point x="410" y="380" type="line"/>
    </contour>
    <contour>
      <point x="40" y="350" type="curve" smooth="yes"/>
      <point x="40" y="150"/>
      <point x="210" y="-20"/>
      <point x="420" y="-20" type="curve" smooth="yes"/>
      <point x="630" y="-20"/>
      <point x="800" y="150"/>
      <point x="800" y="350" type="curve" smooth="yes"/>
      <point x="800" y="550"/>
      <point x="630" y="720"/>
      <point x="420" y="720" type="curve" smooth="yes"/>
      <point x="210" y="720"/>
      <point x="40" y="550"/>
    </contour>
    <contour>
      <point x="700" y="350" type="curve" smooth="yes"/>
      <point x="700" y="200"/>
      <point x="580" y="80"/>
      <point x="420" y="80" type="curve" smooth="yes"/>
      <point x="260" y="80"/>
      <point x="140" y="200"/>
      <point x="140" y="350" type="curve" smooth="yes"/>
      <point x="140" y="500"/>
      <point x="260" y="620"/>
      <point x="420" y="620" type="curve" smooth="yes"/>
      <point x="580" y="620"/>
      <point x="700" y="500"/>
    </contour>
  </outline>
</glyph>
<glyph name="macron" format="1">
  <advance width="370"/>
  <unicode hex="00AF"/>
  <outline>
    <contour>
      <point x="30" y="560" type="line" name="hr00"/>
      <point x="340" y="560" type="line"/>
      <point x="340" y="700" type="line"/>
      <point x="30" y="700" type="line"/>
    </contour>
  </outline>
</glyph>
<glyph name="degree" format="1">
  <advance width="520"/>
  <unicode hex="00B0"/>
  <outline>
    <contour>
      <point x="200" y="500" type="curve" smooth="yes" name="hr00"/>
      <point x="200" y="540"/>
      <point x="230" y="570"/>
      <point x="260" y="570" type="curve" smooth="yes"/>
      <point x="290" y="570"/>
      <point x="320" y="540"/>
      <point x="320" y="500" type="curve" smooth="yes"/>
      <point x="320" y="460"/>
      <point x="290" y="430"/>
      <point x="260" y="430" type="curve" smooth="yes"/>
      <point x="230" y="430"/>
      <point x="200" y="460"/>
    </contour>
    <contour>
      <point x="40" y="500" type="curve" smooth="yes"/>
      <point x="40" y="380"/>
      <point x="130" y="290"/>
      <point x="260" y="290" type="curve" smooth="yes"/>
      <point x="390" y="290"/>
      <point x="480" y="380"/>
      <point x="480" y="500" type="curve" smooth="yes"/>
      <point x="480" y="620"/>
      <point x="390" y="710"/>
      <point x="260" y="710" type="curve" smooth="yes"/>
      <point x="130" y="710"/>
      <point x="40" y="620"/>
    </contour>
  </outline>
</glyph>
<glyph name="plusminus" format="1">
  <advance width="510"/>
  <unicode hex="00B1"/>
  <outline>
    <contour>
      <point x="40" y="30" type="line" name="hr00"/>
      <point x="470" y="30" type="line"/>
      <point x="470" y="220" type="line"/>
      <point x="350" y="220" type="line"/>
      <point x="350" y="310" type="line"/>
      <point x="480" y="310" type="line"/>
      <point x="480" y="500" type="line"/>
      <point x="350" y="500" type="line"/>
      <point x="350" y="640" type="line"/>
      <point x="160" y="640" type="line"/>
      <point x="160" y="500" type="line"/>
      <point x="30" y="500" type="line"/>
      <point x="30" y="310" type="line"/>
      <point x="160" y="310" type="line"/>
      <point x="160" y="220" type="line"/>
      <point x="40" y="220" type="line"/>
    </contour>
  </outline>
</glyph>
<glyph name="twosuperior" format="1">
  <advance width="470"/>
  <unicode hex="00B2"/>
  <outline>
    <contour>
      <point x="280" y="340" type="line" name="hr00"/>
      <point x="280" y="340"/>
      <point x="430" y="430"/>
      <point x="430" y="550" type="curve" smooth="yes"/>
      <point x="430" y="640"/>
      <point x="360" y="710"/>
      <point x="220" y="710" type="curve" smooth="yes"/>
      <point x="90" y="710"/>
      <point x="20" y="640"/>
      <point x="20" y="640" type="curve"/>
      <point x="100" y="520" type="line"/>
      <point x="100" y="520"/>
      <point x="150" y="560"/>
      <point x="210" y="560" type="curve" smooth="yes"/>
      <point x="235" y="560"/>
      <point x="250" y="545"/>
      <point x="250" y="520" type="curve" smooth="yes"/>
      <point x="250" y="450"/>
      <point x="40" y="330"/>
      <point x="40" y="330" type="curve"/>
      <point x="40" y="200" type="line"/>
      <point x="430" y="200" type="line"/>
      <point x="430" y="340" type="line"/>
    </contour>
  </outline>
</glyph>
<glyph name="threesuperior" format="1">
  <advance width="470"/>
  <unicode hex="00B3"/>
  <outline>
    <contour>
      <point x="430" y="350" type="curve" smooth="yes" name="hr00"/>
      <point x="430" y="460"/>
      <point x="320" y="490"/>
      <point x="320" y="490" type="curve"/>
      <point x="420" y="560" type="line"/>
      <point x="420" y="700" type="line"/>
      <point x="50" y="700" type="line"/>
      <point x="50" y="560" type="line"/>
      <point x="230" y="560" type="line"/>
      <point x="130" y="490" type="line"/>
      <point x="130" y="400" type="line"/>
      <point x="210" y="400" type="line" smooth="yes"/>
      <point x="235" y="400"/>
      <point x="250" y="385"/>
      <point x="250" y="370" type="curve" smooth="yes"/>
      <point x="250" y="355"/>
      <point x="235" y="340"/>
      <point x="210" y="340" type="curve" smooth="yes"/>
      <point x="150" y="340"/>
      <point x="100" y="380"/>
      <point x="100" y="380" type="curve"/>
      <point x="20" y="260" type="line"/>
      <point x="20" y="260"/>
      <point x="90" y="190"/>
      <point x="220" y="190" type="curve" smooth="yes"/>
      <point x="360" y="190"/>
      <point x="430" y="260"/>
    </contour>
  </outline>
</glyph>
<glyph name="acute" format="1">
  <advance width="360"/>
  <unicode hex="00B4"/>
  <outline>
    <contour>
      <point x="30" y="490" type="line" name="hr00"/>
      <point x="190" y="490" type="line"/>
      <point x="330" y="700" type="line"/>
      <point x="120" y="700" type="line"/>
    </contour>
  </outline>
</glyph>
<glyph name="mu" format="1">
  <advance width="690"/>
  <unicode hex="00B5"/>
  <outline>
    <contour>
      <point x="350" y="530" type="line" name="hr00"/>
      <point x="350" y="270" type="line" smooth="yes"/>
      <point x="350" y="245"/>
      <point x="335" y="230"/>
      <point x="320" y="230" type="curve" smooth="yes"/>
      <point x="305" y="230"/>
      <point x="290" y="245"/>
      <point x="290" y="270" type="curve" smooth="yes"/>
      <point x="290" y="530" type="line"/>
      <point x="50" y="530" type="line"/>
      <point x="50" y="-250" type="line"/>
      <point x="290" y="-250" type="line"/>
      <point x="290" y="50" type="line"/>
      <point x="290" y="50"/>
      <point x="310" y="40"/>
      <point x="330" y="40" type="curve" smooth="yes"/>
      <point x="370" y="40"/>
      <point x="390" y="80"/>
      <point x="390" y="80" type="curve"/>
      <point x="390" y="80"/>
      <point x="420" y="-10"/>
      <point x="560" y="-10" type="curve" smooth="yes"/>
      <point x="640" y="-10"/>
      <point x="690" y="20"/>
      <point x="690" y="20" type="curve"/>
      <point x="650" y="215" type="line"/>
      <point x="650" y="215"/>
      <point x="640" y="210"/>
      <point x="630" y="210" type="curve" smooth="yes"/>
      <point x="605" y="210"/>
      <point x="590" y="225"/>
      <point x="590" y="250" type="curve" smooth="yes"/>
      <point x="590" y="530" type="line"/>
    </contour>
  </outline>
</glyph>
<glyph name="paragraph" format="1">
  <advance width="770"/>
  <unicode hex="00B6"/>
  <outline>
    <contour>
      <point x="30" y="510" type="curve" smooth="yes" name="hr00"/>
      <point x="30" y="410"/>
      <point x="120" y="320"/>
      <point x="210" y="320" type="curve"/>
      <point x="210" y="-250" type="line"/>
      <point x="410" y="-250" type="line"/>
      <point x="410" y="480" type="line"/>
      <point x="460" y="480" type="line"/>
      <point x="460" y="-250" type="line"/>
      <point x="660" y="-250" type="line"/>
      <point x="660" y="480" type="line"/>
      <point x="740" y="480" type="line"/>
      <point x="740" y="700" type="line"/>
      <point x="210" y="700" type="line" smooth="yes"/>
      <point x="120" y="700"/>
      <point x="30" y="610"/>
    </contour>
  </outline>
</glyph>
<glyph name="periodcentered" format="1">
  <advance width="210"/>
  <unicode hex="00B7"/>
  <outline>
    <contour>
      <point x="0" y="450" type="line" name="hr00"/>
      <point x="0" y="250" type="line"/>
      <point x="210" y="250" type="line"/>
      <point x="210" y="450" type="line"/>
    </contour>
  </outline>
</glyph>
<glyph name="cedilla" format="1">
  <advance width="290"/>
  <unicode hex="00B8"/>
  <outline>
    <contour>
      <point x="165" y="0" type="line" name="hr00"/>
      <point x="100" y="0" type="line"/>
      <point x="40" y="-150" type="line"/>
      <point x="100" y="-150" type="line"/>
      <point x="115" y="-150"/>
      <point x="130" y="-165"/>
      <point x="130" y="-180" type="curve" smooth="yes"/>
      <point x="130" y="-195"/>
      <point x="115" y="-210"/>
      <point x="100" y="-210" type="curve"/>
      <point x="30" y="-210" type="line"/>
      <point x="30" y="-310" type="line"/>
      <point x="120" y="-310" type="line"/>
      <point x="205" y="-310"/>
      <point x="260" y="-255"/>
      <point x="260" y="-180" type="curve" smooth="yes"/>
      <point x="260" y="-115"/>
      <point x="205" y="-60"/>
      <point x="140" y="-60" type="curve"/>
    </contour>
  </outline>
</glyph>
<glyph name="onesuperior" format="1">
  <advance width="360"/>
  <unicode hex="00B9"/>
  <outline>
    <contour>
      <point x="140" y="700" type="line" name="hr00"/>
      <point x="30" y="650" type="line"/>
      <point x="30" y="485" type="line"/>
      <point x="130" y="530" type="line"/>
      <point x="130" y="200" type="line"/>
      <point x="310" y="200" type="line"/>
      <point x="310" y="700" type="line"/>
    </contour>
  </outline>
</glyph>
<glyph name="ordmasculine" format="1">
  <advance width="540"/>
  <unicode hex="00BA"/>
  <outline>
    <contour>
      <point x="40" y="450" type="curve" name="hr00"/>
      <point x="40" y="290"/>
      <point x="140" y="190"/>
      <point x="270" y="190" type="curve"/>
      <point x="400" y="190"/>
      <point x="500" y="290"/>
      <point x="500" y="450" type="curve"/>
      <point x="500" y="610"/>
      <point x="400" y="710"/>
      <point x="270" y="710" type="curve" smooth="yes"/>
      <point x="140" y="710"/>
      <point x="40" y="610"/>
    </contour>
    <contour>
      <point x="320" y="450" type="curve"/>
      <point x="320" y="365"/>
      <point x="295" y="340"/>
      <point x="270" y="340" type="curve"/>
      <point x="245" y="340"/>
      <point x="220" y="365"/>
      <point x="220" y="450" type="curve"/>
      <point x="220" y="535"/>
      <point x="245" y="560"/>
      <point x="270" y="560" type="curve" smooth="yes"/>
      <point x="295" y="560"/>
      <point x="320" y="535"/>
    </contour>
  </outline>
</glyph>
<glyph name="guillemotright" format="1">
  <advance width="540"/>
  <unicode hex="00BB"/>
  <outline>
    <contour>
      <point x="510" y="270" type="line" name="hr00"/>
      <point x="400" y="500" type="line"/>
      <point x="250" y="500" type="line"/>
      <point x="360" y="270" type="line"/>
      <point x="250" y="40" type="line"/>
      <point x="400" y="40" type="line"/>
    </contour>
    <contour>
      <point x="290" y="270" type="line"/>
      <point x="180" y="500" type="line"/>
      <point x="30" y="500" type="line"/>
      <point x="140" y="270" type="line"/>
      <point x="30" y="40" type="line"/>
      <point x="180" y="40" type="line"/>
    </contour>
  </outline>
</glyph>
<glyph name="onequarter" format="1">
  <advance width="1080"/>
  <unicode hex="00BC"/>
  <outline>
    <contour>
      <point x="140" y="700" type="line" name="hr00"/>
      <point x="30" y="650" type="line"/>
      <point x="30" y="485" type="line"/>
      <point x="130" y="530" type="line"/>
      <point x="130" y="200" type="line"/>
      <point x="310" y="200" type="line"/>
      <point x="310" y="700" type="line"/>
    </contour>
    <contour>
      <point x="640" y="700" type="line"/>
      <point x="530" y="700" type="line"/>
      <point x="330" y="0" type="line"/>
      <point x="440" y="0" type="line"/>
    </contour>
    <contour>
      <point x="1060" y="220" type="line"/>
      <point x="1010" y="220" type="line"/>
      <point x="1010" y="500" type="line"/>
      <point x="760" y="500" type="line"/>
      <point x="590" y="220" type="line"/>
      <point x="590" y="80" type="line"/>
      <point x="830" y="80" type="line"/>
      <point x="830" y="0" type="line"/>
      <point x="1010" y="0" type="line"/>
      <point x="1010" y="80" type="line"/>
      <point x="1060" y="80" type="line"/>
    </contour>
    <contour>
      <point x="830" y="220" type="line"/>
      <point x="760" y="220" type="line"/>
      <point x="830" y="350" type="line"/>
    </contour>
  </outline>
</glyph>
<glyph name="onehalf" format="1">
  <advance width="1060"/>
  <unicode hex="00BD"/>
  <outline>
    <contour>
      <point x="140" y="700" type="line" name="hr00"/>
      <point x="30" y="650" type="line"/>
      <point x="30" y="485" type="line"/>
      <point x="130" y="530" type="line"/>
      <point x="130" y="200" type="line"/>
      <point x="310" y="200" type="line"/>
      <point x="310" y="700" type="line"/>
    </contour>
    <contour>
      <point x="640" y="700" type="line"/>
      <point x="530" y="700" type="line"/>
      <point x="330" y="0" type="line"/>
      <point x="440" y="0" type="line"/>
    </contour>
    <contour>
      <point x="870" y="140" type="line"/>
      <point x="870" y="140"/>
      <point x="1020" y="230"/>
      <point x="1020" y="350" type="curve" smooth="yes"/>
      <point x="1020" y="440"/>
      <point x="950" y="510"/>
      <point x="810" y="510" type="curve" smooth="yes"/>
      <point x="680" y="510"/>
      <point x="610" y="440"/>
      <point x="610" y="440" type="curve"/>
      <point x="690" y="320" type="line"/>
      <point x="690" y="320"/>
      <point x="740" y="360"/>
      <point x="800" y="360" type="curve" smooth="yes"/>
      <point x="825" y="360"/>
      <point x="840" y="345"/>
      <point x="840" y="320" type="curve" smooth="yes"/>
      <point x="840" y="250"/>
      <point x="630" y="130"/>
      <point x="630" y="130" type="curve"/>
      <point x="630" y="0" type="line"/>
      <point x="1020" y="0" type="line"/>
      <point x="1020" y="140" type="line"/>
    </contour>
  </outline>
</glyph>
<glyph name="threequarters" format="1">
  <advance width="1160"/>
  <unicode hex="00BE"/>
  <outline>
    <contour>
      <point x="430" y="350" type="curve" smooth="yes" name="hr00"/>
      <point x="430" y="460"/>
      <point x="320" y="490"/>
      <point x="320" y="490" type="curve"/>
      <point x="420" y="560" type="line"/>
      <point x="420" y="700" type="line"/>
      <point x="50" y="700" type="line"/>
      <point x="50" y="560" type="line"/>
      <point x="230" y="560" type="line"/>
      <point x="130" y="490" type="line"/>
      <point x="130" y="400" type="line"/>
      <point x="210" y="400" type="line" smooth="yes"/>
      <point x="235" y="400"/>
      <point x="250" y="385"/>
      <point x="250" y="370" type="curve" smooth="yes"/>
      <point x="250" y="355"/>
      <point x="235" y="340"/>
      <point x="210" y="340" type="curve" smooth="yes"/>
      <point x="150" y="340"/>
      <point x="100" y="380"/>
      <point x="100" y="380" type="curve"/>
      <point x="20" y="260" type="line"/>
      <point x="20" y="260"/>
      <point x="90" y="190"/>
      <point x="220" y="190" type="curve" smooth="yes"/>
      <point x="360" y="190"/>
      <point x="430" y="260"/>
    </contour>
    <contour>
      <point x="720" y="700" type="line"/>
      <point x="610" y="700" type="line"/>
      <point x="410" y="0" type="line"/>
      <point x="520" y="0" type="line"/>
    </contour>
    <contour>
      <point x="1140" y="220" type="line"/>
      <point x="1090" y="220" type="line"/>
      <point x="1090" y="500" type="line"/>
      <point x="840" y="500" type="line"/>
      <point x="670" y="220" type="line"/>
      <point x="670" y="80" type="line"/>
      <point x="910" y="80" type="line"/>
      <point x="910" y="0" type="line"/>
      <point x="1090" y="0" type="line"/>
      <point x="1090" y="80" type="line"/>
      <point x="1140" y="80" type="line"/>
    </contour>
    <contour>
      <point x="910" y="220" type="line"/>
      <point x="840" y="220" type="line"/>
      <point x="910" y="350" type="line"/>
    </contour>
  </outline>
</glyph>
<glyph name="questiondown" format="1">
  <advance width="540"/>
  <unicode hex="00BF"/>
  <outline>
    <contour>
      <point x="20" y="-40" type="curve" smooth="yes" name="hr00"/>
      <point x="20" y="-150"/>
      <point x="120" y="-250"/>
      <point x="290" y="-250" type="curve" smooth="yes"/>
      <point x="530" y="-250"/>
      <point x="570" y="-60"/>
      <point x="570" y="-60" type="curve"/>
      <point x="380" y="10" type="line"/>
      <point x="380" y="10"/>
      <point x="370" y="-50"/>
      <point x="320" y="-50" type="curve" smooth="yes"/>
      <point x="300" y="-50"/>
      <point x="280" y="-30"/>
      <point x="280" y="-10" type="curve" smooth="yes"/>
      <point x="280" y="80"/>
      <point x="400" y="100"/>
      <point x="400" y="270" type="curve"/>
      <point x="190" y="270" type="line"/>
      <point x="190" y="150"/>
      <point x="20" y="110"/>
    </contour>
    <contour>
      <point x="400" y="330" type="line"/>
      <point x="400" y="530" type="line"/>
      <point x="190" y="530" type="line"/>
      <point x="190" y="330" type="line"/>
    </contour>
  </outline>
</glyph>
<glyph name="AE" format="1">
  <advance width="1070"/>
  <unicode hex="00C6"/>
  <outline>
    <contour>
      <point x="740" y="200" type="line" name="hr00"/>
      <point x="740" y="250" type="line"/>
      <point x="1000" y="250" type="line"/>
      <point x="1000" y="450" type="line"/>
      <point x="740" y="450" type="line"/>
      <point x="740" y="500" type="line"/>
      <point x="1020" y="500" type="line"/>
      <point x="1020" y="700" type="line"/>
      <point x="320" y="700" type="line"/>
      <point x="-40" y="0" type="line"/>
      <point x="240" y="0" type="line"/>
      <point x="290" y="110" type="line"/>
      <point x="480" y="110" type="line"/>
      <point x="480" y="0" type="line"/>
      <point x="1040" y="0" type="line"/>
      <point x="1040" y="200" type="line"/>
    </contour>
    <contour>
      <point x="380" y="300" type="line"/>
      <point x="470" y="500" type="line"/>
      <point x="480" y="500" type="line"/>
      <point x="480" y="300" type="line"/>
    </contour>
  </outline>
</glyph>
<glyph name="Ccedilla" format="1">
  <advance width="710"/>
  <unicode hex="00C7"/>
  <outline>
    <contour>
      <point x="40" y="350" type="curve" smooth="yes" name="hr00"/>
      <point x="40" y="160"/>
      <point x="170" y="20"/>
      <point x="355" y="-10" type="curve"/>
      <point x="300" y="-150" type="line"/>
      <point x="360" y="-150" type="line" smooth="yes"/>
      <point x="375" y="-150"/>
      <point x="390" y="-165"/>
      <point x="390" y="-180" type="curve" smooth="yes"/>
      <point x="390" y="-195"/>
      <point x="375" y="-210"/>
      <point x="360" y="-210" type="curve" smooth="yes"/>
      <point x="290" y="-210" type="line"/>
      <point x="290" y="-310" type="line"/>
      <point x="380" y="-310" type="line" smooth="yes"/>
      <point x="465" y="-310"/>
      <point x="520" y="-255"/>
      <point x="520" y="-180" type="curve" smooth="yes"/>
      <point x="520" y="-115"/>
      <point x="465" y="-60"/>
      <point x="400" y="-60" type="curve"/>
      <point x="420" y="-15" type="line"/>
      <point x="600" y="-10"/>
      <point x="690" y="95"/>
      <point x="690" y="95" type="curve"/>
      <point x="570" y="285" type="line"/>
      <point x="570" y="285"/>
      <point x="510" y="230"/>
      <point x="440" y="230" type="curve" smooth="yes"/>
      <point x="370" y="230"/>
      <point x="320" y="280"/>
      <point x="320" y="350" type="curve" smooth="yes"/>
      <point x="320" y="420"/>
      <point x="370" y="470"/>
      <point x="440" y="470" type="curve" smooth="yes"/>
      <point x="510" y="470"/>
      <point x="570" y="415"/>
      <point x="570" y="415" type="curve"/>
      <point x="690" y="605" type="line"/>
      <point x="690" y="605"/>
      <point x="600" y="715"/>
      <point x="410" y="715" type="curve" smooth="yes"/>
      <point x="200" y="715"/>
      <point x="40" y="555"/>
    </contour>
  </outline>
</glyph>
<glyph name="Eth" format="1">
  <advance width="830"/>
  <unicode hex="00D0"/>
  <outline>
    <contour>
      <point x="20" y="280" type="line" name="hr00"/>
      <point x="90" y="280" type="line"/>
      <point x="90" y="0" type="line"/>
      <point x="90" y="0"/>
      <point x="230" y="-10"/>
      <point x="390" y="-10" type="curve" smooth="yes"/>
      <point x="656" y="-10"/>
      <point x="790" y="135"/>
      <point x="790" y="350" type="curve" smooth="yes"/>
      <point x="790" y="565"/>
      <point x="656" y="710"/>
      <point x="390" y="710" type="curve" smooth="yes"/>
      <point x="230" y="710"/>
      <point x="90" y="700"/>
      <point x="90" y="700" type="curve"/>
      <point x="90" y="420" type="line"/>
      <point x="20" y="420" type="line"/>
    </contour>
    <contour>
      <point x="350" y="210" type="line"/>
      <point x="350" y="280" type="line"/>
      <point x="440" y="280" type="line"/>
      <point x="440" y="420" type="line"/>
      <point x="350" y="420" type="line"/>
      <point x="350" y="490" type="line"/>
      <point x="390" y="490" type="line" smooth="yes"/>
      <point x="465" y="490"/>
      <point x="510" y="445"/>
      <point x="510" y="350" type="curve" smooth="yes"/>
      <point x="510" y="255"/>
      <point x="465" y="210"/>
      <point x="390" y="210" type="curve" smooth="yes"/>
    </contour>
  </outline>
</glyph>
<glyph name="multiply" format="1">
  <advance width="540"/>
  <unicode hex="00D7"/>
  <outline>
    <contour>
      <point x="270" y="210" type="line" name="hr00"/>
      <point x="390" y="90" type="line"/>
      <point x="510" y="210" type="line"/>
      <point x="390" y="330" type="line"/>
      <point x="510" y="450" type="line"/>
      <point x="390" y="570" type="line"/>
      <point x="270" y="450" type="line"/>
      <point x="150" y="570" type="line"/>
      <point x="30" y="450" type="line"/>
      <point x="150" y="330" type="line"/>
      <point x="30" y="210" type="line"/>
      <point x="150" y="90" type="line"/>
    </contour>
  </outline>
</glyph>
<glyph name="Oslash" format="1">
  <advance width="860"/>
  <unicode hex="00D8"/>
  <outline>
    <contour>
      <point x="400" y="230" type="line" name="hr00"/>
      <point x="540" y="390" type="line"/>
      <point x="540" y="350" type="line" smooth="yes"/>
      <point x="540" y="280"/>
      <point x="490" y="230"/>
      <point x="430" y="230" type="curve" smooth="yes"/>
    </contour>
    <contour>
      <point x="430" y="-15" type="curve" smooth="yes"/>
      <point x="660" y="-15"/>
      <point x="820" y="145"/>
      <point x="820" y="351" type="curve" smooth="yes"/>
      <point x="820" y="510"/>
      <point x="725" y="595"/>
      <point x="725" y="595" type="curve"/>
      <point x="785" y="665" type="line"/>
      <point x="700" y="740" type="line"/>
      <point x="635" y="665" type="line"/>
      <point x="635" y="665"/>
      <point x="560" y="715"/>
      <point x="430" y="715" type="curve" smooth="yes"/>
      <point x="200" y="715"/>
      <point x="40" y="555"/>
      <point x="40" y="349" type="curve" smooth="yes"/>
      <point x="40" y="190"/>
      <point x="135" y="105"/>
      <point x="135" y="105" type="curve"/>
      <point x="75" y="35" type="line"/>
      <point x="160" y="-40" type="line"/>
      <point x="225" y="35" type="line"/>
      <point x="225" y="35"/>
      <point x="300" y="-15"/>
    </contour>
    <contour>
      <point x="460" y="470" type="line"/>
      <point x="320" y="310" type="line"/>
      <point x="320" y="350" type="line" smooth="yes"/>
      <point x="320" y="420"/>
      <point x="370" y="470"/>
      <point x="430" y="470" type="curve" smooth="yes"/>
    </contour>
  </outline>
</glyph>
<glyph name="Thorn" format="1">
  <advance width="710"/>
  <unicode hex="00DE"/>
  <outline>
    <contour>
      <point x="60" y="710" type="line" name="hr00"/>
      <point x="320" y="710" type="line"/>
      <point x="320" y="595" type="line"/>
      <point x="320" y="595"/>
      <point x="370" y="595"/>
      <point x="410" y="595" type="curve" smooth="yes"/>
      <point x="580" y="595"/>
      <point x="680" y="495"/>
      <point x="680" y="350" type="curve"/>
      <point x="680" y="205"/>
      <point x="580" y="105"/>
      <point x="410" y="105" type="curve"/>
      <point x="320" y="105" type="line"/>
      <point x="320" y="-10" type="line"/>
      <point x="60" y="-10" type="line"/>
    </contour>
    <contour>
      <point x="360" y="295" type="line"/>
      <point x="395" y="295"/>
      <point x="420" y="320"/>
      <point x="420" y="350" type="curve"/>
      <point x="420" y="380"/>
      <point x="395" y="405"/>
      <point x="360" y="405" type="curve" smooth="yes"/>
      <point x="320" y="405" type="line"/>
      <point x="320" y="295" type="line"/>
    </contour>
  </outline>
</glyph>
<glyph name="germandbls" format="1">
  <advance width="680"/>
  <unicode hex="00DF"/>
  <outline>
    <contour>
      <point x="520" y="370" type="curve" smooth="yes" name="hr00"/>
      <point x="520" y="400"/>
      <point x="620" y="430"/>
      <point x="620" y="540" type="curve" smooth="yes"/>
      <point x="620" y="630"/>
      <point x="530" y="720"/>
      <point x="370" y="720" type="curve" smooth="yes"/>
      <point x="160" y="720"/>
      <point x="60" y="620"/>
      <point x="60" y="480" type="curve" smooth="yes"/>
      <point x="60" y="30" type="line" smooth="yes"/>
      <point x="60" y="-70"/>
      <point x="40" y="-140"/>
      <point x="40" y="-140" type="curve"/>
      <point x="300" y="-140" type="line"/>
      <point x="300" y="-140"/>
      <point x="320" y="-70"/>
      <point x="320" y="30" type="curve" smooth="yes"/>
      <point x="320" y="490" type="line" smooth="yes"/>
      <point x="320" y="525"/>
      <point x="345" y="550"/>
      <point x="370" y="550" type="curve" smooth="yes"/>
      <point x="390" y="550"/>
      <point x="410" y="530"/>
      <point x="410" y="510" type="curve" smooth="yes"/>
      <point x="410" y="460"/>
      <point x="340" y="430"/>
      <point x="340" y="370" type="curve" smooth="yes"/>
      <point x="340" y="310"/>
      <point x="430" y="280"/>
      <point x="430" y="230" type="curve" smooth="yes"/>
      <point x="430" y="205"/>
      <point x="405" y="180"/>
      <point x="370" y="180" type="curve"/>
      <point x="370" y="0" type="line"/>
      <point x="570" y="0"/>
      <point x="660" y="90"/>
      <point x="660" y="190" type="curve" smooth="yes"/>
      <point x="660" y="320"/>
      <point x="520" y="340"/>
    </contour>
  </outline>
</glyph>
<glyph name="ae" format="1">
  <advance width="925"/>
  <unicode hex="00E6"/>
  <outline>
    <contour>
      <point x="625" y="545" type="curve" smooth="yes" name="hr00"/>
      <point x="525" y="545"/>
      <point x="465" y="480"/>
      <point x="465" y="480" type="curve"/>
      <point x="465" y="480"/>
      <point x="405" y="545"/>
      <point x="280" y="545" type="curve" smooth="yes"/>
      <point x="150" y="545"/>
      <point x="75" y="465"/>
      <point x="75" y="465" type="curve"/>
      <point x="160" y="330" type="line"/>
      <point x="160" y="330"/>
      <point x="200" y="370"/>
      <point x="250" y="370" type="curve" smooth="yes"/>
      <point x="330" y="370"/>
      <point x="340" y="315"/>
      <point x="340" y="315" type="curve"/>
      <point x="260" y="315" type="line" smooth="yes"/>
      <point x="90" y="315"/>
      <point x="20" y="245"/>
      <point x="20" y="150" type="curve" smooth="yes"/>
      <point x="20" y="55"/>
      <point x="90" y="-15"/>
      <point x="260" y="-15" type="curve" smooth="yes"/>
      <point x="405" y="-15"/>
      <point x="465" y="50"/>
      <point x="465" y="50" type="curve"/>
      <point x="465" y="50"/>
      <point x="525" y="-15"/>
      <point x="640" y="-15" type="curve" smooth="yes"/>
      <point x="775" y="-15"/>
      <point x="850" y="65"/>
      <point x="850" y="65" type="curve"/>
      <point x="765" y="200" type="line"/>
      <point x="765" y="200"/>
      <point x="725" y="160"/>
      <point x="675" y="160" type="curve" smooth="yes"/>
      <point x="595" y="160"/>
      <point x="585" y="215"/>
      <point x="585" y="215" type="curve"/>
      <point x="905" y="215" type="line"/>
      <point x="905" y="265" type="line" smooth="yes"/>
      <point x="905" y="420"/>
      <point x="780" y="545"/>
    </contour>
    <contour>
      <point x="340" y="160" type="line"/>
      <point x="340" y="160"/>
      <point x="320" y="145"/>
      <point x="300" y="145" type="curve" smooth="yes"/>
      <point x="275" y="145"/>
      <point x="260" y="160"/>
      <point x="260" y="180" type="curve" smooth="yes"/>
      <point x="260" y="205"/>
      <point x="285" y="230"/>
      <point x="340" y="230" type="curve"/>
    </contour>
    <contour>
      <point x="580" y="310" type="line"/>
      <point x="580" y="350"/>
      <point x="600" y="370"/>
      <point x="625" y="370" type="curve" smooth="yes"/>
      <point x="650" y="370"/>
      <point x="670" y="350"/>
      <point x="670" y="310" type="curve"/>
    </contour>
  </outline>
</glyph>
<glyph name="ccedilla" format="1">
  <advance width="560"/>
  <unicode hex="00E7"/>
  <outline>
    <contour>
      <point x="280" y="265" type="curve" smooth="yes" name="hr00"/>
      <point x="280" y="310"/>
      <point x="310" y="340"/>
      <point x="360" y="340" type="curve" smooth="yes"/>
      <point x="410" y="340"/>
      <point x="450" y="300"/>
      <point x="450" y="300" type="curve"/>
      <point x="550" y="460" type="line"/>
      <point x="550" y="460"/>
      <point x="470" y="545"/>
      <point x="325" y="545" type="curve" smooth="yes"/>
      <point x="155" y="545"/>
      <point x="30" y="420"/>
      <point x="30" y="265" type="curve" smooth="yes"/>
      <point x="30" y="125"/>
      <point x="130" y="10"/>
      <point x="275" y="-10" type="curve"/>
      <point x="220" y="-150" type="line"/>
      <point x="280" y="-150" type="line" smooth="yes"/>
      <point x="295" y="-150"/>
      <point x="310" y="-165"/>
      <point x="310" y="-180" type="curve" smooth="yes"/>
      <point x="310" y="-195"/>
      <point x="295" y="-210"/>
      <point x="280" y="-210" type="curve" smooth="yes"/>
      <point x="210" y="-210" type="line"/>
      <point x="210" y="-310" type="line"/>
      <point x="300" y="-310" type="line" smooth="yes"/>
      <point x="385" y="-310"/>
      <point x="440" y="-255"/>
      <point x="440" y="-180" type="curve" smooth="yes"/>
      <point x="440" y="-115"/>
      <point x="385" y="-60"/>
      <point x="320" y="-60" type="curve"/>
      <point x="340" y="-15" type="line"/>
      <point x="470" y="-10"/>
      <point x="550" y="70"/>
      <point x="550" y="70" type="curve"/>
      <point x="450" y="230" type="line"/>
      <point x="450" y="230"/>
      <point x="410" y="190"/>
      <point x="360" y="190" type="curve" smooth="yes"/>
      <point x="310" y="190"/>
      <point x="280" y="220"/>
    </contour>
  </outline>
</glyph>
<glyph name="eth" format="1">
  <advance width="650"/>
  <unicode hex="00F0"/>
  <outline>
    <contour>
      <point x="160" y="560" type="line" name="hr00"/>
      <point x="220" y="520" type="line"/>
      <point x="270" y="600" type="line"/>
      <point x="270" y="600"/>
      <point x="410" y="570"/>
      <point x="410" y="450" type="curve"/>
      <point x="410" y="450"/>
      <point x="360" y="510"/>
      <point x="260" y="510" type="curve" smooth="yes"/>
      <point x="130" y="510"/>
      <point x="30" y="410"/>
      <point x="30" y="265" type="curve" smooth="yes"/>
      <point x="30" y="110"/>
      <point x="155" y="-15"/>
      <point x="325" y="-15" type="curve" smooth="yes"/>
      <point x="495" y="-15"/>
      <point x="620" y="110"/>
      <point x="620" y="330" type="curve" smooth="yes"/>
      <point x="620" y="370" type="line" smooth="yes"/>
      <point x="620" y="690"/>
      <point x="370" y="755"/>
      <point x="370" y="755" type="curve"/>
      <point x="410" y="820" type="line"/>
      <point x="350" y="860" type="line"/>
      <point x="295" y="775" type="line"/>
      <point x="295" y="775"/>
      <point x="230" y="790"/>
      <point x="150" y="790" type="curve"/>
      <point x="110" y="620" type="line"/>
      <point x="151" y="620"/>
      <point x="195" y="615"/>
      <point x="195" y="615" type="curve"/>
    </contour>
    <contour>
      <point x="270" y="265" type="curve" smooth="yes"/>
      <point x="270" y="315"/>
      <point x="294" y="340"/>
      <point x="325" y="340" type="curve" smooth="yes"/>
      <point x="356" y="340"/>
      <point x="380" y="315"/>
      <point x="380" y="265" type="curve" smooth="yes"/>
      <point x="380" y="215"/>
      <point x="356" y="190"/>
      <point x="325" y="190" type="curve" smooth="yes"/>
      <point x="294" y="190"/>
      <point x="270" y="215"/>
    </contour>
  </outline>
</glyph>
<glyph name="divide" format="1">
  <advance width="490"/>
  <unicode hex="00F7"/>
  <outline>
    <contour>
      <point x="30" y="230" type="line" name="hr00"/>
      <point x="460" y="230" type="line"/>
      <point x="460" y="420" type="line"/>
      <point x="30" y="420" type="line"/>
    </contour>
    <contour>
      <point x="140" y="170" type="line"/>
      <point x="140" y="20" type="line"/>
      <point x="350" y="20" type="line"/>
      <point x="350" y="170" type="line"/>
    </contour>
    <contour>
      <point x="140" y="630" type="line"/>
      <point x="140" y="480" type="line"/>
      <point x="350" y="480" type="line"/>
      <point x="350" y="630" type="line"/>
    </contour>
  </outline>
</glyph>
<glyph name="oslash" format="1">
  <advance width="670"/>
  <unicode hex="00F8"/>
  <outline>
    <contour>
      <point x="350" y="350" type="line" name="hr00"/>
      <point x="260" y="255" type="line"/>
      <point x="260" y="266" type="line" smooth="yes"/>
      <point x="260" y="315"/>
      <point x="295" y="350"/>
      <point x="335" y="350" type="curve"/>
    </contour>
    <contour>
      <point x="335" y="545" type="curve"/>
      <point x="155" y="545"/>
      <point x="30" y="420"/>
      <point x="30" y="265" type="curve" smooth="yes"/>
      <point x="30" y="140"/>
      <point x="105" y="75"/>
      <point x="105" y="75" type="curve"/>
      <point x="55" y="20" type="line"/>
      <point x="115" y="-40" type="line"/>
      <point x="175" y="25" type="line"/>
      <point x="175" y="25"/>
      <point x="235" y="-15"/>
      <point x="335" y="-15" type="curve" smooth="yes"/>
      <point x="515" y="-15"/>
      <point x="640" y="110"/>
      <point x="640" y="265" type="curve" smooth="yes"/>
      <point x="640" y="390"/>
      <point x="565" y="455"/>
      <point x="565" y="455" type="curve"/>
      <point x="615" y="510" type="line"/>
      <point x="555" y="570" type="line"/>
      <point x="495" y="505" type="line"/>
      <point x="495" y="505"/>
      <point x="435" y="545"/>
    </contour>
    <contour>
      <point x="320" y="180" type="line"/>
      <point x="410" y="275" type="line"/>
      <point x="410" y="264" type="line" smooth="yes"/>
      <point x="410" y="215"/>
      <point x="375" y="180"/>
      <point x="335" y="180" type="curve"/>
    </contour>
  </outline>
</glyph>
<glyph name="thorn" format="1">
  <advance width="670"/>
  <unicode hex="00FE"/>
  <outline>
    <contour>
      <point x="390" y="265" type="curve" smooth="yes" name="hr00"/>
      <point x="390" y="215"/>
      <point x="365" y="190"/>
      <point x="335" y="190" type="curve" smooth="yes"/>
      <point x="305" y="190"/>
      <point x="280" y="215"/>
      <point x="280" y="265" type="curve" smooth="yes"/>
      <point x="280" y="315"/>
      <point x="305" y="340"/>
      <point x="335" y="340" type="curve" smooth="yes"/>
      <point x="365" y="340"/>
      <point x="390" y="315"/>
    </contour>
    <contour>
      <point x="50" y="740" type="line"/>
      <point x="50" y="-250" type="line"/>
      <point x="290" y="-250" type="line"/>
      <point x="290" y="60" type="line"/>
      <point x="290" y="60"/>
      <point x="330" y="-15"/>
      <point x="430" y="-15" type="curve" smooth="yes"/>
      <point x="540" y="-15"/>
      <point x="640" y="85"/>
      <point x="640" y="265" type="curve" smooth="yes"/>
      <point x="640" y="445"/>
      <point x="540" y="545"/>
      <point x="430" y="545" type="curve" smooth="yes"/>
      <point x="330" y="545"/>
      <point x="290" y="470"/>
      <point x="290" y="470" type="curve"/>
      <point x="290" y="740" type="line"/>
    </contour>
  </outline>
</glyph>
<glyph name="Aogonek" format="1">
  <advance width="770"/>
  <unicode hex="0104"/>
  <outline>
    <contour>
      <point x="760" y="0" type="curve" name="hr00"/>
      <point x="760" y="0"/>
      <point x="556" y="696"/>
      <point x="555" y="700" type="curve"/>
      <point x="215" y="700" type="line"/>
      <point x="10" y="0" type="line"/>
      <point x="300" y="0" type="line"/>
      <point x="320" y="100" type="line"/>
      <point x="450" y="100" type="line"/>
      <point x="470" y="0" type="line"/>
      <point x="690" y="0" type="line"/>
      <point x="690" y="0"/>
      <point x="520" y="-50"/>
      <point x="520" y="-160" type="curve" smooth="yes"/>
      <point x="520" y="-220"/>
      <point x="570" y="-270"/>
      <point x="640" y="-270" type="curve" smooth="yes"/>
      <point x="740" y="-270" type="line"/>
      <point x="740" y="-150" type="line"/>
      <point x="680" y="-150" type="line" smooth="yes"/>
      <point x="670" y="-150"/>
      <point x="660" y="-140"/>
      <point x="660" y="-130" type="curve" smooth="yes"/>
      <point x="660" y="-80"/>
    </contour>
    <contour>
      <point x="350" y="260" type="line"/>
      <point x="385" y="440" type="line"/>
      <point x="420" y="260" type="line"/>
    </contour>
  </outline>
</glyph>
<glyph name="aogonek" format="1">
  <advance width="620"/>
  <unicode hex="0105"/>
  <outline>
    <contour>
      <point x="285" y="545" type="curve" smooth="yes" name="hr00"/>
      <point x="150" y="545"/>
      <point x="75" y="465"/>
      <point x="75" y="465" type="curve"/>
      <point x="160" y="330" type="line"/>
      <point x="160" y="330"/>
      <point x="200" y="370"/>
      <point x="250" y="370" type="curve" smooth="yes"/>
      <point x="330" y="370"/>
      <point x="340" y="315"/>
      <point x="340" y="315" type="curve"/>
      <point x="260" y="315" type="line" smooth="yes"/>
      <point x="90" y="315"/>
      <point x="20" y="245"/>
      <point x="20" y="150" type="curve" smooth="yes"/>
      <point x="20" y="55"/>
      <point x="90" y="-15"/>
      <point x="200" y="-15" type="curve" smooth="yes"/>
      <point x="290" y="-15"/>
      <point x="330" y="60"/>
      <point x="330" y="60" type="curve"/>
      <point x="350" y="0" type="line"/>
      <point x="510" y="0" type="line"/>
      <point x="510" y="0"/>
      <point x="340" y="-50"/>
      <point x="340" y="-160" type="curve" smooth="yes"/>
      <point x="340" y="-220"/>
      <point x="390" y="-270"/>
      <point x="460" y="-270" type="curve" smooth="yes"/>
      <point x="560" y="-270" type="line"/>
      <point x="560" y="-150" type="line"/>
      <point x="500" y="-150" type="line" smooth="yes"/>
      <point x="490" y="-150"/>
      <point x="480" y="-140"/>
      <point x="480" y="-130" type="curve" smooth="yes"/>
      <point x="480" y="-80"/>
      <point x="580" y="0"/>
      <point x="580" y="0" type="curve"/>
      <point x="580" y="265" type="line" smooth="yes"/>
      <point x="580" y="420"/>
      <point x="455" y="545"/>
    </contour>
    <contour>
      <point x="290" y="145" type="curve" smooth="yes"/>
      <point x="275" y="145"/>
      <point x="260" y="160"/>
      <point x="260" y="175" type="curve" smooth="yes"/>
      <point x="260" y="205"/>
      <point x="285" y="230"/>
      <point x="340" y="230" type="curve"/>
      <point x="340" y="170"/>
      <point x="315" y="145"/>
    </contour>
  </outline>
</glyph>
<glyph name="dcroat" format="1">
  <advance width="690"/>
  <unicode hex="0111"/>
  <outline>
    <contour>
      <point x="620" y="530" type="line" name="hr00"/>
      <point x="690" y="530" type="line"/>
      <point x="690" y="660" type="line"/>
      <point x="620" y="660" type="line"/>
      <point x="620" y="740" type="line"/>
      <point x="380" y="740" type="line"/>
      <point x="380" y="660" type="line"/>
      <point x="280" y="660" type="line"/>
      <point x="280" y="530" type="line"/>
      <point x="380" y="530" type="line"/>
      <point x="380" y="430" type="line"/>
      <point x="380" y="430"/>
      <point x="340" y="505"/>
      <point x="240" y="505" type="curve" smooth="yes"/>
      <point x="130" y="505"/>
      <point x="30" y="405"/>
      <point x="30" y="245" type="curve" smooth="yes"/>
      <point x="30" y="85"/>
      <point x="130" y="-15"/>
      <point x="240" y="-15" type="curve" smooth="yes"/>
      <point x="340" y="-15"/>
      <point x="380" y="60"/>
      <point x="380" y="60" type="curve"/>
      <point x="400" y="0" type="line"/>
      <point x="620" y="0" type="line"/>
    </contour>
    <contour>
      <point x="280" y="245" type="curve" smooth="yes"/>
      <point x="280" y="275"/>
      <point x="305" y="300"/>
      <point x="335" y="300" type="curve" smooth="yes"/>
      <point x="365" y="300"/>
      <point x="390" y="275"/>
      <point x="390" y="245" type="curve" smooth="yes"/>
      <point x="390" y="215"/>
      <point x="365" y="190"/>
      <point x="335" y="190" type="curve" smooth="yes"/>
      <point x="305" y="190"/>
      <point x="280" y="215"/>
    </contour>
  </outline>
</glyph>
<glyph name="Eogonek" format="1">
  <advance width="650"/>
  <unicode hex="0118"/>
  <outline>
    <contour>
      <point x="320" y="250" type="line" name="hr00"/>
      <point x="580" y="250" type="line"/>
      <point x="580" y="450" type="line"/>
      <point x="320" y="450" type="line"/>
      <point x="320" y="500" type="line"/>
      <point x="600" y="500" type="line"/>
      <point x="600" y="700" type="line"/>
      <point x="60" y="700" type="line"/>
      <point x="60" y="0" type="line"/>
      <point x="370" y="0" type="line"/>
      <point x="370" y="0"/>
      <point x="200" y="-50"/>
      <point x="200" y="-160" type="curve" smooth="yes"/>
      <point x="200" y="-220"/>
      <point x="250" y="-270"/>
      <point x="320" y="-270" type="curve" smooth="yes"/>
      <point x="420" y="-270" type="line"/>
      <point x="420" y="-150" type="line"/>
      <point x="360" y="-150" type="line" smooth="yes"/>
      <point x="350" y="-150"/>
      <point x="340" y="-140"/>
      <point x="340" y="-130" type="curve" smooth="yes"/>
      <point x="340" y="-80"/>
      <point x="440" y="0"/>
      <point x="440" y="0" type="curve"/>
      <point x="620" y="0" type="line"/>
      <point x="620" y="200" type="line"/>
      <point x="320" y="200" type="line"/>
    </contour>
  </outline>
</glyph>
<glyph name="eogonek" format="1">
  <advance width="610"/>
  <unicode hex="0119"/>
  <outline>
    <contour>
      <point x="310" y="545" type="curve" smooth="yes" name="hr00"/>
      <point x="155" y="545"/>
      <point x="30" y="420"/>
      <point x="30" y="265" type="curve" smooth="yes"/>
      <point x="30" y="110"/>
      <point x="150" y="-10"/>
      <point x="310" y="-15" type="curve"/>
      <point x="310" y="-15"/>
      <point x="180" y="-80"/>
      <point x="180" y="-160" type="curve" smooth="yes"/>
      <point x="180" y="-220"/>
      <point x="230" y="-270"/>
      <point x="300" y="-270" type="curve" smooth="yes"/>
      <point x="400" y="-270" type="line"/>
      <point x="400" y="-150" type="line"/>
      <point x="340" y="-150" type="line" smooth="yes"/>
      <point x="330" y="-150"/>
      <point x="320" y="-140"/>
      <point x="320" y="-130" type="curve" smooth="yes"/>
      <point x="320" y="-80"/>
      <point x="380" y="-20"/>
      <point x="420" y="0" type="curve" smooth="yes"/>
      <point x="480" y="30"/>
      <point x="535" y="65"/>
      <point x="535" y="65" type="curve"/>
      <point x="450" y="200" type="line"/>
      <point x="450" y="200"/>
      <point x="410" y="160"/>
      <point x="360" y="160" type="curve" smooth="yes"/>
      <point x="280" y="160"/>
      <point x="270" y="215"/>
      <point x="270" y="215" type="curve"/>
      <point x="590" y="215" type="line"/>
      <point x="590" y="265" type="line" smooth="yes"/>
      <point x="590" y="420"/>
      <point x="465" y="545"/>
    </contour>
    <contour>
      <point x="265" y="310" type="line"/>
      <point x="265" y="350"/>
      <point x="285" y="370"/>
      <point x="310" y="370" type="curve" smooth="yes"/>
      <point x="335" y="370"/>
      <point x="355" y="350"/>
      <point x="355" y="310" type="curve"/>
    </contour>
  </outline>
</glyph>
<glyph name="Gcommaaccent" format="1">
  <advance width="740"/>
  <unicode hex="0122"/>
  <outline>
    <contour>
      <point x="500" y="-80" type="line" name="hr00"/>
      <point x="310" y="-80" type="line"/>
      <point x="310" y="-260" type="line"/>
      <point x="390" y="-260" type="line"/>
      <point x="350" y="-380" type="line"/>
      <point x="430" y="-380" type="line"/>
      <point x="500" y="-230" type="line"/>
    </contour>
    <component base="G"/>
  </outline>
</glyph>
<glyph name="gcommaaccent" format="1">
  <advance width="670"/>
  <unicode hex="0123"/>
  <outline>
    <contour>
      <point x="240" y="600" type="line" name="hr00"/>
      <point x="430" y="600" type="line"/>
      <point x="430" y="780" type="line"/>
      <point x="350" y="780" type="line"/>
      <point x="390" y="900" type="line"/>
      <point x="310" y="900" type="line"/>
      <point x="240" y="750" type="line"/>
    </contour>
    <component base="g"/>
  </outline>
</glyph>
<glyph name="Iogonek" format="1">
  <advance width="380"/>
  <unicode hex="012E"/>
  <outline>
    <contour>
      <point x="320" y="700" type="line" name="hr00"/>
      <point x="60" y="700" type="line"/>
      <point x="60" y="0" type="line"/>
      <point x="250" y="0" type="line"/>
      <point x="250" y="0"/>
      <point x="80" y="-50"/>
      <point x="80" y="-160" type="curve" smooth="yes"/>
      <point x="80" y="-220"/>
      <point x="130" y="-270"/>
      <point x="200" y="-270" type="curve" smooth="yes"/>
      <point x="300" y="-270" type="line"/>
      <point x="300" y="-150" type="line"/>
      <point x="240" y="-150" type="line" smooth="yes"/>
      <point x="230" y="-150"/>
      <point x="220" y="-140"/>
      <point x="220" y="-130" type="curve" smooth="yes"/>
      <point x="220" y="-80"/>
      <point x="320" y="0"/>
      <point x="320" y="0" type="curve"/>
    </contour>
  </outline>
</glyph>
<glyph name="iogonek" format="1">
  <advance width="340"/>
  <unicode hex="012F"/>
  <outline>
    <contour>
      <point x="50" y="530" type="line" name="hr00"/>
      <point x="50" y="0" type="line"/>
      <point x="220" y="0" type="line"/>
      <point x="220" y="0"/>
      <point x="50" y="-50"/>
      <point x="50" y="-160" type="curve" smooth="yes"/>
      <point x="50" y="-220"/>
      <point x="100" y="-270"/>
      <point x="170" y="-270" type="curve" smooth="yes"/>
      <point x="270" y="-270" type="line"/>
      <point x="270" y="-150" type="line"/>
      <point x="210" y="-150" type="line" smooth="yes"/>
      <point x="200" y="-150"/>
      <point x="190" y="-140"/>
      <point x="190" y="-130" type="curve" smooth="yes"/>
      <point x="190" y="-80"/>
      <point x="290" y="0"/>
      <point x="290" y="0" type="curve"/>
      <point x="290" y="530" type="line"/>
    </contour>
    <contour>
      <point x="50" y="590" type="line"/>
      <point x="290" y="590" type="line"/>
      <point x="290" y="780" type="line"/>
      <point x="50" y="780" type="line"/>
    </contour>
  </outline>
</glyph>
<glyph name="dotlessi" format="1">
  <advance width="340"/>
  <unicode hex="0131"/>
  <outline>
    <contour>
      <point x="50" y="530" type="line" name="hr00"/>
      <point x="50" y="0" type="line"/>
      <point x="290" y="0" type="line"/>
      <point x="290" y="530" type="line"/>
    </contour>
  </outline>
</glyph>
<glyph name="Lslash" format="1">
  <advance width="640"/>
  <unicode hex="0141"/>
  <outline>
    <contour>
      <point x="0" y="240" type="line" name="hr00"/>
      <point x="90" y="275" type="line"/>
      <point x="90" y="0" type="line"/>
      <point x="620" y="0" type="line"/>
      <point x="620" y="230" type="line"/>
      <point x="350" y="230" type="line"/>
      <point x="350" y="385" type="line"/>
      <point x="440" y="420" type="line"/>
      <point x="440" y="580" type="line"/>
      <point x="350" y="545" type="line"/>
      <point x="350" y="700" type="line"/>
      <point x="90" y="700" type="line"/>
      <point x="90" y="435" type="line"/>
      <point x="0" y="400" type="line"/>
    </contour>
  </outline>
</glyph>
<glyph name="lslash" format="1">
  <advance width="420"/>
  <unicode hex="0142"/>
  <outline>
    <contour>
      <point x="0" y="240" type="line" name="hr00"/>
      <point x="90" y="280" type="line"/>
      <point x="90" y="0" type="line"/>
      <point x="330" y="0" type="line"/>
      <point x="330" y="380" type="line"/>
      <point x="420" y="420" type="line"/>
      <point x="420" y="580" type="line"/>
      <point x="330" y="540" type="line"/>
      <point x="330" y="740" type="line"/>
      <point x="90" y="740" type="line"/>
      <point x="90" y="440" type="line"/>
      <point x="0" y="400" type="line"/>
    </contour>
  </outline>
</glyph>
<glyph name="OE" format="1">
  <advance width="1060"/>
  <unicode hex="0152"/>
  <outline>
    <contour>
      <point x="40" y="350" type="curve" smooth="yes" name="hr00"/>
      <point x="40" y="145"/>
      <point x="174" y="0"/>
      <point x="440" y="0" type="curve" smooth="yes"/>
      <point x="1030" y="0" type="line"/>
      <point x="1030" y="200" type="line"/>
      <point x="730" y="200" type="line"/>
      <point x="730" y="250" type="line"/>
      <point x="990" y="250" type="line"/>
      <point x="990" y="450" type="line"/>
      <point x="730" y="450" type="line"/>
      <point x="730" y="500" type="line"/>
      <point x="1010" y="500" type="line"/>
      <point x="1010" y="700" type="line"/>
      <point x="440" y="700" type="line" smooth="yes"/>
      <point x="174" y="700"/>
      <point x="40" y="555"/>
    </contour>
    <contour>
      <point x="440" y="210" type="line" smooth="yes"/>
      <point x="365" y="210"/>
      <point x="320" y="255"/>
      <point x="320" y="350" type="curve" smooth="yes"/>
      <point x="320" y="445"/>
      <point x="365" y="490"/>
      <point x="440" y="490" type="curve" smooth="yes"/>
      <point x="470" y="490" type="line"/>
      <point x="470" y="210" type="line"/>
    </contour>
  </outline>
</glyph>
<glyph name="oe" format="1">
  <advance width="980"/>
  <unicode hex="0153"/>
  <outline>
    <contour>
      <point x="680" y="545" type="curve" smooth="yes" name="hr00"/>
      <point x="580" y="545"/>
      <point x="520" y="480"/>
      <point x="520" y="480" type="curve"/>
      <point x="520" y="480"/>
      <point x="460" y="545"/>
      <point x="335" y="545" type="curve" smooth="yes"/>
      <point x="155" y="545"/>
      <point x="30" y="420"/>
      <point x="30" y="265" type="curve" smooth="yes"/>
      <point x="30" y="110"/>
      <point x="155" y="-15"/>
      <point x="335" y="-15" type="curve" smooth="yes"/>
      <point x="460" y="-15"/>
      <point x="520" y="50"/>
      <point x="520" y="50" type="curve"/>
      <point x="520" y="50"/>
      <point x="580" y="-15"/>
      <point x="695" y="-15" type="curve" smooth="yes"/>
      <point x="830" y="-15"/>
      <point x="905" y="65"/>
      <point x="905" y="65" type="curve"/>
      <point x="820" y="200" type="line"/>
      <point x="820" y="200"/>
      <point x="780" y="160"/>
      <point x="730" y="160" type="curve" smooth="yes"/>
      <point x="650" y="160"/>
      <point x="640" y="215"/>
      <point x="640" y="215" type="curve"/>
      <point x="960" y="215" type="line"/>
      <point x="960" y="265" type="line" smooth="yes"/>
      <point x="960" y="420"/>
      <point x="835" y="545"/>
    </contour>
    <contour>
      <point x="400" y="265" type="curve" smooth="yes"/>
      <point x="400" y="220"/>
      <point x="370" y="190"/>
      <point x="335" y="190" type="curve" smooth="yes"/>
      <point x="300" y="190"/>
      <point x="270" y="220"/>
      <point x="270" y="265" type="curve" smooth="yes"/>
      <point x="270" y="310"/>
      <point x="300" y="340"/>
      <point x="335" y="340" type="curve" smooth="yes"/>
      <point x="370" y="340"/>
      <point x="400" y="310"/>
    </contour>
    <contour>
      <point x="635" y="318" type="curve"/>
      <point x="637" y="352"/>
      <point x="656" y="370"/>
      <point x="680" y="370" type="curve" smooth="yes"/>
      <point x="705" y="370"/>
      <point x="725" y="350"/>
      <point x="725" y="310" type="curve"/>
      <point x="636" y="310" type="line"/>
      <point x="636" y="312"/>
      <point x="635" y="315"/>
    </contour>
  </outline>
</glyph>
<glyph name="Scedilla" format="1">
  <advance width="625"/>
  <unicode hex="015E"/>
  <outline>
    <contour>
      <point x="275" y="190" type="curve" smooth="yes" name="hr00"/>
      <point x="175" y="190"/>
      <point x="105" y="255"/>
      <point x="105" y="255" type="curve"/>
      <point x="10" y="105" type="line"/>
      <point x="10" y="105"/>
      <point x="90" y="0"/>
      <point x="280" y="-10" type="curve"/>
      <point x="225" y="-150" type="line"/>
      <point x="285" y="-150" type="line" smooth="yes"/>
      <point x="300" y="-150"/>
      <point x="315" y="-165"/>
      <point x="315" y="-180" type="curve" smooth="yes"/>
      <point x="315" y="-195"/>
      <point x="300" y="-210"/>
      <point x="285" y="-210" type="curve" smooth="yes"/>
      <point x="215" y="-210" type="line"/>
      <point x="215" y="-310" type="line"/>
      <point x="305" y="-310" type="line" smooth="yes"/>
      <point x="390" y="-310"/>
      <point x="445" y="-255"/>
      <point x="445" y="-180" type="curve" smooth="yes"/>
      <point x="445" y="-115"/>
      <point x="390" y="-60"/>
      <point x="325" y="-60" type="curve"/>
      <point x="345" y="-15" type="line"/>
      <point x="500" y="-5"/>
      <point x="605" y="100"/>
      <point x="605" y="210" type="curve" smooth="yes"/>
      <point x="605" y="430"/>
      <point x="335" y="430"/>
      <point x="335" y="480" type="curve" smooth="yes"/>
      <point x="335" y="495"/>
      <point x="350" y="510"/>
      <point x="375" y="510" type="curve" smooth="yes"/>
      <point x="445" y="510"/>
      <point x="505" y="455"/>
      <point x="505" y="455" type="curve"/>
      <point x="600" y="605" type="line"/>
      <point x="600" y="605"/>
      <point x="510" y="715"/>
      <point x="330" y="715" type="curve" smooth="yes"/>
      <point x="155" y="715"/>
      <point x="45" y="605"/>
      <point x="45" y="490" type="curve" smooth="yes"/>
      <point x="45" y="270"/>
      <point x="315" y="270"/>
      <point x="315" y="220" type="curve" smooth="yes"/>
      <point x="315" y="205"/>
      <point x="300" y="190"/>
    </contour>
  </outline>
</glyph>
<glyph name="scedilla" format="1">
  <advance width="515"/>
  <unicode hex="015F"/>
  <outline>
    <contour>
      <point x="495" y="160" type="curve" smooth="yes" name="hr00"/>
      <point x="495" y="320"/>
      <point x="300" y="330"/>
      <point x="300" y="360" type="curve" smooth="yes"/>
      <point x="300" y="370"/>
      <point x="310" y="380"/>
      <point x="325" y="380" type="curve" smooth="yes"/>
      <point x="380" y="380"/>
      <point x="420" y="340"/>
      <point x="420" y="340" type="curve"/>
      <point x="495" y="460" type="line"/>
      <point x="495" y="460"/>
      <point x="410" y="545"/>
      <point x="275" y="545" type="curve" smooth="yes"/>
      <point x="120" y="545"/>
      <point x="40" y="465"/>
      <point x="40" y="370" type="curve" smooth="yes"/>
      <point x="40" y="210"/>
      <point x="235" y="200"/>
      <point x="235" y="170" type="curve" smooth="yes"/>
      <point x="235" y="160"/>
      <point x="225" y="150"/>
      <point x="210" y="150" type="curve" smooth="yes"/>
      <point x="135" y="150"/>
      <point x="85" y="200"/>
      <point x="85" y="200" type="curve"/>
      <point x="10" y="80" type="line"/>
      <point x="10" y="80"/>
      <point x="80" y="0"/>
      <point x="225" y="-15" type="curve"/>
      <point x="170" y="-150" type="line"/>
      <point x="230" y="-150" type="line" smooth="yes"/>
      <point x="245" y="-150"/>
      <point x="260" y="-165"/>
      <point x="260" y="-180" type="curve" smooth="yes"/>
      <point x="260" y="-195"/>
      <point x="245" y="-210"/>
      <point x="230" y="-210" type="curve" smooth="yes"/>
      <point x="160" y="-210" type="line"/>
      <point x="160" y="-310" type="line"/>
      <point x="250" y="-310" type="line" smooth="yes"/>
      <point x="335" y="-310"/>
      <point x="390" y="-255"/>
      <point x="390" y="-180" type="curve" smooth="yes"/>
      <point x="390" y="-115"/>
      <point x="335" y="-60"/>
      <point x="270" y="-60" type="curve"/>
      <point x="290" y="-15" type="line"/>
      <point x="425" y="-5"/>
      <point x="495" y="71"/>
    </contour>
  </outline>
</glyph>
<glyph name="Uogonek" format="1">
  <advance width="800"/>
  <unicode hex="0172"/>
  <outline>
    <contour>
      <point x="400" y="235" type="curve" smooth="yes" name="hr00"/>
      <point x="355" y="235"/>
      <point x="320" y="270"/>
      <point x="320" y="325" type="curve" smooth="yes"/>
      <point x="320" y="700" type="line"/>
      <point x="60" y="700" type="line"/>
      <point x="60" y="325" type="line" smooth="yes"/>
      <point x="60" y="126"/>
      <point x="198" y="-13"/>
      <point x="395" y="-15" type="curve"/>
      <point x="395" y="-15"/>
      <point x="265" y="-60"/>
      <point x="265" y="-160" type="curve" smooth="yes"/>
      <point x="265" y="-220"/>
      <point x="315" y="-270"/>
      <point x="385" y="-270" type="curve" smooth="yes"/>
      <point x="485" y="-270" type="line"/>
      <point x="485" y="-150" type="line"/>
      <point x="425" y="-150" type="line" smooth="yes"/>
      <point x="415" y="-150"/>
      <point x="405" y="-140"/>
      <point x="405" y="-130" type="curve" smooth="yes"/>
      <point x="405" y="-80"/>
      <point x="480" y="-10"/>
      <point x="500" y="0" type="curve"/>
      <point x="640" y="40"/>
      <point x="740" y="161"/>
      <point x="740" y="325" type="curve" smooth="yes"/>
      <point x="740" y="700" type="line"/>
      <point x="480" y="700" type="line"/>
      <point x="480" y="325" type="line" smooth="yes"/>
      <point x="480" y="270"/>
      <point x="445" y="235"/>
    </contour>
  </outline>
</glyph>
<glyph name="uogonek" format="1">
  <advance width="660"/>
  <unicode hex="0173"/>
  <outline>
    <contour>
      <point x="230" y="-15" type="curve" smooth="yes" name="hr00"/>
      <point x="320" y="-15"/>
      <point x="360" y="60"/>
      <point x="360" y="60" type="curve"/>
      <point x="380" y="0" type="line"/>
      <point x="540" y="0" type="line"/>
      <point x="540" y="0"/>
      <point x="370" y="-50"/>
      <point x="370" y="-160" type="curve" smooth="yes"/>
      <point x="370" y="-220"/>
      <point x="420" y="-270"/>
      <point x="490" y="-270" type="curve" smooth="yes"/>
      <point x="590" y="-270" type="line"/>
      <point x="590" y="-150" type="line"/>
      <point x="530" y="-150" type="line" smooth="yes"/>
      <point x="520" y="-150"/>
      <point x="510" y="-140"/>
      <point x="510" y="-130" type="curve" smooth="yes"/>
      <point x="510" y="-80"/>
      <point x="610" y="0"/>
      <point x="610" y="0" type="curve"/>
      <point x="610" y="530" type="line"/>
      <point x="370" y="530" type="line"/>
      <point x="370" y="250" type="line" smooth="yes"/>
      <point x="370" y="210"/>
      <point x="350" y="190"/>
      <point x="330" y="190" type="curve" smooth="yes"/>
      <point x="310" y="190"/>
      <point x="290" y="210"/>
      <point x="290" y="250" type="curve" smooth="yes"/>
      <point x="290" y="530" type="line"/>
      <point x="50" y="530" type="line"/>
      <point x="50" y="250" type="line" smooth="yes"/>
      <point x="50" y="65"/>
      <point x="130" y="-15"/>
    </contour>
  </outline>
</glyph>
<glyph name="florin" format="1">
  <advance width="470"/>
  <unicode hex="0192"/>
  <outline>
    <contour>
      <point x="110" y="-25" type="line" smooth="yes" name="hr00"/>
      <point x="110" y="-65"/>
      <point x="90" y="-85"/>
      <point x="60" y="-85" type="curve" smooth="yes"/>
      <point x="40" y="-85"/>
      <point x="20" y="-80"/>
      <point x="20" y="-80" type="curve"/>
      <point x="20" y="-280" type="line"/>
      <point x="20" y="-280"/>
      <point x="60" y="-290"/>
      <point x="110" y="-290" type="curve" smooth="yes"/>
      <point x="260" y="-290"/>
      <point x="350" y="-200"/>
      <point x="350" y="-25" type="curve" smooth="yes"/>
      <point x="350" y="300" type="line"/>
      <point x="440" y="300" type="line"/>
      <point x="440" y="500" type="line"/>
      <point x="350" y="500" type="line"/>
      <point x="350" y="515" type="line" smooth="yes"/>
      <point x="350" y="555"/>
      <point x="370" y="575"/>
      <point x="400" y="575" type="curve" smooth="yes"/>
      <point x="420" y="575"/>
      <point x="440" y="570"/>
      <point x="440" y="570" type="curve"/>
      <point x="440" y="770" type="line"/>
      <point x="440" y="770"/>
      <point x="400" y="780"/>
      <point x="350" y="780" type="curve" smooth="yes"/>
      <point x="200" y="780"/>
      <point x="110" y="690"/>
      <point x="110" y="515" type="curve" smooth="yes"/>
      <point x="110" y="500" type="line"/>
      <point x="40" y="500" type="line"/>
      <point x="40" y="300" type="line"/>
      <point x="110" y="300" type="line"/>
    </contour>
  </outline>
</glyph>
<glyph name="afii57929" format="1">
  <advance width="250"/>
  <unicode hex="02BC"/>
  <outline>
    <contour>
      <point x="220" y="700" type="line" name="hr00"/>
      <point x="30" y="700" type="line"/>
      <point x="30" y="520" type="line"/>
      <point x="110" y="520" type="line"/>
      <point x="70" y="400" type="line"/>
      <point x="150" y="400" type="line"/>
      <point x="220" y="550" type="line"/>
    </contour>
  </outline>
</glyph>
<glyph name="circumflex" format="1">
  <advance width="460"/>
  <unicode hex="02C6"/>
  <outline>
    <contour>
      <point x="310" y="700" type="line" name="hr00"/>
      <point x="150" y="700" type="line"/>
      <point x="30" y="530" type="line"/>
      <point x="180" y="530" type="line"/>
      <point x="230" y="610" type="line"/>
      <point x="280" y="530" type="line"/>
      <point x="430" y="530" type="line"/>
    </contour>
  </outline>
</glyph>
<glyph name="caron" format="1">
  <advance width="460"/>
  <unicode hex="02C7"/>
  <outline>
    <contour>
      <point x="430" y="700" type="line" name="hr00"/>
      <point x="280" y="700" type="line"/>
      <point x="230" y="620" type="line"/>
      <point x="180" y="700" type="line"/>
      <point x="30" y="700" type="line"/>
      <point x="150" y="530" type="line"/>
      <point x="310" y="530" type="line"/>
    </contour>
  </outline>
</glyph>
<glyph name="breve" format="1">
  <advance width="440"/>
  <unicode hex="02D8"/>
  <outline>
    <contour>
      <point x="220" y="660" type="curve" smooth="yes" name="hr00"/>
      <point x="195" y="660"/>
      <point x="180" y="675"/>
      <point x="180" y="700" type="curve"/>
      <point x="30" y="700" type="line"/>
      <point x="30" y="585"/>
      <point x="105" y="510"/>
      <point x="220" y="510" type="curve" smooth="yes"/>
      <point x="335" y="510"/>
      <point x="410" y="585"/>
      <point x="410" y="700" type="curve"/>
      <point x="260" y="700" type="line"/>
      <point x="260" y="675"/>
      <point x="245" y="660"/>
    </contour>
  </outline>
</glyph>
<glyph name="dotaccent" format="1">
  <advance width="260"/>
  <unicode hex="02D9"/>
  <outline>
    <contour>
      <point x="30" y="600" type="curve" name="hr00"/>
      <point x="30" y="545"/>
      <point x="75" y="500"/>
      <point x="130" y="500" type="curve"/>
      <point x="185" y="500"/>
      <point x="230" y="545"/>
      <point x="230" y="600" type="curve"/>
      <point x="230" y="655"/>
      <point x="185" y="700"/>
      <point x="130" y="700" type="curve" smooth="yes"/>
      <point x="75" y="700"/>
      <point x="30" y="655"/>
    </contour>
  </outline>
</glyph>
<glyph name="ring" format="1">
  <advance width="320"/>
  <unicode hex="02DA"/>
  <outline>
    <contour>
      <point x="30" y="570" type="curve" name="hr00"/>
      <point x="30" y="495"/>
      <point x="85" y="440"/>
      <point x="160" y="440" type="curve"/>
      <point x="235" y="440"/>
      <point x="290" y="495"/>
      <point x="290" y="570" type="curve"/>
      <point x="290" y="645"/>
      <point x="235" y="700"/>
      <point x="160" y="700" type="curve" smooth="yes"/>
      <point x="85" y="700"/>
      <point x="30" y="645"/>
    </contour>
    <contour>
      <point x="120" y="570" type="curve"/>
      <point x="120" y="590"/>
      <point x="140" y="610"/>
      <point x="160" y="610" type="curve" smooth="yes"/>
      <point x="180" y="610"/>
      <point x="200" y="590"/>
      <point x="200" y="570" type="curve"/>
      <point x="200" y="550"/>
      <point x="180" y="530"/>
      <point x="160" y="530" type="curve"/>
      <point x="140" y="530"/>
      <point x="120" y="550"/>
    </contour>
  </outline>
</glyph>
<glyph name="ogonek" format="1">
  <advance width="300"/>
  <unicode hex="02DB"/>
  <outline>
    <contour>
      <point x="270" y="0" type="curve" name="hr00"/>
      <point x="200" y="0" type="line"/>
      <point x="200" y="0"/>
      <point x="30" y="-50"/>
      <point x="30" y="-160" type="curve" smooth="yes"/>
      <point x="30" y="-220"/>
      <point x="80" y="-270"/>
      <point x="150" y="-270" type="curve" smooth="yes"/>
      <point x="250" y="-270" type="line"/>
      <point x="250" y="-150" type="line"/>
      <point x="190" y="-150" type="line" smooth="yes"/>
      <point x="180" y="-150"/>
      <point x="170" y="-140"/>
      <point x="170" y="-130" type="curve"/>
      <point x="170" y="-80"/>
    </contour>
  </outline>
</glyph>
<glyph name="tilde" format="1">
  <advance width="380"/>
  <unicode hex="02DC"/>
  <outline>
    <contour>
      <point x="260" y="520" type="curve" name="hr00"/>
      <point x="310" y="520"/>
      <point x="350" y="560"/>
      <point x="350" y="620" type="curve"/>
      <point x="350" y="690" type="line"/>
      <point x="260" y="690" type="line"/>
      <point x="260" y="665"/>
      <point x="245" y="650"/>
      <point x="230" y="650" type="curve" smooth="yes"/>
      <point x="205" y="650"/>
      <point x="180" y="700"/>
      <point x="120" y="700" type="curve"/>
      <point x="70" y="700"/>
      <point x="30" y="660"/>
      <point x="30" y="600" type="curve"/>
      <point x="30" y="530" type="line"/>
      <point x="120" y="530" type="line"/>
      <point x="120" y="555"/>
      <point x="135" y="570"/>
      <point x="150" y="570" type="curve" smooth="yes"/>
      <point x="175" y="570"/>
      <point x="200" y="520"/>
    </contour>
  </outline>
</glyph>
<glyph name="hungarumlaut" format="1">
  <advance width="520"/>
  <unicode hex="02DD"/>
  <outline>
    <contour>
      <point x="30" y="490" type="line" name="hr00"/>
      <point x="140" y="490" type="line"/>
      <point x="280" y="700" type="line"/>
      <point x="120" y="700" type="line"/>
    </contour>
    <contour>
      <point x="240" y="490" type="line"/>
      <point x="350" y="490" type="line"/>
      <point x="490" y="700" type="line"/>
      <point x="330" y="700" type="line"/>
    </contour>
  </outline>
</glyph>
<glyph name="afii10023" format="1">
  <advance width="650"/>
  <unicode hex="0401"/>
  <outline>
    <contour>
      <point x="320" y="250" type="line" name="hr00"/>
      <point x="580" y="250" type="line"/>
      <point x="580" y="450" type="line"/>
      <point x="320" y="450" type="line"/>
      <point x="320" y="500" type="line"/>
      <point x="600" y="500" type="line"/>
      <point x="600" y="700" type="line"/>
      <point x="60" y="700" type="line"/>
      <point x="60" y="0" type="line"/>
      <point x="620" y="0" type="line"/>
      <point x="620" y="200" type="line"/>
      <point x="320" y="200" type="line"/>
    </contour>
    <contour>
      <point x="530" y="850" type="curve" smooth="yes"/>
      <point x="530" y="900"/>
      <point x="490" y="940"/>
      <point x="440" y="940" type="curve" smooth="yes"/>
      <point x="390" y="940"/>
      <point x="350" y="900"/>
      <point x="350" y="850" type="curve" smooth="yes"/>
      <point x="350" y="800"/>
      <point x="390" y="760"/>
      <point x="440" y="760" type="curve" smooth="yes"/>
      <point x="490" y="760"/>
      <point x="530" y="800"/>
    </contour>
    <contour>
      <point x="310" y="850" type="curve" smooth="yes"/>
      <point x="310" y="900"/>
      <point x="270" y="940"/>
      <point x="220" y="940" type="curve" smooth="yes"/>
      <point x="170" y="940"/>
      <point x="130" y="900"/>
      <point x="130" y="850" type="curve" smooth="yes"/>
      <point x="130" y="800"/>
      <point x="170" y="760"/>
      <point x="220" y="760" type="curve" smooth="yes"/>
      <point x="270" y="760"/>
      <point x="310" y="800"/>
    </contour>
  </outline>
</glyph>
<glyph name="afii10051" format="1">
  <advance width="800"/>
  <unicode hex="0402"/>
  <outline>
    <contour>
      <point x="770" y="185" type="curve" smooth="yes" name="hr00"/>
      <point x="770" y="350"/>
      <point x="690" y="430"/>
      <point x="570" y="430" type="curve" smooth="yes"/>
      <point x="470" y="430"/>
      <point x="420" y="350"/>
      <point x="420" y="350" type="curve"/>
      <point x="420" y="470" type="line"/>
      <point x="580" y="470" type="line"/>
      <point x="580" y="700" type="line"/>
      <point x="0" y="700" type="line"/>
      <point x="0" y="470" type="line"/>
      <point x="160" y="470" type="line"/>
      <point x="160" y="0" type="line"/>
      <point x="420" y="0" type="line"/>
      <point x="420" y="180" type="line" smooth="yes"/>
      <point x="420" y="210"/>
      <point x="440" y="230"/>
      <point x="465" y="230" type="curve" smooth="yes"/>
      <point x="490" y="230"/>
      <point x="510" y="210"/>
      <point x="510" y="185" type="curve" smooth="yes"/>
      <point x="510" y="156"/>
      <point x="490" y="135"/>
      <point x="460" y="135" type="curve" smooth="yes"/>
      <point x="450" y="135" type="line"/>
      <point x="450" y="-40" type="line"/>
      <point x="450" y="-40"/>
      <point x="490" y="-50"/>
      <point x="530" y="-50" type="curve" smooth="yes"/>
      <point x="680" y="-50"/>
      <point x="770" y="40"/>
    </contour>
  </outline>
</glyph>
<glyph name="afii10053" format="1">
  <advance width="710"/>
  <unicode hex="0404"/>
  <outline>
    <contour>
      <point x="410" y="715" type="curve" smooth="yes" name="hr00"/>
      <point x="200" y="715"/>
      <point x="40" y="555"/>
      <point x="40" y="350" type="curve" smooth="yes"/>
      <point x="40" y="145"/>
      <point x="200" y="-15"/>
      <point x="410" y="-15" type="curve" smooth="yes"/>
      <point x="600" y="-15"/>
      <point x="690" y="95"/>
      <point x="690" y="95" type="curve"/>
      <point x="580" y="265" type="line"/>
      <point x="580" y="265"/>
      <point x="520" y="210"/>
      <point x="450" y="210" type="curve" smooth="yes"/>
      <point x="360" y="210"/>
      <point x="335" y="270"/>
      <point x="335" y="270" type="curve"/>
      <point x="500" y="270" type="line"/>
      <point x="500" y="430" type="line"/>
      <point x="335" y="430" type="line"/>
      <point x="335" y="430"/>
      <point x="360" y="490"/>
      <point x="450" y="490" type="curve" smooth="yes"/>
      <point x="520" y="490"/>
      <point x="580" y="435"/>
      <point x="580" y="435" type="curve"/>
      <point x="690" y="605" type="line"/>
      <point x="690" y="605"/>
      <point x="600" y="715"/>
    </contour>
  </outline>
</glyph>
<glyph name="afii10054" format="1">
  <advance width="625"/>
  <unicode hex="0405"/>
  <outline>
    <contour>
      <point x="275" y="190" type="curve" smooth="yes" name="hr00"/>
      <point x="175" y="190"/>
      <point x="105" y="255"/>
      <point x="105" y="255" type="curve"/>
      <point x="10" y="105" type="line"/>
      <point x="10" y="105"/>
      <point x="100" y="-15"/>
      <point x="320" y="-15" type="curve" smooth="yes"/>
      <point x="495" y="-15"/>
      <point x="605" y="95"/>
      <point x="605" y="210" type="curve" smooth="yes"/>
      <point x="605" y="430"/>
      <point x="335" y="430"/>
      <point x="335" y="480" type="curve" smooth="yes"/>
      <point x="335" y="495"/>
      <point x="350" y="510"/>
      <point x="375" y="510" type="curve" smooth="yes"/>
      <point x="445" y="510"/>
      <point x="505" y="455"/>
      <point x="505" y="455" type="curve"/>
      <point x="600" y="605" type="line"/>
      <point x="600" y="605"/>
      <point x="510" y="715"/>
      <point x="330" y="715" type="curve" smooth="yes"/>
      <point x="155" y="715"/>
      <point x="45" y="605"/>
      <point x="45" y="490" type="curve" smooth="yes"/>
      <point x="45" y="270"/>
      <point x="315" y="270"/>
      <point x="315" y="220" type="curve" smooth="yes"/>
      <point x="315" y="205"/>
      <point x="300" y="190"/>
    </contour>
  </outline>
</glyph>
<glyph name="afii10055" format="1">
  <advance width="380"/>
  <unicode hex="0406"/>
  <outline>
    <contour>
      <point x="320" y="700" type="line" name="hr00"/>
      <point x="60" y="700" type="line"/>
      <point x="60" y="0" type="line"/>
      <point x="320" y="0" type="line"/>
    </contour>
  </outline>
</glyph>
<glyph name="afii10058" format="1">
  <advance width="1130"/>
  <unicode hex="0409"/>
  <outline>
    <contour>
      <point x="780" y="-10" type="curve" smooth="yes" name="hr00"/>
      <point x="1000" y="-10"/>
      <point x="1100" y="90"/>
      <point x="1100" y="245" type="curve" smooth="yes"/>
      <point x="1100" y="400"/>
      <point x="1000" y="500"/>
      <point x="830" y="500" type="curve" smooth="yes"/>
      <point x="790" y="500"/>
      <point x="740" y="495"/>
      <point x="740" y="495" type="curve"/>
      <point x="740" y="700" type="line"/>
      <point x="150" y="700" type="line"/>
      <point x="150" y="250"/>
      <point x="90" y="190"/>
      <point x="20" y="190" type="curve" smooth="yes"/>
      <point x="0" y="190" type="line"/>
      <point x="0" y="0" type="line"/>
      <point x="0" y="0"/>
      <point x="50" y="-15"/>
      <point x="100" y="-15" type="curve" smooth="yes"/>
      <point x="260" y="-15"/>
      <point x="390" y="115"/>
      <point x="390" y="490" type="curve"/>
      <point x="480" y="490" type="line"/>
      <point x="480" y="0" type="line"/>
      <point x="480" y="0"/>
      <point x="620" y="-10"/>
    </contour>
    <contour>
      <point x="780" y="310" type="line" smooth="yes"/>
      <point x="815" y="310"/>
      <point x="840" y="285"/>
      <point x="840" y="245" type="curve" smooth="yes"/>
      <point x="840" y="205"/>
      <point x="815" y="180"/>
      <point x="780" y="180" type="curve" smooth="yes"/>
      <point x="740" y="180" type="line"/>
      <point x="740" y="310" type="line"/>
    </contour>
  </outline>
</glyph>
<glyph name="afii10059" format="1">
  <advance width="1130"/>
  <unicode hex="040A"/>
  <outline>
    <contour>
      <point x="780" y="-10" type="curve" smooth="yes" name="hr00"/>
      <point x="1000" y="-10"/>
      <point x="1100" y="90"/>
      <point x="1100" y="235" type="curve" smooth="yes"/>
      <point x="1100" y="380"/>
      <point x="1000" y="480"/>
      <point x="830" y="480" type="curve" smooth="yes"/>
      <point x="790" y="480"/>
      <point x="740" y="475"/>
      <point x="740" y="475" type="curve"/>
      <point x="740" y="700" type="line"/>
      <point x="480" y="700" type="line"/>
      <point x="480" y="470" type="line"/>
      <point x="320" y="470" type="line"/>
      <point x="320" y="700" type="line"/>
      <point x="60" y="700" type="line"/>
      <point x="60" y="0" type="line"/>
      <point x="320" y="0" type="line"/>
      <point x="320" y="260" type="line"/>
      <point x="480" y="260" type="line"/>
      <point x="480" y="0" type="line"/>
      <point x="480" y="0"/>
      <point x="620" y="-10"/>
    </contour>
    <contour>
      <point x="780" y="290" type="line" smooth="yes"/>
      <point x="815" y="290"/>
      <point x="840" y="265"/>
      <point x="840" y="235" type="curve" smooth="yes"/>
      <point x="840" y="205"/>
      <point x="815" y="180"/>
      <point x="780" y="180" type="curve" smooth="yes"/>
      <point x="740" y="180" type="line"/>
      <point x="740" y="290" type="line"/>
    </contour>
  </outline>
</glyph>
<glyph name="afii10060" format="1">
  <advance width="810"/>
  <unicode hex="040B"/>
  <outline>
    <contour>
      <point x="0" y="700" type="line" name="hr00"/>
      <point x="0" y="470" type="line"/>
      <point x="160" y="470" type="line"/>
      <point x="160" y="0" type="line"/>
      <point x="420" y="0" type="line"/>
      <point x="420" y="180" type="line" smooth="yes"/>
      <point x="420" y="210"/>
      <point x="440" y="230"/>
      <point x="465" y="230" type="curve" smooth="yes"/>
      <point x="490" y="230"/>
      <point x="510" y="210"/>
      <point x="510" y="180" type="curve" smooth="yes"/>
      <point x="510" y="0" type="line"/>
      <point x="770" y="0" type="line"/>
      <point x="770" y="180" type="line" smooth="yes"/>
      <point x="770" y="350"/>
      <point x="690" y="430"/>
      <point x="570" y="430" type="curve" smooth="yes"/>
      <point x="470" y="430"/>
      <point x="420" y="350"/>
      <point x="420" y="350" type="curve"/>
      <point x="420" y="470" type="line"/>
      <point x="580" y="470" type="line"/>
      <point x="580" y="700" type="line"/>
    </contour>
  </outline>
</glyph>
<glyph name="afii10145" format="1">
  <advance width="800"/>
  <unicode hex="040F"/>
  <outline>
    <contour>
      <point x="740" y="700" type="line" name="hr00"/>
      <point x="480" y="700" type="line"/>
      <point x="480" y="220" type="line"/>
      <point x="320" y="220" type="line"/>
      <point x="320" y="700" type="line"/>
      <point x="60" y="700" type="line"/>
      <point x="60" y="0" type="line"/>
      <point x="270" y="0" type="line"/>
      <point x="270" y="-130" type="line"/>
      <point x="530" y="-130" type="line"/>
      <point x="530" y="0" type="line"/>
      <point x="740" y="0" type="line"/>
    </contour>
  </outline>
</glyph>
<glyph name="afii10018" format="1">
  <advance width="720"/>
  <unicode hex="0411"/>
  <outline>
    <contour>
      <point x="320" y="510" type="line" name="hr00"/>
      <point x="610" y="510" type="line"/>
      <point x="610" y="700" type="line"/>
      <point x="60" y="700" type="line"/>
      <point x="60" y="0" type="line"/>
      <point x="60" y="0"/>
      <point x="210" y="-10"/>
      <point x="380" y="-10" type="curve" smooth="yes"/>
      <point x="600" y="-10"/>
      <point x="700" y="90"/>
      <point x="700" y="220" type="curve" smooth="yes"/>
      <point x="700" y="350"/>
      <point x="600" y="450"/>
      <point x="430" y="450" type="curve" smooth="yes"/>
      <point x="370" y="450"/>
      <point x="320" y="445"/>
      <point x="320" y="445" type="curve"/>
    </contour>
    <contour>
      <point x="380" y="270" type="line" smooth="yes"/>
      <point x="415" y="270"/>
      <point x="440" y="245"/>
      <point x="440" y="220" type="curve" smooth="yes"/>
      <point x="440" y="195"/>
      <point x="415" y="170"/>
      <point x="380" y="170" type="curve" smooth="yes"/>
      <point x="320" y="170" type="line"/>
      <point x="320" y="270" type="line"/>
    </contour>
  </outline>
</glyph>
<glyph name="afii10020" format="1">
  <advance width="600"/>
  <unicode hex="0413"/>
  <outline>
    <contour>
      <point x="320" y="470" type="line" name="hr00"/>
      <point x="590" y="470" type="line"/>
      <point x="590" y="700" type="line"/>
      <point x="60" y="700" type="line"/>
      <point x="60" y="0" type="line"/>
      <point x="320" y="0" type="line"/>
    </contour>
  </outline>
</glyph>
<glyph name="afii10021" format="1">
  <advance width="810"/>
  <unicode hex="0414"/>
  <outline>
    <contour>
      <point x="720" y="210" type="line" name="hr00"/>
      <point x="720" y="700" type="line"/>
      <point x="130" y="700" type="line"/>
      <point x="130" y="300"/>
      <point x="60" y="210"/>
      <point x="60" y="210" type="curve"/>
      <point x="0" y="210" type="line"/>
      <point x="0" y="-130" type="line"/>
      <point x="260" y="-130" type="line"/>
      <point x="260" y="0" type="line"/>
      <point x="540" y="0" type="line"/>
      <point x="540" y="-130" type="line"/>
      <point x="800" y="-130" type="line"/>
      <point x="800" y="210" type="line"/>
    </contour>
    <contour>
      <point x="320" y="210" type="line"/>
      <point x="320" y="210"/>
      <point x="360" y="300"/>
      <point x="360" y="490" type="curve"/>
      <point x="460" y="490" type="line"/>
      <point x="460" y="210" type="line"/>
    </contour>
  </outline>
</glyph>
<glyph name="afii10022" format="1">
  <advance width="650"/>
  <unicode hex="0415"/>
  <outline>
    <contour>
      <point x="320" y="250" type="line" name="hr00"/>
      <point x="580" y="250" type="line"/>
      <point x="580" y="450" type="line"/>
      <point x="320" y="450" type="line"/>
      <point x="320" y="500" type="line"/>
      <point x="600" y="500" type="line"/>
      <point x="600" y="700" type="line"/>
      <point x="60" y="700" type="line"/>
      <point x="60" y="0" type="line"/>
      <point x="620" y="0" type="line"/>
      <point x="620" y="200" type="line"/>
      <point x="320" y="200" type="line"/>
    </contour>
  </outline>
</glyph>
<glyph name="afii10024" format="1">
  <advance width="1120"/>
  <unicode hex="0416"/>
  <outline>
    <contour>
      <point x="1110" y="700" type="line" name="hr00"/>
      <point x="810" y="700" type="line"/>
      <point x="690" y="420" type="line"/>
      <point x="690" y="700" type="line"/>
      <point x="430" y="700" type="line"/>
      <point x="430" y="420" type="line"/>
      <point x="310" y="700" type="line"/>
      <point x="10" y="700" type="line"/>
      <point x="200" y="350" type="line"/>
      <point x="-10" y="0" type="line"/>
      <point x="290" y="0" type="line"/>
      <point x="430" y="280" type="line"/>
      <point x="430" y="0" type="line"/>
      <point x="690" y="0" type="line"/>
      <point x="690" y="280" type="line"/>
      <point x="830" y="0" type="line"/>
      <point x="1130" y="0" type="line"/>
      <point x="920" y="350" type="line"/>
    </contour>
  </outline>
</glyph>
<glyph name="afii10025" format="1">
  <advance width="635"/>
  <unicode hex="0417"/>
  <outline>
    <contour>
      <point x="465" y="370" type="line" name="hr00"/>
      <point x="465" y="370"/>
      <point x="595" y="395"/>
      <point x="595" y="515" type="curve" smooth="yes"/>
      <point x="595" y="615"/>
      <point x="495" y="715"/>
      <point x="310" y="715" type="curve" smooth="yes"/>
      <point x="130" y="715"/>
      <point x="40" y="605"/>
      <point x="40" y="605" type="curve"/>
      <point x="135" y="455" type="line"/>
      <point x="135" y="455"/>
      <point x="205" y="510"/>
      <point x="290" y="510" type="curve" smooth="yes"/>
      <point x="320" y="510"/>
      <point x="335" y="495"/>
      <point x="335" y="475" type="curve" smooth="yes"/>
      <point x="335" y="455"/>
      <point x="320" y="440"/>
      <point x="290" y="440" type="curve" smooth="yes"/>
      <point x="185" y="440" type="line"/>
      <point x="185" y="270" type="line"/>
      <point x="276" y="270" type="line" smooth="yes"/>
      <point x="305" y="270"/>
      <point x="325" y="250"/>
      <point x="325" y="230" type="curve" smooth="yes"/>
      <point x="325" y="210"/>
      <point x="305" y="190"/>
      <point x="275" y="190" type="curve" smooth="yes"/>
      <point x="175" y="190"/>
      <point x="105" y="255"/>
      <point x="105" y="255" type="curve"/>
      <point x="10" y="105" type="line"/>
      <point x="10" y="105"/>
      <point x="100" y="-15"/>
      <point x="320" y="-15" type="curve" smooth="yes"/>
      <point x="505" y="-15"/>
      <point x="605" y="85"/>
      <point x="605" y="190" type="curve" smooth="yes"/>
      <point x="605" y="340"/>
      <point x="465" y="365"/>
      <point x="465" y="365" type="curve"/>
    </contour>
  </outline>
</glyph>
<glyph name="afii10026" format="1">
  <advance width="820"/>
  <unicode hex="0418"/>
  <outline>
    <contour>
      <point x="320" y="360" type="line" name="hr00"/>
      <point x="320" y="700" type="line"/>
      <point x="60" y="700" type="line"/>
      <point x="60" y="0" type="line"/>
      <point x="340" y="0" type="line"/>
      <point x="500" y="340" type="line"/>
      <point x="500" y="0" type="line"/>
      <point x="760" y="0" type="line"/>
      <point x="760" y="700" type="line"/>
      <point x="480" y="700" type="line"/>
    </contour>
  </outline>
</glyph>
<glyph name="afii10027" format="1">
  <advance width="820"/>
  <unicode hex="0419"/>
  <outline>
    <contour>
      <point x="320" y="360" type="line" name="hr00"/>
      <point x="320" y="700" type="line"/>
      <point x="60" y="700" type="line"/>
      <point x="60" y="0" type="line"/>
      <point x="340" y="0" type="line"/>
      <point x="500" y="340" type="line"/>
      <point x="500" y="0" type="line"/>
      <point x="760" y="0" type="line"/>
      <point x="760" y="700" type="line"/>
      <point x="480" y="700" type="line"/>
    </contour>
    <contour>
      <point x="410" y="920" type="curve"/>
      <point x="380" y="920"/>
      <point x="360" y="940"/>
      <point x="360" y="970" type="curve"/>
      <point x="210" y="970" type="line"/>
      <point x="210" y="850"/>
      <point x="290" y="770"/>
      <point x="410" y="770" type="curve"/>
      <point x="530" y="770"/>
      <point x="610" y="850"/>
      <point x="610" y="970" type="curve"/>
      <point x="460" y="970" type="line"/>
      <point x="460" y="940"/>
      <point x="440" y="920"/>
    </contour>
  </outline>
</glyph>
<glyph name="afii10028" format="1">
  <advance width="750"/>
  <unicode hex="041A"/>
  <outline>
    <contour>
      <point x="740" y="700" type="line" name="hr00"/>
      <point x="440" y="700" type="line"/>
      <point x="320" y="420" type="line"/>
      <point x="320" y="700" type="line"/>
      <point x="60" y="700" type="line"/>
      <point x="60" y="0" type="line"/>
      <point x="320" y="0" type="line"/>
      <point x="320" y="280" type="line"/>
      <point x="460" y="0" type="line"/>
      <point x="760" y="0" type="line"/>
      <point x="550" y="350" type="line"/>
    </contour>
  </outline>
</glyph>
<glyph name="afii10029" format="1">
  <advance width="800"/>
  <unicode hex="041B"/>
  <outline>
    <contour>
      <point x="740" y="700" type="line" name="hr00"/>
      <point x="150" y="700" type="line"/>
      <point x="150" y="250"/>
      <point x="90" y="190"/>
      <point x="20" y="190" type="curve" smooth="yes"/>
      <point x="0" y="190"/>
      <point x="0" y="190"/>
      <point x="0" y="190" type="curve"/>
      <point x="0" y="0" type="line"/>
      <point x="0" y="0"/>
      <point x="50" y="-15"/>
      <point x="100" y="-15" type="curve" smooth="yes"/>
      <point x="260" y="-15"/>
      <point x="390" y="115"/>
      <point x="390" y="490" type="curve"/>
      <point x="480" y="490" type="line"/>
      <point x="480" y="0" type="line"/>
      <point x="740" y="0" type="line"/>
    </contour>
  </outline>
</glyph>
<glyph name="afii10031" format="1">
  <advance width="800"/>
  <unicode hex="041D"/>
  <outline>
    <contour>
      <point x="320" y="700" type="line" name="hr00"/>
      <point x="60" y="700" type="line"/>
      <point x="60" y="0" type="line"/>
      <point x="320" y="0" type="line"/>
      <point x="320" y="240" type="line"/>
      <point x="480" y="240" type="line"/>
      <point x="480" y="0" type="line"/>
      <point x="740" y="0" type="line"/>
      <point x="740" y="700" type="line"/>
      <point x="480" y="700" type="line"/>
      <point x="480" y="460" type="line"/>
      <point x="320" y="460" type="line"/>
    </contour>
  </outline>
</glyph>
<glyph name="afii10033" format="1">
  <advance width="800"/>
  <unicode hex="041F"/>
  <outline>
    <contour>
      <point x="60" y="700" type="line" name="hr00"/>
      <point x="60" y="0" type="line"/>
      <point x="320" y="0" type="line"/>
      <point x="320" y="480" type="line"/>
      <point x="480" y="480" type="line"/>
      <point x="480" y="0" type="line"/>
      <point x="740" y="0" type="line"/>
      <point x="740" y="700" type="line"/>
    </contour>
  </outline>
</glyph>
<glyph name="afii10034" format="1">
  <advance width="710"/>
  <unicode hex="0420"/>
  <outline>
    <contour>
      <point x="360" y="710" type="curve" smooth="yes" name="hr00"/>
      <point x="200" y="710"/>
      <point x="60" y="700"/>
      <point x="60" y="700" type="curve"/>
      <point x="60" y="0" type="line"/>
      <point x="320" y="0" type="line"/>
      <point x="320" y="225" type="line"/>
      <point x="320" y="225"/>
      <point x="370" y="220"/>
      <point x="410" y="220" type="curve" smooth="yes"/>
      <point x="580" y="220"/>
      <point x="680" y="320"/>
      <point x="680" y="465" type="curve" smooth="yes"/>
      <point x="680" y="610"/>
      <point x="580" y="710"/>
    </contour>
    <contour>
      <point x="320" y="410" type="line"/>
      <point x="320" y="520" type="line"/>
      <point x="360" y="520" type="line" smooth="yes"/>
      <point x="395" y="520"/>
      <point x="420" y="495"/>
      <point x="420" y="465" type="curve" smooth="yes"/>
      <point x="420" y="435"/>
      <point x="395" y="410"/>
      <point x="360" y="410" type="curve" smooth="yes"/>
    </contour>
  </outline>
</glyph>
<glyph name="afii10036" format="1">
  <advance width="680"/>
  <unicode hex="0422"/>
  <outline>
    <contour>
      <point x="20" y="700" type="line" name="hr00"/>
      <point x="20" y="470" type="line"/>
      <point x="210" y="470" type="line"/>
      <point x="210" y="0" type="line"/>
      <point x="470" y="0" type="line"/>
      <point x="470" y="470" type="line"/>
      <point x="660" y="470" type="line"/>
      <point x="660" y="700" type="line"/>
    </contour>
  </outline>
</glyph>
<glyph name="afii10037" format="1">
  <advance width="710"/>
  <unicode hex="0423"/>
  <outline>
    <contour>
      <point x="375" y="470" type="line" name="hr00"/>
      <point x="310" y="700" type="line"/>
      <point x="10" y="700" type="line"/>
      <point x="235" y="240" type="line"/>
      <point x="235" y="240"/>
      <point x="225" y="210"/>
      <point x="195" y="210" type="curve" smooth="yes"/>
      <point x="155" y="210"/>
      <point x="115" y="230"/>
      <point x="115" y="230" type="curve"/>
      <point x="55" y="40" type="line"/>
      <point x="55" y="40"/>
      <point x="125" y="-15"/>
      <point x="225" y="-15" type="curve" smooth="yes"/>
      <point x="350" y="-15"/>
      <point x="435" y="70"/>
      <point x="515" y="240" type="curve" smooth="yes"/>
      <point x="730" y="700" type="line"/>
      <point x="430" y="700" type="line"/>
    </contour>
  </outline>
</glyph>
<glyph name="afii10038" format="1">
  <advance width="1000"/>
  <unicode hex="0424"/>
  <outline>
    <contour>
      <point x="630" y="80" type="line" name="hr00"/>
      <point x="860" y="80"/>
      <point x="980" y="200"/>
      <point x="980" y="350" type="curve" smooth="yes"/>
      <point x="980" y="500"/>
      <point x="860" y="620"/>
      <point x="630" y="620" type="curve"/>
      <point x="630" y="700" type="line"/>
      <point x="370" y="700" type="line"/>
      <point x="370" y="620" type="line"/>
      <point x="140" y="620"/>
      <point x="20" y="500"/>
      <point x="20" y="350" type="curve" smooth="yes"/>
      <point x="20" y="200"/>
      <point x="140" y="80"/>
      <point x="370" y="80" type="curve"/>
      <point x="370" y="0" type="line"/>
      <point x="630" y="0" type="line"/>
    </contour>
    <contour>
      <point x="370" y="250" type="line"/>
      <point x="320" y="250"/>
      <point x="280" y="290"/>
      <point x="280" y="350" type="curve" smooth="yes"/>
      <point x="280" y="410"/>
      <point x="320" y="450"/>
      <point x="370" y="450" type="curve"/>
    </contour>
    <contour>
      <point x="630" y="450" type="line"/>
      <point x="680" y="450"/>
      <point x="720" y="410"/>
      <point x="720" y="350" type="curve" smooth="yes"/>
      <point x="720" y="290"/>
      <point x="680" y="250"/>
      <point x="630" y="250" type="curve"/>
    </contour>
  </outline>
</glyph>
<glyph name="afii10039" format="1">
  <advance width="740"/>
  <unicode hex="0425"/>
  <outline>
    <contour>
      <point x="190" y="350" type="line" name="hr00"/>
      <point x="-10" y="0" type="line"/>
      <point x="290" y="0" type="line"/>
      <point x="370" y="210" type="line"/>
      <point x="450" y="0" type="line"/>
      <point x="750" y="0" type="line"/>
      <point x="550" y="350" type="line"/>
      <point x="740" y="700" type="line"/>
      <point x="440" y="700" type="line"/>
      <point x="370" y="510" type="line"/>
      <point x="300" y="700" type="line"/>
      <point x="0" y="700" type="line"/>
    </contour>
  </outline>
</glyph>
<glyph name="afii10040" format="1">
  <advance width="820"/>
  <unicode hex="0426"/>
  <outline>
    <contour>
      <point x="730" y="220" type="line" name="hr00"/>
      <point x="730" y="700" type="line"/>
      <point x="470" y="700" type="line"/>
      <point x="470" y="220" type="line"/>
      <point x="320" y="220" type="line"/>
      <point x="320" y="700" type="line"/>
      <point x="60" y="700" type="line"/>
      <point x="60" y="0" type="line"/>
      <point x="550" y="0" type="line"/>
      <point x="550" y="-130" type="line"/>
      <point x="810" y="-130" type="line"/>
      <point x="810" y="220" type="line"/>
    </contour>
  </outline>
</glyph>
<glyph name="afii10041" format="1">
  <advance width="760"/>
  <unicode hex="0427"/>
  <outline>
    <contour>
      <point x="440" y="700" type="line" name="hr00"/>
      <point x="440" y="460" type="line" smooth="yes"/>
      <point x="440" y="420"/>
      <point x="410" y="390"/>
      <point x="375" y="390" type="curve" smooth="yes"/>
      <point x="340" y="390"/>
      <point x="310" y="420"/>
      <point x="310" y="460" type="curve" smooth="yes"/>
      <point x="310" y="700" type="line"/>
      <point x="50" y="700" type="line"/>
      <point x="50" y="460" type="line" smooth="yes"/>
      <point x="50" y="270"/>
      <point x="140" y="180"/>
      <point x="290" y="180" type="curve" smooth="yes"/>
      <point x="380" y="180"/>
      <point x="440" y="230"/>
      <point x="440" y="230" type="curve"/>
      <point x="440" y="0" type="line"/>
      <point x="700" y="0" type="line"/>
      <point x="700" y="700" type="line"/>
    </contour>
  </outline>
</glyph>
<glyph name="afii10042" format="1">
  <advance width="1110"/>
  <unicode hex="0428"/>
  <outline>
    <contour>
      <point x="1050" y="700" type="line" name="hr00"/>
      <point x="790" y="700" type="line"/>
      <point x="790" y="220" type="line"/>
      <point x="685" y="220" type="line"/>
      <point x="685" y="700" type="line"/>
      <point x="425" y="700" type="line"/>
      <point x="425" y="220" type="line"/>
      <point x="320" y="220" type="line"/>
      <point x="320" y="700" type="line"/>
      <point x="60" y="700" type="line"/>
      <point x="60" y="0" type="line"/>
      <point x="1050" y="0" type="line"/>
    </contour>
  </outline>
</glyph>
<glyph name="afii10043" format="1">
  <advance width="1140"/>
  <unicode hex="0429"/>
  <outline>
    <contour>
      <point x="1050" y="220" type="line" name="hr00"/>
      <point x="1050" y="700" type="line"/>
      <point x="790" y="700" type="line"/>
      <point x="790" y="220" type="line"/>
      <point x="685" y="220" type="line"/>
      <point x="685" y="700" type="line"/>
      <point x="425" y="700" type="line"/>
      <point x="425" y="220" type="line"/>
      <point x="320" y="220" type="line"/>
      <point x="320" y="700" type="line"/>
      <point x="60" y="700" type="line"/>
      <point x="60" y="0" type="line"/>
      <point x="870" y="0" type="line"/>
      <point x="870" y="-130" type="line"/>
      <point x="1130" y="-130" type="line"/>
      <point x="1130" y="220" type="line"/>
    </contour>
  </outline>
</glyph>
<glyph name="afii10044" format="1">
  <advance width="780"/>
  <unicode hex="042A"/>
  <outline>
    <contour>
      <point x="430" y="-10" type="curve" smooth="yes" name="hr00"/>
      <point x="650" y="-10"/>
      <point x="750" y="90"/>
      <point x="750" y="245" type="curve" smooth="yes"/>
      <point x="750" y="400"/>
      <point x="650" y="500"/>
      <point x="480" y="500" type="curve" smooth="yes"/>
      <point x="440" y="500"/>
      <point x="400" y="495"/>
      <point x="400" y="495" type="curve"/>
      <point x="400" y="700" type="line"/>
      <point x="10" y="700" type="line"/>
      <point x="10" y="470" type="line"/>
      <point x="140" y="470" type="line"/>
      <point x="140" y="0" type="line"/>
      <point x="140" y="0"/>
      <point x="270" y="-10"/>
    </contour>
    <contour>
      <point x="430" y="310" type="line" smooth="yes"/>
      <point x="465" y="310"/>
      <point x="490" y="285"/>
      <point x="490" y="245" type="curve" smooth="yes"/>
      <point x="490" y="205"/>
      <point x="465" y="180"/>
      <point x="430" y="180" type="curve" smooth="yes"/>
      <point x="400" y="180" type="line"/>
      <point x="400" y="310" type="line"/>
    </contour>
  </outline>
</glyph>
<glyph name="afii10046" format="1">
  <advance width="710"/>
  <unicode hex="042C"/>
  <outline>
    <contour>
      <point x="360" y="-10" type="curve" smooth="yes" name="hr00"/>
      <point x="580" y="-10"/>
      <point x="680" y="90"/>
      <point x="680" y="245" type="curve" smooth="yes"/>
      <point x="680" y="400"/>
      <point x="580" y="500"/>
      <point x="410" y="500" type="curve" smooth="yes"/>
      <point x="370" y="500"/>
      <point x="320" y="495"/>
      <point x="320" y="495" type="curve"/>
      <point x="320" y="700" type="line"/>
      <point x="60" y="700" type="line"/>
      <point x="60" y="0" type="line"/>
      <point x="60" y="0"/>
      <point x="200" y="-10"/>
    </contour>
    <contour>
      <point x="360" y="310" type="line" smooth="yes"/>
      <point x="395" y="310"/>
      <point x="420" y="285"/>
      <point x="420" y="245" type="curve" smooth="yes"/>
      <point x="420" y="205"/>
      <point x="395" y="180"/>
      <point x="360" y="180" type="curve" smooth="yes"/>
      <point x="320" y="180" type="line"/>
      <point x="320" y="310" type="line"/>
    </contour>
  </outline>
</glyph>
<glyph name="afii10047" format="1">
  <advance width="710"/>
  <unicode hex="042D"/>
  <outline>
    <contour>
      <point x="300" y="715" type="curve" smooth="yes" name="hr00"/>
      <point x="110" y="715"/>
      <point x="20" y="605"/>
      <point x="20" y="605" type="curve"/>
      <point x="130" y="435" type="line"/>
      <point x="130" y="435"/>
      <point x="190" y="490"/>
      <point x="260" y="490" type="curve" smooth="yes"/>
      <point x="350" y="490"/>
      <point x="375" y="430"/>
      <point x="375" y="430" type="curve"/>
      <point x="210" y="430" type="line"/>
      <point x="210" y="270" type="line"/>
      <point x="375" y="270" type="line"/>
      <point x="375" y="270"/>
      <point x="350" y="210"/>
      <point x="260" y="210" type="curve" smooth="yes"/>
      <point x="190" y="210"/>
      <point x="130" y="265"/>
      <point x="130" y="265" type="curve"/>
      <point x="20" y="95" type="line"/>
      <point x="20" y="95"/>
      <point x="110" y="-15"/>
      <point x="300" y="-15" type="curve" smooth="yes"/>
      <point x="510" y="-15"/>
      <point x="670" y="145"/>
      <point x="670" y="350" type="curve" smooth="yes"/>
      <point x="670" y="555"/>
      <point x="510" y="715"/>
    </contour>
  </outline>
</glyph>
<glyph name="afii10048" format="1">
  <advance width="1140"/>
  <unicode hex="042E"/>
  <outline>
    <contour>
      <point x="740" y="715" type="curve" name="hr00"/>
      <point x="450" y="715"/>
      <point x="395" y="460"/>
      <point x="395" y="460" type="curve"/>
      <point x="320" y="460" type="line"/>
      <point x="320" y="700" type="line"/>
      <point x="60" y="700" type="line"/>
      <point x="60" y="0" type="line"/>
      <point x="320" y="0" type="line"/>
      <point x="320" y="240" type="line"/>
      <point x="395" y="240" type="line"/>
      <point x="395" y="240"/>
      <point x="450" y="-15"/>
      <point x="740" y="-15" type="curve" smooth="yes"/>
      <point x="950" y="-15"/>
      <point x="1100" y="135"/>
      <point x="1100" y="350" type="curve" smooth="yes"/>
      <point x="1100" y="565"/>
      <point x="950" y="715"/>
    </contour>
    <contour>
      <point x="740" y="230" type="curve"/>
      <point x="700" y="230"/>
      <point x="660" y="270"/>
      <point x="660" y="350" type="curve" smooth="yes"/>
      <point x="660" y="430"/>
      <point x="700" y="470"/>
      <point x="740" y="470" type="curve" smooth="yes"/>
      <point x="780" y="470"/>
      <point x="820" y="430"/>
      <point x="820" y="350" type="curve" smooth="yes"/>
      <point x="820" y="270"/>
      <point x="780" y="230"/>
    </contour>
  </outline>
</glyph>
<glyph name="afii10049" format="1">
  <advance width="740"/>
  <unicode hex="042F"/>
  <outline>
    <contour>
      <point x="290" y="0" type="line" name="hr00"/>
      <point x="410" y="230" type="line"/>
      <point x="420" y="230" type="line"/>
      <point x="420" y="0" type="line"/>
      <point x="680" y="0" type="line"/>
      <point x="680" y="700" type="line"/>
      <point x="680" y="700"/>
      <point x="540" y="710"/>
      <point x="390" y="710" type="curve" smooth="yes"/>
      <point x="170" y="710"/>
      <point x="70" y="610"/>
      <point x="70" y="465" type="curve" smooth="yes"/>
      <point x="70" y="320"/>
      <point x="160" y="270"/>
      <point x="160" y="270" type="curve"/>
      <point x="-10" y="0" type="line"/>
    </contour>
    <contour>
      <point x="390" y="410" type="line" smooth="yes"/>
      <point x="355" y="410"/>
      <point x="330" y="435"/>
      <point x="330" y="465" type="curve" smooth="yes"/>
      <point x="330" y="495"/>
      <point x="355" y="520"/>
      <point x="390" y="520" type="curve" smooth="yes"/>
      <point x="420" y="520" type="line"/>
      <point x="420" y="410" type="line"/>
    </contour>
  </outline>
</glyph>
<glyph name="afii10066" format="1">
  <advance width="650"/>
  <unicode hex="0431"/>
  <outline>
    <contour>
      <point x="380" y="560" type="curve" smooth="yes" name="hr00"/>
      <point x="560" y="560"/>
      <point x="610" y="610"/>
      <point x="610" y="770" type="curve"/>
      <point x="420" y="770" type="line"/>
      <point x="420" y="745"/>
      <point x="405" y="730"/>
      <point x="380" y="730" type="curve" smooth="yes"/>
      <point x="155" y="730"/>
      <point x="30" y="605"/>
      <point x="30" y="370" type="curve" smooth="yes"/>
      <point x="30" y="330" type="line" smooth="yes"/>
      <point x="30" y="110"/>
      <point x="155" y="-15"/>
      <point x="325" y="-15" type="curve" smooth="yes"/>
      <point x="495" y="-15"/>
      <point x="620" y="110"/>
      <point x="620" y="265" type="curve" smooth="yes"/>
      <point x="620" y="410"/>
      <point x="520" y="510"/>
      <point x="390" y="510" type="curve" smooth="yes"/>
      <point x="290" y="510"/>
      <point x="230" y="440"/>
      <point x="230" y="440" type="curve"/>
      <point x="230" y="510"/>
      <point x="280" y="560"/>
    </contour>
    <contour>
      <point x="380" y="265" type="curve" smooth="yes"/>
      <point x="380" y="215"/>
      <point x="356" y="190"/>
      <point x="325" y="190" type="curve" smooth="yes"/>
      <point x="294" y="190"/>
      <point x="270" y="215"/>
      <point x="270" y="265" type="curve" smooth="yes"/>
      <point x="270" y="315"/>
      <point x="294" y="340"/>
      <point x="325" y="340" type="curve" smooth="yes"/>
      <point x="356" y="340"/>
      <point x="380" y="315"/>
    </contour>
  </outline>
</glyph>
<glyph name="afii10067" format="1">
  <advance width="590"/>
  <unicode hex="0432"/>
  <outline>
    <contour>
      <point x="465" y="275" type="line" name="hr00"/>
      <point x="465" y="275"/>
      <point x="540" y="300"/>
      <point x="540" y="380" type="curve" smooth="yes"/>
      <point x="540" y="460"/>
      <point x="460" y="540"/>
      <point x="290" y="540" type="curve" smooth="yes"/>
      <point x="145" y="540"/>
      <point x="50" y="530"/>
      <point x="50" y="530" type="curve"/>
      <point x="50" y="0" type="line"/>
      <point x="50" y="0"/>
      <point x="145" y="-10"/>
      <point x="295" y="-10" type="curve" smooth="yes"/>
      <point x="490" y="-10"/>
      <point x="570" y="70"/>
      <point x="570" y="150" type="curve" smooth="yes"/>
      <point x="570" y="245"/>
      <point x="465" y="270"/>
      <point x="465" y="270" type="curve"/>
    </contour>
    <contour>
      <point x="280" y="140" type="line"/>
      <point x="280" y="200" type="line"/>
      <point x="295" y="200" type="line" smooth="yes"/>
      <point x="315" y="200"/>
      <point x="330" y="185"/>
      <point x="330" y="170" type="curve" smooth="yes"/>
      <point x="330" y="155"/>
      <point x="315" y="140"/>
      <point x="295" y="140" type="curve" smooth="yes"/>
    </contour>
    <contour>
      <point x="280" y="390" type="line"/>
      <point x="305" y="390"/>
      <point x="320" y="375"/>
      <point x="320" y="360" type="curve" smooth="yes"/>
      <point x="320" y="345"/>
      <point x="305" y="330"/>
      <point x="280" y="330" type="curve"/>
    </contour>
  </outline>
</glyph>
<glyph name="afii10068" format="1">
  <advance width="510"/>
  <unicode hex="0433"/>
  <outline>
    <contour>
      <point x="60" y="530" type="line" name="hr00"/>
      <point x="60" y="0" type="line"/>
      <point x="300" y="0" type="line"/>
      <point x="300" y="320" type="line"/>
      <point x="500" y="320" type="line"/>
      <point x="500" y="530" type="line"/>
    </contour>
  </outline>
</glyph>
<glyph name="afii10069" format="1">
  <advance width="650"/>
  <unicode hex="0434"/>
  <outline>
    <contour>
      <point x="570" y="190" type="line" name="hr00"/>
      <point x="570" y="530" type="line"/>
      <point x="100" y="530" type="line"/>
      <point x="100" y="250"/>
      <point x="50" y="190"/>
      <point x="50" y="190" type="curve"/>
      <point x="0" y="190" type="line"/>
      <point x="0" y="-110" type="line"/>
      <point x="240" y="-110" type="line"/>
      <point x="240" y="0" type="line"/>
      <point x="400" y="0" type="line"/>
      <point x="400" y="-110" type="line"/>
      <point x="640" y="-110" type="line"/>
      <point x="640" y="190" type="line"/>
    </contour>
    <contour>
      <point x="270" y="190" type="line"/>
      <point x="270" y="190"/>
      <point x="300" y="250"/>
      <point x="300" y="340" type="curve"/>
      <point x="340" y="340" type="line"/>
      <point x="340" y="190" type="line"/>
    </contour>
  </outline>
</glyph>
<glyph name="afii10070" format="1">
  <advance width="610"/>
  <unicode hex="0435"/>
  <outline>
    <contour>
      <point x="310" y="545" type="curve" smooth="yes" name="hr00"/>
      <point x="155" y="545"/>
      <point x="30" y="420"/>
      <point x="30" y="265" type="curve" smooth="yes"/>
      <point x="30" y="110"/>
      <point x="155" y="-15"/>
      <point x="325" y="-15" type="curve" smooth="yes"/>
      <point x="460" y="-15"/>
      <point x="535" y="65"/>
      <point x="535" y="65" type="curve"/>
      <point x="450" y="200" type="line"/>
      <point x="450" y="200"/>
      <point x="410" y="160"/>
      <point x="360" y="160" type="curve" smooth="yes"/>
      <point x="280" y="160"/>
      <point x="270" y="215"/>
      <point x="270" y="215" type="curve"/>
      <point x="590" y="215" type="line"/>
      <point x="590" y="219"/>
      <point x="590" y="261"/>
      <point x="590" y="265" type="curve" smooth="yes"/>
      <point x="590" y="420"/>
      <point x="465" y="545"/>
    </contour>
    <contour>
      <point x="265" y="310" type="line"/>
      <point x="265" y="350"/>
      <point x="285" y="370"/>
      <point x="310" y="370" type="curve" smooth="yes"/>
      <point x="335" y="370"/>
      <point x="355" y="350"/>
      <point x="355" y="310" type="curve"/>
    </contour>
  </outline>
</glyph>
